<svg xmlns="http://www.w3.org/2000/svg" xmlns:xlink="http://www.w3.org/1999/xlink" width="78" height="78" viewBox="0 0 78 78">
  <defs>
    <clipPath id="clip-path">
      <rect id="Rectangle_7" data-name="Rectangle 7" width="78" height="78" fill="#fff" stroke="#707070" stroke-width="1"/>
    </clipPath>
  </defs>
  <g id="Mask_Group_4" data-name="Mask Group 4" clip-path="url(#clip-path)">
    <g id="barrier" transform="translate(0 7.703)">
      <g id="Group_7" data-name="Group 7" transform="translate(1.141 1.141)">
        <path id="Path_205" data-name="Path 205" d="M71.991,26.584V12.843H67.028V26.584l1.108,1.291v4.264l-1.108,1.145V66.53h4.962V33.284l-1.021-1.031V27.818Z" transform="translate(-1.141 -8.586)" fill="#fee97d"/>
        <path id="Path_206" data-name="Path 206" d="M67.028,12.843V26.584l1.108,1.291v4.264l-1.108,1.145V66.53h2.481V12.843Z" transform="translate(-1.141 -8.586)" fill="#fedf30"/>
        <path id="Path_207" data-name="Path 207" d="M6.009,12.179v14.4l.91,1.091v4.942l-.91.668V68.2h4.963V33.284l-.721-.744V27.628l.721-1.044v-14.4Z" transform="translate(-1.141 -8.586)" fill="#fee97d"/>
        <path id="Path_208" data-name="Path 208" d="M8.49,12.179H6.009v14.4l.91,1.091v4.942l-.91.668V68.2H8.49V12.179Z" transform="translate(-1.141 -8.586)" fill="#fedf30"/>
        <g id="Group_5" data-name="Group 5">
          <circle id="Ellipse_2" data-name="Ellipse 2" cx="4.938" cy="4.938" r="4.938" transform="translate(2.412)" fill="#fee45a"/>
          <path id="Path_209" data-name="Path 209" d="M6.965,13.524A4.94,4.94,0,0,1,10.2,8.889a4.938,4.938,0,1,0,0,9.27A4.94,4.94,0,0,1,6.965,13.524Z" transform="translate(-1.141 -8.586)" fill="#fedf30"/>
          <path id="Path_210" data-name="Path 210" d="M13.183,65.161H3.8a2.657,2.657,0,0,0-2.657,2.657V68.9a.515.515,0,0,0,.515.515H15.324a.515.515,0,0,0,.515-.515V67.818A2.656,2.656,0,0,0,13.183,65.161Z" transform="translate(-1.141 -8.586)" fill="#f37c7c"/>
          <circle id="Ellipse_3" data-name="Ellipse 3" cx="4.938" cy="4.938" r="4.938" transform="translate(63.431)" fill="#fee45a"/>
          <path id="Path_211" data-name="Path 211" d="M68.292,13.524A4.939,4.939,0,0,1,71.37,8.95a4.938,4.938,0,1,0,0,9.149A4.939,4.939,0,0,1,68.292,13.524Z" transform="translate(-1.141 -8.586)" fill="#fedf30"/>
          <path id="Path_212" data-name="Path 212" d="M64.817,65.161H74.2a2.657,2.657,0,0,1,2.657,2.657V68.9a.515.515,0,0,1-.515.515H62.675a.515.515,0,0,1-.515-.515V67.818a2.657,2.657,0,0,1,2.657-2.657Z" transform="translate(-1.141 -8.586)" fill="#f37c7c"/>
          <path id="Path_213" data-name="Path 213" d="M16.142,26.538a2.27,2.27,0,0,0,1.125,1.967A43.132,43.132,0,0,0,39,34.318a43.131,43.131,0,0,0,21.893-5.905A2.271,2.271,0,0,0,62.01,26.45h0a2.282,2.282,0,0,0-3.436-1.967A38.6,38.6,0,0,1,39,29.754,38.607,38.607,0,0,1,19.57,24.566a2.282,2.282,0,0,0-3.429,1.972Z" transform="translate(-1.141 -8.586)" fill="#ee6161"/>
          <path id="Path_214" data-name="Path 214" d="M51.537,54.322H26.614A3.627,3.627,0,0,1,22.988,50.7V43.131A3.627,3.627,0,0,1,26.614,39.5H51.537a3.627,3.627,0,0,1,3.627,3.627V50.7A3.626,3.626,0,0,1,51.537,54.322Z" transform="translate(-1.141 -8.586)" fill="#f9f3f1"/>
          <path id="Path_215" data-name="Path 215" d="M35.412,49.826A5.428,5.428,0,0,1,29.984,44.4V39.5h-3.37a3.627,3.627,0,0,0-3.627,3.627V50.7a3.627,3.627,0,0,0,3.627,3.627H51.537A3.627,3.627,0,0,0,55.164,50.7v-.869Z" transform="translate(-1.141 -8.586)" fill="#efe2dd"/>
          <g id="Group_4" data-name="Group 4" transform="translate(4.868 17.998)">
            <path id="Path_216" data-name="Path 216" d="M67.028,26.584h4.962v6.7H67.028Z" transform="translate(-6.009 -26.584)" fill="#f37c7c"/>
            <path id="Path_217" data-name="Path 217" d="M6.009,26.584h4.962v6.7H6.009Z" transform="translate(-6.009 -26.584)" fill="#f37c7c"/>
          </g>
        </g>
        <g id="Group_6" data-name="Group 6" transform="translate(4.868 17.998)">
          <path id="Path_218" data-name="Path 218" d="M6.009,26.584H8.49v6.7H6.009Z" transform="translate(-6.009 -26.584)" fill="#ee6161"/>
          <path id="Path_219" data-name="Path 219" d="M67.028,26.584h2.481v6.7H67.028Z" transform="translate(-6.009 -26.584)" fill="#ee6161"/>
        </g>
      </g>
      <path id="Path_220" data-name="Path 220" d="M74.2,64.02H73.132V58.884a1.141,1.141,0,0,0-2.282,0V64.02h-2.68V34.425h2.68v19.6a1.141,1.141,0,1,0,2.282,0V18.4a6.079,6.079,0,1,0-7.244,0v2.343l-2.805,2.108c-.408.307-.825.606-1.246.9a3.5,3.5,0,0,0-.4-.27A3.393,3.393,0,0,0,58,23.5a37.7,37.7,0,0,1-19,5.117,37.711,37.711,0,0,1-18.858-5.034,3.4,3.4,0,0,0-3.43,0,3.509,3.509,0,0,0-.4.273c-.474-.325-.94-.658-1.389-1l-2.805-2.108V18.4a6.079,6.079,0,1,0-7.244,0V64.02H3.8a3.8,3.8,0,0,0-3.8,3.8V68.9a1.658,1.658,0,0,0,1.656,1.656H15.325A1.658,1.658,0,0,0,16.981,68.9V67.818a3.8,3.8,0,0,0-3.8-3.8H12.112V41.44a1.141,1.141,0,1,0-2.282,0V64.02H7.15V34.425h2.68v2.153a1.141,1.141,0,1,0,2.282,0V23.6l1.434,1.078c.5.374,1.013.741,1.539,1.1a3.491,3.491,0,0,0-.084.759,3.42,3.42,0,0,0,1.694,2.954A44.1,44.1,0,0,0,24.657,33.1v5.685a4.773,4.773,0,0,0-2.81,4.345V50.7a4.773,4.773,0,0,0,4.768,4.768H51.537A4.773,4.773,0,0,0,56.305,50.7V43.131a4.773,4.773,0,0,0-2.81-4.345V33.049A44.109,44.109,0,0,0,61.469,29.4a3.423,3.423,0,0,0,1.682-2.949,3.491,3.491,0,0,0-.088-.775c.469-.324.936-.654,1.39-1L65.887,23.6v2.981s0,0,0,0v6.7s0,0,0,0V64.02H64.817a3.8,3.8,0,0,0-3.8,3.8V68.9a1.658,1.658,0,0,0,1.656,1.656H76.344A1.658,1.658,0,0,0,78,68.9V67.818A3.8,3.8,0,0,0,74.2,64.02Zm-59.5,3.8v.455H2.282v-.455A1.518,1.518,0,0,1,3.8,66.3h9.386A1.518,1.518,0,0,1,14.7,67.818ZM8.49,9.727a3.8,3.8,0,1,1-3.8,3.8,3.8,3.8,0,0,1,3.8-3.8Zm0,9.876a6.074,6.074,0,0,0,1.34-.151v5.99H7.15v-5.99a6.062,6.062,0,0,0,1.34.151ZM7.15,32.143V27.725h2.68v4.419Zm44.063,6.22H34.565a1.141,1.141,0,0,0,0,2.282H51.537a2.488,2.488,0,0,1,2.486,2.485V50.7a2.488,2.488,0,0,1-2.486,2.486H26.614A2.488,2.488,0,0,1,24.129,50.7V43.131a2.488,2.488,0,0,1,2.486-2.485H29.7a1.141,1.141,0,0,0,0-2.282H26.939V33.8A44.783,44.783,0,0,0,39,35.459a44.782,44.782,0,0,0,12.213-1.7Zm9.1-10.935A42.252,42.252,0,0,1,39,33.177a42.263,42.263,0,0,1-21.162-5.659,1.131,1.131,0,0,1-.555-.98,1.117,1.117,0,0,1,.569-.986,1.178,1.178,0,0,1,.578-.157,1.126,1.126,0,0,1,.57.159A39.994,39.994,0,0,0,39,30.9a39.981,39.981,0,0,0,20.149-5.428,1.141,1.141,0,0,1,1.168,1.961Zm7.852,4.716V27.725h2.68v4.419Zm1.34-22.417a3.8,3.8,0,1,1-3.8,3.8A3.8,3.8,0,0,1,69.509,9.727Zm0,9.876a6.073,6.073,0,0,0,1.34-.151v5.99h-2.68v-5.99A6.062,6.062,0,0,0,69.509,19.6Zm6.209,48.67H63.3v-.455A1.518,1.518,0,0,1,64.817,66.3H74.2a1.518,1.518,0,0,1,1.516,1.516Z" transform="translate(0 -7.445)"/>
    </g>
  </g>
</svg>
