<svg xmlns="http://www.w3.org/2000/svg" xmlns:xlink="http://www.w3.org/1999/xlink" width="78" height="78" viewBox="0 0 78 78">
  <defs>
    <clipPath id="clip-path">
      <rect id="Rectangle_10" data-name="Rectangle 10" width="78" height="78" transform="translate(179 1638)" fill="#fff" stroke="#707070" stroke-width="1"/>
    </clipPath>
  </defs>
  <g id="Mask_Group_8" data-name="Mask Group 8" transform="translate(-179 -1638)" clip-path="url(#clip-path)">
    <g id="onigiri" transform="translate(179 1638)">
      <g id="Group_10" data-name="Group 10">
        <path id="Path_238" data-name="Path 238" d="M4.825,61.651V55.165H12.9v6.486a.76.76,0,0,1-.76.76H5.585A.76.76,0,0,1,4.825,61.651Z" fill="#e59770"/>
        <path id="Path_239" data-name="Path 239" d="M65.1,61.651V55.165h8.078v6.486a.76.76,0,0,1-.76.76H65.857A.76.76,0,0,1,65.1,61.651Z" fill="#e59770"/>
      </g>
      <path id="Path_240" data-name="Path 240" d="M72.415,62.411h-3.24V55.166h4v6.486A.76.76,0,0,1,72.415,62.411Z" fill="#db7e56"/>
      <path id="Path_241" data-name="Path 241" d="M76.1,55.165H1.9a.76.76,0,0,1-.76-.76V47.848a.76.76,0,0,1,.76-.76H76.1a.76.76,0,0,1,.76.76v6.558A.76.76,0,0,1,76.1,55.165Z" fill="#e59770"/>
      <path id="Path_242" data-name="Path 242" d="M76.1,55.165h-3.24V47.087H76.1a.76.76,0,0,1,.76.76v6.558A.76.76,0,0,1,76.1,55.165Z" fill="#db7e56"/>
      <path id="Path_243" data-name="Path 243" d="M47.86,19.62,38.894,33.748a8.686,8.686,0,0,0,7.333,13.339H64.159a8.686,8.686,0,0,0,7.333-13.339L62.527,19.62A8.685,8.685,0,0,0,47.86,19.62Z" fill="#f9e8d4"/>
      <path id="Path_244" data-name="Path 244" d="M65.84,46.93a8.683,8.683,0,0,0,1.929-11.468L58.8,21.334a8.656,8.656,0,0,0-9.018-3.868,8.7,8.7,0,0,1,12.74,2.155l8.966,14.127A8.693,8.693,0,0,1,65.84,46.93Z" fill="#e8d0ba"/>
      <path id="Path_245" data-name="Path 245" d="M61.723,47.087H48.663V31.19a.76.76,0,0,1,.76-.76H60.963a.76.76,0,0,1,.76.76v15.9h0Z" fill="#3f4c53"/>
      <path id="Path_246" data-name="Path 246" d="M61.723,47.087h-4.2V30.43h3.441a.76.76,0,0,1,.76.76Z" fill="#303d42"/>
      <path id="Path_247" data-name="Path 247" d="M15.473,19.62,6.508,33.748a8.686,8.686,0,0,0,7.333,13.339H31.772a8.686,8.686,0,0,0,7.333-13.339L30.14,19.62A8.685,8.685,0,0,0,15.473,19.62Z" fill="#f9e8d4"/>
      <path id="Path_248" data-name="Path 248" d="M29.336,47.087H16.277V31.19a.76.76,0,0,1,.76-.76H28.576a.76.76,0,0,1,.76.76v15.9Z" fill="#3f4c53"/>
      <path id="Path_249" data-name="Path 249" d="M29.336,47.087h-4.2V30.43h3.441a.76.76,0,0,1,.76.76v15.9Z" fill="#303d42"/>
      <path id="Path_250" data-name="Path 250" d="M33.453,46.93a8.683,8.683,0,0,0,1.929-11.468L26.417,21.334A8.656,8.656,0,0,0,17.4,17.466a8.7,8.7,0,0,1,12.74,2.155l8.966,14.127A8.693,8.693,0,0,1,33.453,46.93Z" fill="#e8d0ba"/>
      <path id="Path_251" data-name="Path 251" d="M76.1,45.947H70.48a9.936,9.936,0,0,0,2.29-2.811,9.7,9.7,0,0,0-.314-10L71,30.849a1.14,1.14,0,1,0-1.926,1.222l1.452,2.288a7.545,7.545,0,0,1-6.371,11.588h-1.3V31.19a1.9,1.9,0,0,0-1.9-1.9H49.424a1.9,1.9,0,0,0-1.9,1.9V45.947h-1.3a7.424,7.424,0,0,1-5.856-2.791l.012-.02a9.686,9.686,0,0,0-.041-9.54l8.481-13.364a7.545,7.545,0,0,1,12.741,0l3.689,5.813a1.14,1.14,0,0,0,1.926-1.222l-3.689-5.813a9.826,9.826,0,0,0-16.592,0L39,31.453,31.1,19.009a9.826,9.826,0,0,0-16.592,0L5.545,33.137a9.7,9.7,0,0,0-.314,10,9.933,9.933,0,0,0,2.29,2.811H1.9a1.9,1.9,0,0,0-1.9,1.9v6.558a1.9,1.9,0,0,0,1.9,1.9H3.684v5.345a1.9,1.9,0,0,0,1.9,1.9h6.558a1.9,1.9,0,0,0,1.9-1.9V56.306h9.03a1.14,1.14,0,0,0,0-2.281H2.281v-5.8H75.719v5.8H30.029a1.14,1.14,0,0,0,0,2.281H63.957v5.345a1.9,1.9,0,0,0,1.9,1.9h6.558a1.9,1.9,0,0,0,1.9-1.9V56.306H76.1a1.9,1.9,0,0,0,1.9-1.9V47.848A1.9,1.9,0,0,0,76.1,45.947ZM5.965,56.306h5.8v4.965h-5.8ZM17.417,45.947V31.57H28.2V45.947Zm13.06,0V31.19a1.9,1.9,0,0,0-1.9-1.9H17.037a1.9,1.9,0,0,0-1.9,1.9V45.947h-1.3A7.545,7.545,0,0,1,7.47,34.359l8.966-14.127a7.545,7.545,0,0,1,12.741,0l8.966,14.127a7.545,7.545,0,0,1-6.371,11.588Zm7.616,0A9.718,9.718,0,0,0,39,45.071a9.7,9.7,0,0,0,.906.876Zm22.49,0H49.8V31.57H60.583ZM72.035,61.271h-5.8V56.306h5.8Z"/>
      <circle id="Ellipse_4" data-name="Ellipse 4" cx="1.292" cy="1.292" r="1.292" transform="translate(33.171 33.986)"/>
      <circle id="Ellipse_5" data-name="Ellipse 5" cx="1.292" cy="1.292" r="1.292" transform="translate(53.902 19.958)"/>
      <circle id="Ellipse_6" data-name="Ellipse 6" cx="1.292" cy="1.292" r="1.292" transform="translate(58.33 22.848)"/>
      <circle id="Ellipse_7" data-name="Ellipse 7" cx="1.292" cy="1.292" r="1.292" transform="translate(34.463 39.383)"/>
      <circle id="Ellipse_8" data-name="Ellipse 8" cx="1.292" cy="1.292" r="1.292" transform="translate(17.735 23.412)"/>
    </g>
  </g>
</svg>
