<svg xmlns="http://www.w3.org/2000/svg" xmlns:xlink="http://www.w3.org/1999/xlink" width="78" height="78" viewBox="0 0 78 78">
  <defs>
    <clipPath id="clip-path">
      <rect id="Rectangle_10" data-name="Rectangle 10" width="78" height="78" transform="translate(179 1638)" fill="#fff" stroke="#707070" stroke-width="1"/>
    </clipPath>
  </defs>
  <g id="Mask_Group_9" data-name="Mask Group 9" transform="translate(-179 -1638)" clip-path="url(#clip-path)">
    <g id="analytics" transform="translate(179 1638)">
      <path id="Path_252" data-name="Path 252" d="M67.954,8.861H10.046a5.476,5.476,0,0,0-5.47,5.47V55.363a5.506,5.506,0,0,0,4.608,5.4l.985.787H66.981l1.835-.787a5.506,5.506,0,0,0,4.608-5.4V14.332a5.476,5.476,0,0,0-5.47-5.47Z" fill="#365e7d"/>
      <path id="Path_253" data-name="Path 253" d="M9.794,55.363V14.332a5.476,5.476,0,0,1,5.47-5.47H10.046a5.476,5.476,0,0,0-5.47,5.47V55.363a5.506,5.506,0,0,0,4.608,5.4l.985.787h5.218l-.985-.787a5.505,5.505,0,0,1-4.608-5.4Z" fill="#2b4d66"/>
      <path id="Path_254" data-name="Path 254" d="M67.844,18.523H10.482L9.49,19.559V54.913a.981.981,0,0,0,.981.982H67.529a.982.982,0,0,0,.981-.982V19.559Z" fill="#e4f6ff"/>
      <path id="Path_255" data-name="Path 255" d="M15.87,54.913V19.559l.993-1.036h-6.38L9.49,19.559V54.913a.981.981,0,0,0,.981.982h6.38A.981.981,0,0,1,15.87,54.913Z" fill="#d3effb"/>
      <path id="Path_256" data-name="Path 256" d="M15.87,13.739h-5.4a.981.981,0,0,0-.981.982V19.56h6.38l.42-.448V14.05Z" fill="#dd636e"/>
      <path id="Path_257" data-name="Path 257" d="M67.529,13.739H15.87v5.821H68.51V14.72A.981.981,0,0,0,67.529,13.739Z" fill="#b1e4f9"/>
      <path id="Path_258" data-name="Path 258" d="M28.348,26.57H16.888a1.019,1.019,0,0,0-1.019,1.019v21.3h13.5v-21.3A1.018,1.018,0,0,0,28.348,26.57Z" fill="#3f6d8e"/>
      <path id="Path_259" data-name="Path 259" d="M20.445,26.57H16.888a1.019,1.019,0,0,0-1.019,1.019v21.3h3.557v-21.3A1.019,1.019,0,0,1,20.445,26.57Z" fill="#365e7d"/>
      <path id="Path_260" data-name="Path 260" d="M24.944,48.885V44.692a.351.351,0,0,0-.351-.351H20.644a.351.351,0,0,0-.351.351v4.193Z" fill="#e4f6ff"/>
      <path id="Path_261" data-name="Path 261" d="M22.969,44.341H20.643a.351.351,0,0,0-.351.351v4.193h2.326V44.692A.351.351,0,0,1,22.969,44.341Z" fill="#d3effb"/>
      <path id="Path_262" data-name="Path 262" d="M77.087,60.765H.913A.918.918,0,0,0,0,61.687v3.172a4.272,4.272,0,0,0,4.238,4.279H73.762A4.272,4.272,0,0,0,78,64.859V61.687A.918.918,0,0,0,77.087,60.765Z" fill="#407093"/>
      <path id="Path_263" data-name="Path 263" d="M9.49,64.859V61.687a.918.918,0,0,1,.913-.922H.913A.918.918,0,0,0,0,61.687v3.172a4.272,4.272,0,0,0,4.238,4.279h9.49A4.272,4.272,0,0,1,9.49,64.859Z" fill="#365e7d"/>
      <path id="Path_264" data-name="Path 264" d="M27.623,60.765v2.128a1.9,1.9,0,0,0,1.883,1.9H48.494a1.9,1.9,0,0,0,1.883-1.9V60.765Z" fill="#5c90b9"/>
      <path id="Path_265" data-name="Path 265" d="M37.113,62.893V60.765h-9.49v2.128a1.9,1.9,0,0,0,1.883,1.9H39A1.9,1.9,0,0,1,37.113,62.893Z" fill="#4a80aa"/>
      <path id="Path_266" data-name="Path 266" d="M42.5,48.885V36.963a.351.351,0,0,0-.351-.351H38.2a.351.351,0,0,0-.351.351V48.885Z" fill="#dd636e"/>
      <path id="Path_267" data-name="Path 267" d="M51.8,48.885V32.647a.351.351,0,0,0-.351-.351H47.5a.351.351,0,0,0-.351.351V48.885Z" fill="#ffaa5b"/>
      <path id="Path_268" data-name="Path 268" d="M61.1,48.885V28.331a.351.351,0,0,0-.351-.351H56.8a.351.351,0,0,0-.351.351V48.885Z" fill="#b3e59f"/>
      <path id="Path_269" data-name="Path 269" d="M40.84,36.612H38.2a.351.351,0,0,0-.351.351V48.885h2.642V36.963a.351.351,0,0,1,.351-.351Z" fill="#da4a54"/>
      <path id="Path_270" data-name="Path 270" d="M50.142,32.3H47.5a.351.351,0,0,0-.351.351V48.885h2.642V32.647A.351.351,0,0,1,50.142,32.3Z" fill="#ff9838"/>
      <path id="Path_271" data-name="Path 271" d="M59.445,27.98H56.8a.351.351,0,0,0-.351.351V48.885h2.642V28.331A.351.351,0,0,1,59.445,27.98Z" fill="#95d6a4"/>
      <g id="Group_11" data-name="Group 11">
        <path id="Path_272" data-name="Path 272" d="M62.286,50.062H36.665a1.177,1.177,0,0,1,0-2.354H62.286a1.177,1.177,0,0,1,0,2.354Z" fill="#b1e4f9"/>
      </g>
      <g id="Group_12" data-name="Group 12">
        <path id="Path_273" data-name="Path 273" d="M30.544,50.062H14.733a1.177,1.177,0,0,1,0-2.354H30.544a1.177,1.177,0,0,1,0,2.354Z" fill="#b3e59f"/>
      </g>
      <g id="Group_13" data-name="Group 13">
        <path id="Path_274" data-name="Path 274" d="M25.234,41.111H20a1.177,1.177,0,1,1,0-2.354h5.232a1.177,1.177,0,1,1,0,2.354Z" fill="#b1e4f9"/>
      </g>
      <g id="Group_14" data-name="Group 14">
        <path id="Path_275" data-name="Path 275" d="M25.234,36.795H20a1.177,1.177,0,1,1,0-2.354h5.232a1.177,1.177,0,1,1,0,2.354Z" fill="#b1e4f9"/>
      </g>
      <g id="Group_15" data-name="Group 15">
        <path id="Path_276" data-name="Path 276" d="M25.234,32.479H20a1.177,1.177,0,1,1,0-2.354h5.232a1.177,1.177,0,1,1,0,2.354Z" fill="#b1e4f9"/>
      </g>
    </g>
  </g>
</svg>
