<svg xmlns="http://www.w3.org/2000/svg" xmlns:xlink="http://www.w3.org/1999/xlink" width="78" height="78" viewBox="0 0 78 78">
  <defs>
    <clipPath id="clip-path">
      <rect id="Rectangle_6" data-name="Rectangle 6" width="78" height="78" fill="#fff" stroke="#707070" stroke-width="1"/>
    </clipPath>
  </defs>
  <g id="Mask_Group_3" data-name="Mask Group 3" clip-path="url(#clip-path)">
    <g id="opening-ceremony" transform="translate(0 0.257)">
      <path id="Path_182" data-name="Path 182" d="M39.65,75.323a.989.989,0,0,0-.574.2,3.39,3.39,0,0,1,.765-.177.868.868,0,0,0-.191-.023Z" transform="translate(-9.941 -9.941)" fill="#eee045"/>
      <path id="Path_183" data-name="Path 183" d="M39.65,82.205a.868.868,0,0,0,.191-.023,3.432,3.432,0,0,1-.765-.177.989.989,0,0,0,.574.2Z" transform="translate(-9.941 -9.941)" fill="#eee045"/>
      <path id="Path_184" data-name="Path 184" d="M43.665,71.518V11.088a13.831,13.831,0,0,0-2.294.194V71.518c1.355,1.29,2.294,4.045,2.294,7.246,0,4.3-1.69,7.809-3.814,8.019a8.024,8.024,0,0,0,3.814-15.265Z" transform="translate(-9.941 -9.941)" fill="#d3ba2a"/>
      <path id="Path_185" data-name="Path 185" d="M35.635,78.889c-.025-3.255.921-6.065,2.294-7.371V51.809c0-1.9-.77-3.441-1.721-3.441s-1.721-1.54-1.721-3.441V24.853c0-5.993,1.916-11.088,4.589-12.978A13.768,13.768,0,0,0,29.9,24.853V44.926a3.441,3.441,0,0,0,3.441,3.441,3.441,3.441,0,0,1,3.441,3.441V71.518a8.022,8.022,0,0,0,2.294,15.191C37.159,86.154,35.665,82.823,35.635,78.889Z" transform="translate(-9.941 -9.941)" fill="#ede49d"/>
      <path id="Path_186" data-name="Path 186" d="M39.076,86.709a1.955,1.955,0,0,0,.775.075l-.079,0C39.537,86.768,39.306,86.742,39.076,86.709Z" transform="translate(-9.941 -9.941)" fill="#eee045"/>
      <path id="Path_187" data-name="Path 187" d="M43.665,78.764c0-3.2-.939-5.956-2.294-7.246V11.282a13.659,13.659,0,0,0-2.294.592c-2.673,1.89-4.588,6.986-4.588,12.979V44.926c0,1.9.77,3.441,1.721,3.441s1.721,1.54,1.721,3.441V71.518c-1.373,1.306-2.319,4.117-2.294,7.371.03,3.934,1.524,7.265,3.441,7.819.229.033.461.06.7.073l.079,0C41.975,86.573,43.665,83.063,43.665,78.764ZM39.65,82.205a.989.989,0,0,1-.574-.2,3.436,3.436,0,0,1,0-6.482.989.989,0,0,1,.574-.2.868.868,0,0,1,.191.023,3.5,3.5,0,0,1,.382-.023,3.441,3.441,0,1,1-.382,6.86A.868.868,0,0,1,39.65,82.205Z" transform="translate(-9.941 -9.941)" fill="#eee045"/>
      <path id="Path_188" data-name="Path 188" d="M40.23,87.941q-.259,0-.52-.015a9.17,9.17,0,0,1-4.074-17.1V51.809a2.3,2.3,0,0,0-2.294-2.294,4.593,4.593,0,0,1-4.588-4.588V24.853A14.928,14.928,0,0,1,43.665,9.941a1.147,1.147,0,0,1,1.147,1.147V70.827A9.223,9.223,0,0,1,49.4,78.764a9.177,9.177,0,0,1-9.17,9.177Zm2.288-75.654A12.635,12.635,0,0,0,31.047,24.853V44.926a2.3,2.3,0,0,0,2.294,2.294,4.593,4.593,0,0,1,4.588,4.588V71.518a1.147,1.147,0,0,1-.654,1.036,6.879,6.879,0,1,0,7.679,11.209,6.822,6.822,0,0,0,2.151-5,6.915,6.915,0,0,0-3.934-6.21,1.147,1.147,0,0,1-.654-1.036ZM40.223,83.353a4.588,4.588,0,1,1,4.588-4.588A4.593,4.593,0,0,1,40.223,83.353Zm0-6.882a2.294,2.294,0,1,0,2.294,2.294A2.3,2.3,0,0,0,40.223,76.47Z" transform="translate(-9.941 -9.941)" fill="#1c2d6b"/>
      <path id="Path_189" data-name="Path 189" d="M22.871,65.636a.99.99,0,0,1,.114.6,3.4,3.4,0,0,0-.229-.751A.886.886,0,0,1,22.871,65.636Z" transform="translate(-9.941 -9.941)" fill="#eee045"/>
      <path id="Path_190" data-name="Path 190" d="M16.911,69.077a.858.858,0,0,1-.076-.177,3.432,3.432,0,0,0,.536.574A.988.988,0,0,1,16.911,69.077Z" transform="translate(-9.941 -9.941)" fill="#eee045"/>
      <path id="Path_191" data-name="Path 191" d="M24.158,60.256,44.208,48.681l3.973-2.294L76.492,30.041a13.844,13.844,0,0,1,.979,2.084L49.328,48.374l-3.973,2.294L25.306,62.243c-1.794-.529-4.65.036-7.422,1.636-3.723,2.15-5.918,5.368-5.038,7.312A8.024,8.024,0,0,1,24.158,60.256Z" transform="translate(-9.941 -9.941)" fill="#d3ba2a"/>
      <path id="Path_192" data-name="Path 192" d="M21.79,70.9c2.831-1.606,4.792-3.83,5.237-5.673L44.1,55.368c1.646-.95,3.365-1.053,3.84-.231s2.195.72,3.84-.231L69.16,44.87c5.19-3,8.645-7.2,8.945-10.463a13.769,13.769,0,0,1-6.651,14.436L54.069,58.88a3.441,3.441,0,0,1-4.7-1.259,3.441,3.441,0,0,0-4.7-1.259L27.6,66.216a8.022,8.022,0,0,1-14.3,5.609c1.44,1.383,5.071,1.011,8.493-.929Z" transform="translate(-9.941 -9.941)" fill="#ede49d"/>
      <path id="Path_193" data-name="Path 193" d="M13.3,71.825a2.04,2.04,0,0,1-.237-.265,2.086,2.086,0,0,1-.216-.369c.014.022.027.045.042.068.128.2.267.384.411.566Z" transform="translate(-9.941 -9.941)" fill="#eee045"/>
      <path id="Path_194" data-name="Path 194" d="M12.845,71.191c.014.022.027.045.042.068.128.2.267.384.411.566,1.439,1.383,5.07,1.011,8.492-.929,2.831-1.606,4.792-3.83,5.237-5.673L44.1,55.369c1.646-.95,3.365-1.053,3.84-.231s2.195.72,3.84-.231L69.16,44.871c5.19-3,8.645-7.2,8.945-10.463a13.643,13.643,0,0,0-.634-2.283L49.327,48.373l-3.973,2.294L25.306,62.243c-1.794-.529-4.65.036-7.422,1.636-3.723,2.15-5.918,5.368-5.038,7.312ZM16.834,68.9a3.5,3.5,0,0,1-.211-.32,3.441,3.441,0,1,1,5.96-3.441,3.488,3.488,0,0,1,.172.342.877.877,0,0,1,.115.154.99.99,0,0,1,.114.6,3.437,3.437,0,0,1-5.614,3.241.992.992,0,0,1-.46-.4A.928.928,0,0,1,16.834,68.9Z" transform="translate(-9.941 -9.941)" fill="#eee045"/>
      <path id="Path_195" data-name="Path 195" d="M19.624,76.031a9.172,9.172,0,1,1,4.56-17.114L75.919,29.048a1.147,1.147,0,0,1,1.567.419,14.912,14.912,0,0,1-5.458,20.37L54.644,59.874a4.592,4.592,0,0,1-6.267-1.679,2.294,2.294,0,0,0-3.134-.84l-16.47,9.509a9.153,9.153,0,0,1-9.149,9.167Zm-.036-16.043a6.878,6.878,0,1,0,6.869,6.32,1.147,1.147,0,0,1,.57-1.084L44.1,55.369a4.588,4.588,0,0,1,6.268,1.679,2.3,2.3,0,0,0,3.134.84L70.881,47.851a12.619,12.619,0,0,0,5.148-16.217l-51.3,29.615a1.146,1.146,0,0,1-1.224-.049,6.915,6.915,0,0,0-3.92-1.213Zm-4-.081h0ZM19.612,71.45a4.614,4.614,0,0,1-1.195-.158,4.561,4.561,0,1,1,1.195.158Zm-1.155-6.577a2.294,2.294,0,1,0,3.134.84A2.3,2.3,0,0,0,18.457,64.873Z" transform="translate(-9.941 -9.941)" fill="#1c2d6b"/>
      <circle id="Ellipse_1" data-name="Ellipse 1" cx="2.281" cy="2.281" r="2.281" transform="translate(27.269 43.581)" fill="#e95947"/>
      <path id="Path_196" data-name="Path 196" d="M39.486,59.232a3.436,3.436,0,1,1,.893-.118A3.454,3.454,0,0,1,39.486,59.232Zm.007-4.564a1.135,1.135,0,1,0,.565.153A1.129,1.129,0,0,0,39.493,54.668Z" transform="translate(-9.941 -9.941)" fill="#1c2d6b"/>
      <path id="Path_197" data-name="Path 197" d="M29.9,44.927V35.509H23.8v9.417a8.823,8.823,0,0,0,.223,2.053H30.58A3.4,3.4,0,0,1,29.9,44.927Z" transform="translate(-9.941 -9.941)" fill="#e8383b"/>
      <path id="Path_198" data-name="Path 198" d="M11.088,35.509l3.279,5.735L11.088,46.98h6.559V35.509Z" transform="translate(-9.941 -9.941)" fill="#ef7f72"/>
      <path id="Path_199" data-name="Path 199" d="M23.8,35.509H17.647V46.98h6.375a8.823,8.823,0,0,1-.223-2.053V35.509Z" transform="translate(-9.941 -9.941)" fill="#e95947"/>
      <path id="Path_200" data-name="Path 200" d="M73.029,35.509V46.98H86.794l-3.279-5.735,3.279-5.735Z" transform="translate(-9.941 -9.941)" fill="#e8383b"/>
      <path id="Path_201" data-name="Path 201" d="M43.665,35.509H57.43V46.98H43.665Z" transform="translate(-9.941 -9.941)" fill="#ef7f72"/>
      <path id="Path_202" data-name="Path 202" d="M57.43,35.509h15.6V46.98H57.43Z" transform="translate(-9.941 -9.941)" fill="#e95947"/>
      <g id="Group_3" data-name="Group 3" transform="translate(0 24.421)">
        <path id="Path_203" data-name="Path 203" d="M30.58,48.127H11.088a1.147,1.147,0,0,1-1-1.716l2.954-5.166-2.954-5.166a1.147,1.147,0,0,1,1-1.716H29.9a1.147,1.147,0,0,1,1.147,1.147v9.417a2.249,2.249,0,0,0,.45,1.364,1.147,1.147,0,0,1-.917,1.836ZM13.065,45.833H28.842a4.653,4.653,0,0,1-.088-.906v-8.27H13.065l2.3,4.019a1.149,1.149,0,0,1,0,1.139Z" transform="translate(-9.941 -34.362)" fill="#1c2d6b"/>
        <path id="Path_204" data-name="Path 204" d="M86.794,48.127H43.665a1.147,1.147,0,0,1-1.147-1.147V35.509a1.147,1.147,0,0,1,1.147-1.147H86.794a1.147,1.147,0,0,1,1,1.716l-2.954,5.166,2.954,5.166a1.147,1.147,0,0,1-1,1.716ZM44.812,45.833h40l-2.3-4.019a1.149,1.149,0,0,1,0-1.139l2.3-4.019h-40Z" transform="translate(-9.941 -34.362)" fill="#1c2d6b"/>
      </g>
    </g>
  </g>
</svg>
