<svg xmlns="http://www.w3.org/2000/svg" xmlns:xlink="http://www.w3.org/1999/xlink" width="78" height="78" viewBox="0 0 78 78">
  <defs>
    <clipPath id="clip-path">
      <rect id="Rectangle_10" data-name="Rectangle 10" width="78" height="78" fill="#fff" stroke="#707070" stroke-width="1"/>
    </clipPath>
  </defs>
  <g id="Mask_Group_5" data-name="Mask Group 5" clip-path="url(#clip-path)">
    <g id="beer" transform="translate(10.064 0.257)">
      <path id="Path_221" data-name="Path 221" d="M54.1,16.937V70.454H16.355V16.939h0a4.849,4.849,0,0,0,3.886.46,4.843,4.843,0,0,0,5.582,3.92,4.981,4.981,0,0,0,8.145.847A5,5,0,0,0,37.743,23.9c.059,0,.114-.015.172-.018a4.993,4.993,0,0,0,.96,1.9,5.033,5.033,0,1,0,7.8,0,4.9,4.9,0,0,0,.8-4.918A5.028,5.028,0,0,0,50.213,17.4a4.844,4.844,0,0,0,3.886-.462Z" transform="translate(-11.323 -1.258)" fill="#f2c351"/>
      <path id="Path_222" data-name="Path 222" d="M54.1,78H16.355a3.774,3.774,0,0,1,0-7.549H54.1A3.774,3.774,0,1,1,54.1,78Z" transform="translate(-11.323 -1.258)" fill="#d5cec2"/>
      <path id="Path_223" data-name="Path 223" d="M54.1,54.1h6.291a2.516,2.516,0,0,0,2.516-2.516V30.195a2.516,2.516,0,0,0-2.516-2.516H54.1V22.646h6.291a7.548,7.548,0,0,1,7.549,7.549V51.582a7.548,7.548,0,0,1-7.549,7.549H54.1Z" transform="translate(-11.323 -1.258)" fill="#d5cec2"/>
      <path id="Path_224" data-name="Path 224" d="M52.472,7.638A4.989,4.989,0,0,0,49.659,6.35,4.946,4.946,0,0,0,42.9,4.4a4.939,4.939,0,0,0-6.416-1.19,4.91,4.91,0,0,0-5.661.435A4.967,4.967,0,0,0,23.308,5.1a4.748,4.748,0,0,0-5.029,2.509A5.016,5.016,0,1,0,20.242,17.4a4.843,4.843,0,0,0,5.582,3.92,4.981,4.981,0,0,0,8.145.847A5,5,0,0,0,37.743,23.9c.059,0,.114-.015.172-.018a4.993,4.993,0,0,0,.96,1.9,5.033,5.033,0,1,0,7.8,0,4.9,4.9,0,0,0,.8-4.918A5.028,5.028,0,0,0,50.213,17.4a4.965,4.965,0,0,0,1.369.213,5.027,5.027,0,0,0,.889-9.976Z" transform="translate(-11.323 -1.258)" fill="#e7e4dd"/>
      <g id="Group_8" data-name="Group 8" transform="translate(10.065 36.485)">
        <path id="Path_225" data-name="Path 225" d="M23.9,65.421a2.516,2.516,0,0,1-2.516-2.516V40.259a2.516,2.516,0,0,1,5.032,0V62.905A2.516,2.516,0,0,1,23.9,65.421Z" transform="translate(-21.388 -37.743)" fill="#f7d881"/>
        <path id="Path_226" data-name="Path 226" d="M35.227,65.421a2.516,2.516,0,0,1-2.516-2.516V40.259a2.516,2.516,0,0,1,5.032,0V62.905A2.516,2.516,0,0,1,35.227,65.421Z" transform="translate(-21.388 -37.743)" fill="#f7d881"/>
        <path id="Path_227" data-name="Path 227" d="M46.55,65.421a2.516,2.516,0,0,1-2.516-2.516V40.259a2.516,2.516,0,0,1,5.032,0V62.905A2.516,2.516,0,0,1,46.55,65.421Z" transform="translate(-21.388 -37.743)" fill="#f7d881"/>
      </g>
      <g id="Group_9" data-name="Group 9">
        <path id="Path_228" data-name="Path 228" d="M60.389,21.388H55.357V17.582A6.257,6.257,0,0,0,53.051,6.475,6.22,6.22,0,0,0,50.421,5.2,6.3,6.3,0,0,0,43.2,2.892,6.26,6.26,0,0,0,36.485,1.8a6.182,6.182,0,0,0-5.661.32,6.143,6.143,0,0,0-3.145-.863,6.277,6.277,0,0,0-5.006,2.516h-.026a6.286,6.286,0,0,0-5.131,2.687A6.248,6.248,0,0,0,15.1,17.581V69.373a5.021,5.021,0,0,0,1.258,9.885H54.1a5.021,5.021,0,0,0,1.257-9.885V60.387h5.032a8.817,8.817,0,0,0,8.807-8.807V30.195a8.815,8.815,0,0,0-8.805-8.807Zm-5.032,7.549h5.032a1.259,1.259,0,0,1,1.258,1.258V51.581a1.259,1.259,0,0,1-1.258,1.258H55.357ZM18.426,8.857a1.263,1.263,0,0,0,.947-.63,3.723,3.723,0,0,1,3.637-1.9l.131.019a1.253,1.253,0,0,0,1.262-.63,3.772,3.772,0,0,1,3.275-1.943,3.722,3.722,0,0,1,2.355.853,1.259,1.259,0,0,0,1.581,0A3.683,3.683,0,0,1,35.853,4.3a1.255,1.255,0,0,0,1.266,0,3.731,3.731,0,0,1,4.8.893,1.253,1.253,0,0,0,1.58.315,3.743,3.743,0,0,1,5.06,1.459,1.257,1.257,0,0,0,.947.63,3.729,3.729,0,0,1,2.107.962,1.253,1.253,0,0,0,.633.315,3.763,3.763,0,1,1-1.693,7.315,1.257,1.257,0,0,0-1.575.949,3.792,3.792,0,0,1-2.058,2.6,1.258,1.258,0,0,0-.629,1.576,3.811,3.811,0,0,1,.255,1.33A3.716,3.716,0,0,1,45.7,25a1.259,1.259,0,0,0,0,1.581,3.717,3.717,0,0,1,.854,2.354,3.774,3.774,0,0,1-7.549,0,3.717,3.717,0,0,1,.854-2.354,1.259,1.259,0,0,0,0-1.581,3.731,3.731,0,0,1-.721-1.425,1.259,1.259,0,0,0-1.219-.947h-.053c-.072,0-.141.01-.12.016a3.713,3.713,0,0,1-2.827-1.306,1.257,1.257,0,0,0-1.893,0,3.722,3.722,0,0,1-2.828,1.306A3.773,3.773,0,0,1,26.92,20.7a1.262,1.262,0,0,0-1.262-.63l-.137.019a2.814,2.814,0,0,1-.359.036,3.788,3.788,0,0,1-3.69-2.989,1.257,1.257,0,0,0-1.575-.949,3.754,3.754,0,1,1-1.471-7.335Zm.445,10.015a5.134,5.134,0,0,0,.517-.025,6.325,6.325,0,0,0,5.773,3.8h.026a6.223,6.223,0,0,0,8.78,1.235,6.265,6.265,0,0,0,3.041,1.237,6.207,6.207,0,0,0,.34.671,6.134,6.134,0,0,0-.864,3.148,6.291,6.291,0,1,0,12.581,0,6.143,6.143,0,0,0-.863-3.145,6.158,6.158,0,0,0,.863-3.145,6.01,6.01,0,0,0-.121-1.191,6.368,6.368,0,0,0,2.117-2.608c.174.016.347.025.52.025a6.285,6.285,0,0,0,1.258-.127V69.2H17.613V18.743a6.285,6.285,0,0,0,1.258.128ZM56.613,74.228A2.517,2.517,0,0,1,54.1,76.742H16.355a2.516,2.516,0,1,1,0-5.031H54.1A2.519,2.519,0,0,1,56.613,74.228ZM66.68,51.58a6.3,6.3,0,0,1-6.291,6.291H55.357V55.354h5.032a3.779,3.779,0,0,0,3.774-3.774V30.195a3.779,3.779,0,0,0-3.774-3.774H55.357V23.9h5.032a6.3,6.3,0,0,1,6.291,6.291Z" transform="translate(-11.323 -1.258)"/>
        <path id="Path_229" data-name="Path 229" d="M23.9,66.677a3.778,3.778,0,0,0,3.774-3.772V40.259a3.774,3.774,0,0,0-7.549,0V62.905A3.778,3.778,0,0,0,23.9,66.677ZM22.646,40.259a1.258,1.258,0,1,1,2.516,0V62.905A1.257,1.257,0,0,1,23.9,64.161h0a1.257,1.257,0,0,1-1.257-1.256Z" transform="translate(-11.323 -1.258)"/>
        <path id="Path_230" data-name="Path 230" d="M35.227,66.677A3.778,3.778,0,0,0,39,62.905V40.259a3.774,3.774,0,0,0-7.549,0V62.905A3.778,3.778,0,0,0,35.227,66.677ZM33.969,40.259a1.258,1.258,0,1,1,2.516,0V62.905a1.257,1.257,0,0,1-1.258,1.256h0a1.257,1.257,0,0,1-1.257-1.256Z" transform="translate(-11.323 -1.258)"/>
        <path id="Path_231" data-name="Path 231" d="M46.55,66.677a3.778,3.778,0,0,0,3.774-3.772V40.259a3.774,3.774,0,0,0-7.549,0V62.905A3.778,3.778,0,0,0,46.55,66.677ZM45.292,40.259a1.258,1.258,0,1,1,2.516,0V62.905a1.257,1.257,0,0,1-1.258,1.256h0a1.257,1.257,0,0,1-1.257-1.256Z" transform="translate(-11.323 -1.258)"/>
      </g>
    </g>
  </g>
</svg>
