<svg xmlns="http://www.w3.org/2000/svg" xmlns:xlink="http://www.w3.org/1999/xlink" width="78" height="78" viewBox="0 0 78 78">
  <defs>
    <clipPath id="clip-path">
      <rect id="Rectangle_10" data-name="Rectangle 10" width="78" height="78" transform="translate(179 1638)" fill="#fff" stroke="#707070" stroke-width="1"/>
    </clipPath>
  </defs>
  <g id="Mask_Group_6" data-name="Mask Group 6" transform="translate(-179 -1638)" clip-path="url(#clip-path)">
    <path id="sport" d="M39,0A39,39,0,1,0,78,39,39,39,0,0,0,39,0Zm1.392,11.244L53.95,5.824a36.481,36.481,0,0,1,4.455,2.4l.036.022a36.609,36.609,0,0,1,4.013,2.943l.109.1q.854.727,1.661,1.505c.068.067.139.13.207.2q.846.826,1.64,1.7c.044.05.086.1.129.151.464.52.91,1.058,1.343,1.605.1.13.208.26.309.39.47.608.924,1.227,1.353,1.866L66.5,30.194,53.2,34.627,40.4,24.378Zm-30.245,5.6q.151-.2.308-.39.642-.814,1.327-1.589c.05-.055.1-.11.144-.165q.788-.879,1.633-1.7c.065-.063.129-.13.2-.189q.8-.772,1.647-1.5l.13-.109a36.75,36.75,0,0,1,3.975-2.925l.051-.032a36.518,36.518,0,0,1,4.428-2.4l13.62,5.394v13.13L24.8,34.621,11.5,30.2,8.8,18.707c.433-.637.882-1.255,1.35-1.86ZM8.58,58.949q-.573-.874-1.1-1.781L7.4,57.022q-.52-.9-.984-1.835l-.011-.02a36.219,36.219,0,0,1-1.712-4.03v-.013c-.231-.65-.442-1.316-.637-1.986l-.07-.247q-.268-.944-.485-1.908c-.013-.063-.029-.123-.041-.185a36.182,36.182,0,0,1-.687-4.4l7.936-9.523,13.206,4.4L27.747,52.6l-6.3,8.379Zm39.077,15.4c-.65.161-1.317.3-1.984.425-.093.018-.189.034-.282.051-.568.1-1.143.189-1.718.26-.154.02-.306.041-.459.059-.534.062-1.074.109-1.615.148-.17.011-.338.029-.508.039-.691.043-1.388.067-2.09.067q-.965,0-1.918-.051c-.077,0-.15-.013-.227-.018q-.848-.049-1.69-.129l-.065-.012a37.04,37.04,0,0,1-3.666-.585l-7.69-12.04,6.2-8.265H48.057l6.3,8.32ZM74.55,46.8c-.013.062-.029.123-.042.185q-.218.964-.485,1.908l-.07.247c-.2.67-.406,1.333-.637,1.986v.013a36.1,36.1,0,0,1-1.712,4.03l-.011.02q-.467.933-.984,1.835l-.084.146q-.52.91-1.094,1.779L56.6,60.97,50.263,52.6l3.831-15.326,13.206-4.4,7.936,9.523A36.1,36.1,0,0,1,74.55,46.8Zm0,0" transform="translate(179 1638)"/>
  </g>
</svg>
