<svg xmlns="http://www.w3.org/2000/svg" xmlns:xlink="http://www.w3.org/1999/xlink" width="78" height="78" viewBox="0 0 78 78">
  <defs>
    <clipPath id="clip-path">
      <rect id="Rectangle_5" data-name="Rectangle 5" width="78" height="78" transform="translate(127 23.743)" fill="#fff" stroke="#707070" stroke-width="1"/>
    </clipPath>
  </defs>
  <g id="Mask_Group_11" data-name="Mask Group 11" transform="translate(-127 -23.743)" clip-path="url(#clip-path)">
    <g id="community" transform="translate(127 23.743)">
      <g id="Group_19" data-name="Group 19">
        <path id="Path_283" data-name="Path 283" d="M20.838,34.554A1.247,1.247,0,0,0,20.5,33.7l-.055-.058-.078-.015a.944.944,0,0,1-.109-.027l-.32-.1v2.356l.392-.288A1.259,1.259,0,0,0,20.838,34.554Z" fill="#fbcb99"/>
        <path id="Path_284" data-name="Path 284" d="M6.169,35.6l.382.254V33.5l-.325.11a.993.993,0,0,1-.162.039l-.088.014-.059.067A1.25,1.25,0,0,0,6.169,35.6Z" fill="#fbcb99"/>
        <path id="Path_285" data-name="Path 285" d="M38.527,63.6a6.148,6.148,0,0,1-.728-.045l-.275-.033V64.74l1.526,1.487,1.6-1.658V63.524l-.275.033a6.114,6.114,0,0,1-.728.045H38.527Z" fill="#fbcb99"/>
        <path id="Path_286" data-name="Path 286" d="M12.684,40.195H13.8a4.167,4.167,0,0,0,4.162-4.162V32.362l-.141-.067a5.2,5.2,0,0,1-2.254-2.164l-.147-.251-.223.186A12.489,12.489,0,0,1,8.741,32.56l-.22.024v3.449A4.167,4.167,0,0,0,12.684,40.195Z" fill="#fbcb99"/>
        <path id="Path_287" data-name="Path 287" d="M38.527,20.729a6.116,6.116,0,0,1-.728-.045l-.275-.033v1.215l1.526,1.487,1.6-1.658V20.652l-.275.033a6.116,6.116,0,0,1-.728.045Z" fill="#fbcb99"/>
        <path id="Path_288" data-name="Path 288" d="M12.684,42.165a6.148,6.148,0,0,1-.728-.045l-.275-.033V43.3l1.526,1.487,1.6-1.658V42.088l-.275.033a6.115,6.115,0,0,1-.728.045H12.684Z" fill="#fbcb99"/>
        <path id="Path_289" data-name="Path 289" d="M46.681,55.99a1.247,1.247,0,0,0-.343-.859l-.055-.058-.078-.015a.936.936,0,0,1-.109-.027l-.32-.1v2.356L46.168,57A1.258,1.258,0,0,0,46.681,55.99Z" fill="#fbcb99"/>
        <path id="Path_290" data-name="Path 290" d="M38.527,18.759h1.117A4.167,4.167,0,0,0,43.806,14.6v-3.67l-.141-.067A5.2,5.2,0,0,1,41.41,8.7l-.147-.251-.223.186a12.487,12.487,0,0,1-6.456,2.491l-.22.024V14.6A4.167,4.167,0,0,0,38.527,18.759Z" fill="#fbcb99"/>
        <path id="Path_291" data-name="Path 291" d="M46.681,13.118a1.247,1.247,0,0,0-.342-.859l-.055-.058-.079-.015a.952.952,0,0,1-.109-.027l-.32-.1v2.356l.392-.288A1.259,1.259,0,0,0,46.681,13.118Z" fill="#fbcb99"/>
        <path id="Path_292" data-name="Path 292" d="M64.37,40.195h1.117a4.167,4.167,0,0,0,4.162-4.162V32.362l-.141-.067a5.2,5.2,0,0,1-2.254-2.164l-.147-.251-.223.186a12.491,12.491,0,0,1-6.456,2.492l-.22.024v3.449A4.167,4.167,0,0,0,64.37,40.195Z" fill="#fbcb99"/>
        <path id="Path_293" data-name="Path 293" d="M64.37,42.165a6.148,6.148,0,0,1-.728-.045l-.275-.033V43.3l1.526,1.487,1.6-1.658V42.088l-.275.033a6.114,6.114,0,0,1-.728.045H64.37Z" fill="#fbcb99"/>
        <path id="Path_294" data-name="Path 294" d="M57.855,35.6l.382.254V33.5l-.325.11a.993.993,0,0,1-.162.039l-.088.014-.059.067a1.25,1.25,0,0,0,.252,1.867Z" fill="#fbcb99"/>
        <path id="Path_295" data-name="Path 295" d="M72.524,34.554a1.247,1.247,0,0,0-.343-.859l-.055-.058-.078-.015a.937.937,0,0,1-.109-.027l-.32-.1v2.356l.392-.288A1.259,1.259,0,0,0,72.524,34.554Z" fill="#fbcb99"/>
        <path id="Path_296" data-name="Path 296" d="M32.012,14.162l.382.254V12.064l-.325.11a.993.993,0,0,1-.162.039l-.088.014-.059.067a1.25,1.25,0,0,0,.252,1.867Z" fill="#fbcb99"/>
        <path id="Path_297" data-name="Path 297" d="M38.527,61.631h1.117a4.167,4.167,0,0,0,4.162-4.162V53.8l-.141-.067a5.2,5.2,0,0,1-2.254-2.164l-.147-.251-.223.186a12.488,12.488,0,0,1-6.456,2.491l-.22.024v3.451A4.167,4.167,0,0,0,38.527,61.631Z" fill="#fbcb99"/>
      </g>
      <g id="Group_20" data-name="Group 20">
        <path id="Path_298" data-name="Path 298" d="M10.163,36.033V32.584l.22-.024a13.253,13.253,0,0,0,5.57-1.845,6.635,6.635,0,0,1-.386-.582l-.147-.251-.223.186A12.489,12.489,0,0,1,8.741,32.56l-.22.024v3.449A4.167,4.167,0,0,0,12.684,40.2H13.8c.088,0,.176,0,.263-.009A4.167,4.167,0,0,1,10.163,36.033Z" fill="#edba89"/>
        <path id="Path_299" data-name="Path 299" d="M36.007,14.6V11.146l.22-.024A13.257,13.257,0,0,0,41.8,9.278a6.6,6.6,0,0,1-.386-.582l-.147-.251-.223.186a12.487,12.487,0,0,1-6.456,2.491l-.22.024V14.6a4.167,4.167,0,0,0,4.162,4.162h1.117c.088,0,.176,0,.263-.009A4.167,4.167,0,0,1,36.007,14.6Z" fill="#edba89"/>
        <path id="Path_300" data-name="Path 300" d="M61.849,36.033V32.584l.22-.024a13.256,13.256,0,0,0,5.57-1.845,6.634,6.634,0,0,1-.386-.582l-.147-.251-.223.186a12.491,12.491,0,0,1-6.456,2.492l-.22.024v3.449A4.167,4.167,0,0,0,64.37,40.2h1.117c.088,0,.176,0,.263-.009A4.167,4.167,0,0,1,61.849,36.033Z" fill="#edba89"/>
        <path id="Path_301" data-name="Path 301" d="M36.007,57.469V54.018l.22-.024A13.261,13.261,0,0,0,41.8,52.15a6.6,6.6,0,0,1-.386-.582l-.147-.251-.223.186a12.488,12.488,0,0,1-6.456,2.491l-.22.024v3.451a4.167,4.167,0,0,0,4.162,4.162h1.117c.088,0,.176,0,.263-.009A4.167,4.167,0,0,1,36.007,57.469Z" fill="#edba89"/>
      </g>
      <path id="Path_302" data-name="Path 302" d="M32.012,57.034l.382.254V54.936l-.325.11a.993.993,0,0,1-.162.039l-.088.014-.059.067a1.25,1.25,0,0,0,.252,1.867Z" fill="#fbcb99"/>
      <g id="Group_21" data-name="Group 21">
        <path id="Path_303" data-name="Path 303" d="M21.088,46.506l-.056-.021-4.6-1.846-2.314,2.4a1.231,1.231,0,0,1-.867.377h-.019a1.231,1.231,0,0,1-.859-.349L9.919,44.683,5.306,46.489l-.057.021a4.547,4.547,0,0,0-2.767,4.432v4.47H23.866v-4.47A4.547,4.547,0,0,0,21.088,46.506Z" fill="#6598cb"/>
        <path id="Path_304" data-name="Path 304" d="M72.775,46.506l-.056-.021-4.6-1.846-2.314,2.4a1.231,1.231,0,0,1-.867.377h-.02a1.231,1.231,0,0,1-.859-.349l-2.451-2.386-4.613,1.806-.057.021a4.547,4.547,0,0,0-2.767,4.432v4.634H75.552V50.942A4.547,4.547,0,0,0,72.775,46.506Z" fill="#6598cb"/>
        <path id="Path_305" data-name="Path 305" d="M46.86,67.943l-.056-.021-4.6-1.846-2.314,2.4a1.231,1.231,0,0,1-.867.377H39a1.231,1.231,0,0,1-.859-.349L35.69,66.119l-4.613,1.807-.057.021a4.547,4.547,0,0,0-2.767,4.432v4.47H49.637v-4.47A4.547,4.547,0,0,0,46.86,67.943Z" fill="#6598cb"/>
      </g>
      <g id="Group_22" data-name="Group 22">
        <path id="Path_306" data-name="Path 306" d="M13.522,23.655h-.586A6.048,6.048,0,0,0,6.9,29.7v1.126l.322-.1.026-.01.026-.007.044-.011.024-.006.067-.01.031,0a.965.965,0,0,1,.1-.005c.051,0,5.13-.037,7.418-3.2a.985.985,0,0,1,1.76.364c.024.1.613,2.443,2.452,2.861l.047.013.025.006.32.1V29.7A6.047,6.047,0,0,0,13.522,23.655Z" fill="#694b4b"/>
        <path id="Path_307" data-name="Path 307" d="M39.365,2.219h-.586A6.048,6.048,0,0,0,32.738,8.26V9.385l.322-.1.026-.01.026-.007.045-.011.024-.006c.02,0,.04-.007.067-.01l.031,0a.965.965,0,0,1,.1-.005c.051,0,5.13-.037,7.418-3.2a.985.985,0,0,1,1.76.364c.024.1.613,2.443,2.452,2.861l.047.013.025.006.32.1V8.26A6.048,6.048,0,0,0,39.365,2.219Z" fill="#694b4b"/>
        <path id="Path_308" data-name="Path 308" d="M65.208,23.655h-.586A6.048,6.048,0,0,0,58.581,29.7v1.126l.322-.1.026-.01.026-.007L59,30.69l.024-.006c.019,0,.039-.006.067-.01l.031,0a.965.965,0,0,1,.1-.005c.051,0,5.13-.037,7.418-3.2a.985.985,0,0,1,1.76.364c.024.1.613,2.443,2.452,2.861l.047.013.025.006.32.1V29.7A6.048,6.048,0,0,0,65.208,23.655Z" fill="#694b4b"/>
        <path id="Path_309" data-name="Path 309" d="M39.365,45.091h-.586a6.048,6.048,0,0,0-6.041,6.041v1.126l.322-.1.026-.01.026-.007.045-.011.024-.006.067-.01.031,0a.965.965,0,0,1,.1-.005c.051,0,5.13-.037,7.418-3.2a.985.985,0,0,1,1.76.364c.024.1.613,2.443,2.452,2.861l.047.013.025.006.32.1V51.132A6.048,6.048,0,0,0,39.365,45.091Z" fill="#694b4b"/>
      </g>
      <path id="Path_310" data-name="Path 310" d="M46.875,25.073l-.066-.024-4.6-1.846-2.314,2.4a1.231,1.231,0,0,1-.867.377h-.019a1.232,1.232,0,0,1-.859-.349L35.7,23.246l-4.613,1.807-.057.021a4.547,4.547,0,0,0-2.767,4.432v4.47H49.643v-4.47A4.536,4.536,0,0,0,46.875,25.073Z" fill="#6598cb"/>
      <g id="Group_23" data-name="Group 23">
        <path id="Path_311" data-name="Path 311" d="M32.175,25.073l.057-.021,3.794-1.486-.33-.321-4.613,1.807-.057.021a4.547,4.547,0,0,0-2.767,4.432v3.157h1.149V29.506A4.547,4.547,0,0,1,32.175,25.073Z" fill="#4982aa"/>
        <path id="Path_312" data-name="Path 312" d="M58.085,46.51l.057-.021L61.935,45l-.33-.321-4.613,1.807-.057.021a4.547,4.547,0,0,0-2.767,4.432V54.1h1.149V50.942A4.547,4.547,0,0,1,58.085,46.51Z" fill="#4982aa"/>
        <path id="Path_313" data-name="Path 313" d="M32.17,67.946l.057-.021L36.02,66.44l-.33-.321-4.613,1.807-.057.021a4.547,4.547,0,0,0-2.767,4.432v3.157H29.4V72.379A4.547,4.547,0,0,1,32.17,67.946Z" fill="#4982aa"/>
        <path id="Path_314" data-name="Path 314" d="M6.4,46.51l.057-.021L10.249,45l-.33-.321L5.306,46.489l-.057.021a4.547,4.547,0,0,0-2.767,4.432V54.1H3.631V50.942A4.547,4.547,0,0,1,6.4,46.51Z" fill="#4982aa"/>
      </g>
      <g id="Group_24" data-name="Group 24">
        <path id="Path_315" data-name="Path 315" d="M8.045,29.7A6.048,6.048,0,0,1,13.8,23.662c-.093,0-.187-.007-.282-.007h-.586A6.048,6.048,0,0,0,6.895,29.7v1.126l.322-.1.026-.01.026-.007.044-.011.024-.006.067-.01.031,0a.965.965,0,0,1,.1-.005c.01,0,.195,0,.5-.024V29.7h0Z" fill="#563b3b"/>
        <path id="Path_316" data-name="Path 316" d="M33.887,8.26a6.048,6.048,0,0,1,5.759-6.034c-.093,0-.187-.007-.282-.007h-.586A6.048,6.048,0,0,0,32.738,8.26V9.385l.322-.1.026-.01.026-.007.045-.011.024-.006c.02,0,.04-.007.067-.01l.031,0a.965.965,0,0,1,.1-.005c.01,0,.195,0,.5-.024V8.26h0Z" fill="#563b3b"/>
        <path id="Path_317" data-name="Path 317" d="M59.73,29.7a6.048,6.048,0,0,1,5.759-6.034c-.093,0-.187-.007-.282-.007h-.586A6.048,6.048,0,0,0,58.581,29.7v1.126l.322-.1.026-.01.026-.007L59,30.69l.024-.006c.019,0,.039-.006.067-.01l.031,0a.965.965,0,0,1,.1-.005c.01,0,.195,0,.5-.024V29.7Z" fill="#563b3b"/>
        <path id="Path_318" data-name="Path 318" d="M33.887,51.132A6.048,6.048,0,0,1,39.646,45.1c-.093,0-.187-.007-.282-.007h-.586a6.048,6.048,0,0,0-6.041,6.041v1.126l.322-.1.026-.01.026-.007.045-.011.024-.006.067-.01.031,0a.965.965,0,0,1,.1-.005c.01,0,.195,0,.5-.024v-.944h0Z" fill="#563b3b"/>
      </g>
      <g id="Group_25" data-name="Group 25">
        <path id="Path_319" data-name="Path 319" d="M32.392,16.573A6.41,6.41,0,0,0,35.235,20.1v.68L30.2,22.75A6.963,6.963,0,0,0,25.79,29.5v4.387a1.232,1.232,0,0,0,1.232,1.232h3.129a1.232,1.232,0,1,0,0-2.463h-1.9V29.5a4.548,4.548,0,0,1,2.767-4.433l.057-.021,4.613-1.807,2.45,2.386A1.232,1.232,0,0,0,39,25.98h.019a1.232,1.232,0,0,0,.867-.377L42.2,23.2l4.6,1.846.066.024A4.535,4.535,0,0,1,49.637,29.5v3.157H34.063a1.232,1.232,0,1,0,0,2.463H50.868a1.239,1.239,0,0,0,1.232-1.24V29.5a6.963,6.963,0,0,0-4.4-6.752l-4.907-1.968V20.1a6.408,6.408,0,0,0,2.844-3.526A3.466,3.466,0,0,0,47.55,10.43V8.257A8.267,8.267,0,0,0,39.293,0h-.586a8.267,8.267,0,0,0-8.258,8.258v2.163a3.465,3.465,0,0,0,1.942,6.153Zm13.559-4.181a1.208,1.208,0,0,0,.137.034,1,1,0,0,1-.137,1.5Zm-5.622,9.2L38.972,23,37.7,21.761v-.834a6.4,6.4,0,0,0,.757.046h1.117a6.4,6.4,0,0,0,.757-.046v.667Zm3.159-7a3.92,3.92,0,0,1-3.916,3.916H38.455a3.92,3.92,0,0,1-3.916-3.916v-3.23a12.668,12.668,0,0,0,6.587-2.546,5.511,5.511,0,0,0,2.362,2.262v3.514ZM32.913,8.258a5.8,5.8,0,0,1,5.795-5.795h.586a5.8,5.8,0,0,1,5.795,5.795v.778c-.021-.007-.043-.011-.064-.017l-.031-.009c-1.7-.387-2.259-2.661-2.264-2.678a1.232,1.232,0,0,0-2.2-.45c-2.215,3.063-7.157,3.1-7.219,3.1h0a1.227,1.227,0,0,0-.126.006l-.035.005C33.118,9,33.088,9,33.06,9l-.046.012c-.024.006-.048.011-.072.019l-.029.011V8.258Zm-1.04,4.2a1.229,1.229,0,0,0,.2-.049v1.549a1,1,0,0,1-.2-1.5Z" fill="#202121"/>
        <path id="Path_320" data-name="Path 320" d="M50.333,4.273A36.687,36.687,0,0,1,69.721,19.3a1.232,1.232,0,0,0,2.073-1.33A39.158,39.158,0,0,0,51.1,1.933a1.231,1.231,0,1,0-.767,2.34Z" fill="#202121"/>
        <path id="Path_321" data-name="Path 321" d="M6.468,19.673a1.231,1.231,0,0,0,1.7-.372A36.659,36.659,0,0,1,27.81,4.191a1.232,1.232,0,0,0-.75-2.346A39.129,39.129,0,0,0,6.1,17.971,1.232,1.232,0,0,0,6.468,19.673Z" fill="#202121"/>
        <path id="Path_322" data-name="Path 322" d="M23.7,72.212A36.577,36.577,0,0,1,8.169,58.7,1.232,1.232,0,1,0,6.1,60.025,39.036,39.036,0,0,0,22.675,74.45,1.232,1.232,0,1,0,23.7,72.212Z" fill="#202121"/>
        <path id="Path_323" data-name="Path 323" d="M71.423,58.324a1.232,1.232,0,0,0-1.7.372,36.6,36.6,0,0,1-15.283,13.4,1.232,1.232,0,1,0,1.046,2.23,39.059,39.059,0,0,0,16.31-14.3A1.232,1.232,0,0,0,71.423,58.324Z" fill="#202121"/>
        <path id="Path_324" data-name="Path 324" d="M26.312,55.32v-4.38a6.963,6.963,0,0,0-4.4-6.752L17,42.221v-.687a6.409,6.409,0,0,0,2.844-3.527,3.466,3.466,0,0,0,1.915-6.141V29.694A8.267,8.267,0,0,0,13.5,21.436h-.586a8.267,8.267,0,0,0-8.258,8.258v2.163A3.465,3.465,0,0,0,6.6,38.009a6.409,6.409,0,0,0,2.843,3.524v.68L4.409,44.187A6.962,6.962,0,0,0,0,50.941v4.387a1.232,1.232,0,0,0,1.232,1.233H4.362a1.232,1.232,0,1,0,0-2.463h-1.9V50.941a4.547,4.547,0,0,1,2.767-4.432l.057-.021L9.9,44.681l2.45,2.386a1.231,1.231,0,0,0,.859.349h.019a1.232,1.232,0,0,0,.867-.377l2.314-2.4,4.6,1.846.056.021a4.547,4.547,0,0,1,2.778,4.436V54.1H8.275a1.232,1.232,0,1,0,0,2.463H25.081A1.239,1.239,0,0,0,26.312,55.32Zm-6.15-21.492a1.207,1.207,0,0,0,.137.034,1,1,0,0,1-.137,1.5V33.829h0ZM6.288,35.391a1,1,0,0,1-.2-1.5,1.231,1.231,0,0,0,.2-.049Zm1.236-4.975h0a1.227,1.227,0,0,0-.126.006l-.03,0c-.031,0-.062.008-.092.014l-.044.011c-.025.006-.05.011-.074.019l-.029.011v-.787A5.8,5.8,0,0,1,12.919,23.9H13.5A5.8,5.8,0,0,1,19.3,29.695v.778c-.021-.007-.043-.011-.064-.017l-.031-.009c-1.7-.387-2.259-2.661-2.264-2.678a1.231,1.231,0,0,0-2.2-.45C12.526,30.381,7.585,30.416,7.523,30.416Zm7.018,12.615-1.357,1.408L11.91,43.2v-.834a6.4,6.4,0,0,0,.757.046h1.117a6.4,6.4,0,0,0,.757-.046v.667h0Zm-.757-3.084H12.667a3.92,3.92,0,0,1-3.916-3.916V32.8a12.668,12.668,0,0,0,6.587-2.546A5.511,5.511,0,0,0,17.7,32.517v3.514A3.92,3.92,0,0,1,13.784,39.947Z" fill="#202121"/>
        <path id="Path_325" data-name="Path 325" d="M73.6,44.189,68.69,42.221v-.687a6.409,6.409,0,0,0,2.844-3.527,3.466,3.466,0,0,0,1.915-6.141V29.694a8.267,8.267,0,0,0-8.258-8.258h-.586a8.267,8.267,0,0,0-8.258,8.258v2.163a3.465,3.465,0,0,0,1.942,6.153,6.409,6.409,0,0,0,2.843,3.524v.68l-5.038,1.973a6.962,6.962,0,0,0-4.407,6.754v4.387a1.232,1.232,0,0,0,1.232,1.233h3.129a1.232,1.232,0,0,0,0-2.463h-1.9V50.941a4.547,4.547,0,0,1,2.767-4.432l.057-.021,4.613-1.807,2.45,2.386a1.231,1.231,0,0,0,.859.349h.019a1.232,1.232,0,0,0,.867-.377l2.314-2.4,4.6,1.846.056.021a4.547,4.547,0,0,1,2.778,4.436V54.1H59.962a1.232,1.232,0,0,0,0,2.463H76.767A1.239,1.239,0,0,0,78,55.32v-4.38A6.963,6.963,0,0,0,73.6,44.189Zm-1.748-10.36a1.2,1.2,0,0,0,.137.034,1,1,0,0,1-.137,1.5V33.829ZM57.974,35.391a1,1,0,0,1-.2-1.5,1.231,1.231,0,0,0,.2-.049v1.549Zm1.235-4.975h0a1.227,1.227,0,0,0-.126.006l-.033,0c-.03,0-.06.008-.089.014l-.046.012c-.024.006-.048.011-.072.019l-.029.011v-.787A5.8,5.8,0,0,1,64.605,23.9h.586a5.8,5.8,0,0,1,5.795,5.795v.778c-.021-.007-.043-.011-.064-.017l-.031-.009c-1.7-.387-2.259-2.661-2.264-2.678a1.231,1.231,0,0,0-2.2-.45C64.212,30.381,59.271,30.416,59.209,30.416Zm7.018,12.615L64.87,44.439,63.6,43.2v-.834a6.4,6.4,0,0,0,.757.046H65.47a6.4,6.4,0,0,0,.757-.046v.667Zm-.757-3.084H64.353a3.92,3.92,0,0,1-3.916-3.916V32.8a12.68,12.68,0,0,0,6.587-2.547,5.511,5.511,0,0,0,2.362,2.262v3.514A3.92,3.92,0,0,1,65.47,39.947Z" fill="#202121"/>
        <path id="Path_326" data-name="Path 326" d="M47.7,65.629l-4.907-1.968v-.687a6.409,6.409,0,0,0,2.844-3.527,3.466,3.466,0,0,0,1.915-6.141V51.134a8.267,8.267,0,0,0-8.258-8.258h-.586a8.267,8.267,0,0,0-8.258,8.258V53.3a3.465,3.465,0,0,0,1.942,6.153,6.409,6.409,0,0,0,2.843,3.524v.68L30.2,65.627A6.962,6.962,0,0,0,25.79,72.38v4.387A1.232,1.232,0,0,0,27.022,78h3.129a1.232,1.232,0,1,0,0-2.463h-1.9V72.38a4.547,4.547,0,0,1,2.767-4.432l.057-.021L35.69,66.12l2.45,2.386a1.231,1.231,0,0,0,.859.349h.019a1.231,1.231,0,0,0,.867-.377l2.314-2.4,4.6,1.846.056.021a4.547,4.547,0,0,1,2.778,4.436v3.157H34.063a1.232,1.232,0,1,0,0,2.463H50.869A1.239,1.239,0,0,0,52.1,76.76V72.38A6.963,6.963,0,0,0,47.7,65.629ZM45.951,56.8V55.268a1.2,1.2,0,0,0,.137.034,1,1,0,0,1-.137,1.5ZM38.707,45.339h.586a5.8,5.8,0,0,1,5.795,5.795v.778c-.02-.006-.041-.011-.062-.016l-.033-.009c-1.7-.387-2.259-2.661-2.264-2.678a1.231,1.231,0,0,0-2.2-.45c-2.216,3.063-7.157,3.1-7.219,3.1h0a1.228,1.228,0,0,0-.126.006l-.041.006c-.027,0-.055.007-.082.012L33,51.9c-.02.005-.041.009-.061.016l-.029.011v-.787A5.8,5.8,0,0,1,38.707,45.339ZM31.624,55.992a1,1,0,0,1,.249-.661,1.227,1.227,0,0,0,.2-.049v1.549A1.006,1.006,0,0,1,31.624,55.992Zm2.915-1.751a12.668,12.668,0,0,0,6.587-2.546,5.514,5.514,0,0,0,2.362,2.262v3.514a3.92,3.92,0,0,1-3.916,3.916H38.455a3.92,3.92,0,0,1-3.916-3.916v-3.23h0Zm4.433,11.638L37.7,64.637V63.8a6.4,6.4,0,0,0,.757.046h1.117a6.4,6.4,0,0,0,.757-.046v.667Z" fill="#202121"/>
      </g>
    </g>
  </g>
</svg>
