<svg xmlns="http://www.w3.org/2000/svg" xmlns:xlink="http://www.w3.org/1999/xlink" width="449" height="467" viewBox="0 0 449 467">
  <defs>
    <clipPath id="clip-path">
      <rect id="Rectangle_17" data-name="Rectangle 17" width="449" height="467" transform="translate(-0.017)" fill="#fff" stroke="#707070" stroke-width="1"/>
    </clipPath>
  </defs>
  <g id="Mask_Group_12" data-name="Mask Group 12" transform="translate(0.017)" clip-path="url(#clip-path)">
    <g id="Layer_x0020_1" transform="translate(16.321 0)">
      <g id="_2578271272880" transform="translate(0)">
        <path id="Path_331" data-name="Path 331" d="M409.775,586.592h0l-.057.033Z" transform="translate(-154.167 -220.048)" fill="#884cb9" fill-rule="evenodd"/>
        <path id="Path_332" data-name="Path 332" d="M408.515,581.054h0a2.182,2.182,0,0,1,2.835.868h0l2.769-1.6-.965-1.944Zm3.085-5.808c-.57-1.137-1.116-2.284-1.691-3.416-1.182.1-2.364.231-3.532.392Z" transform="translate(-152.911 -214.51)" fill="#874bb9" fill-rule="evenodd"/>
        <path id="Path_333" data-name="Path 333" d="M412.04,571.821c.575,1.132,1.121,2.279,1.691,3.416l3.48,2.01-1.926,1.118.965,1.944,3.132-1.807,2.722,1.576c-.721-1.472-1.455-2.935-2.181-4.4l-.542.311-7.234-4.185Z" transform="translate(-155.042 -214.502)" fill="#874bb9" fill-rule="evenodd"/>
        <path id="Path_334" data-name="Path 334" d="M424.68,576.4c.725,1.463,1.46,2.925,2.181,4.4l8.237,4.761c-.546-1.142-1.064-2.3-1.615-3.44l-7.177-4.152,3.98-2.3-.97-1.949Z" transform="translate(-159.798 -215.218)" fill="#874ab9" fill-rule="evenodd"/>
        <path id="Path_335" data-name="Path 335" d="M291.138,505.179c-.871-1.359-1.776-2.689-2.656-4.044L283.052,498l-2.162,1.255Z" transform="translate(-105.694 -186.814)" fill="#894dba" fill-rule="evenodd"/>
        <path id="Path_336" data-name="Path 336" d="M293.062,503.019c.881,1.354,1.785,2.685,2.656,4.044l9.871,5.714c-.815-1.312-1.625-2.623-2.444-3.926Z" transform="translate(-110.274 -188.697)" fill="#894dba" fill-rule="evenodd"/>
        <path id="Path_337" data-name="Path 337" d="M309.228,512.352c.819,1.3,1.63,2.614,2.444,3.926l.038.019c.622-.491,1.206-.986,1.761-1.486Z" transform="translate(-116.357 -192.198)" fill="#894dba" fill-rule="evenodd"/>
        <path id="Path_338" data-name="Path 338" d="M305.262,476.732c-.4-.6-.786-1.213-1.192-1.817l-2.091,1.213,2.171,1.246Z" transform="translate(-113.629 -178.155)" fill="#894dba" fill-rule="evenodd"/>
        <path id="Path_339" data-name="Path 339" d="M305.332,473.306c.405.6.791,1.213,1.192,1.817l4.634-2.68c-.4-.6-.786-1.213-1.191-1.817Z" transform="translate(-114.891 -176.546)" fill="#884cb9" fill-rule="evenodd"/>
        <path id="Path_340" data-name="Path 340" d="M312.762,470.482c.405.6.791,1.213,1.192,1.816l.975-.566c-.551-.5-1.13-1.005-1.743-1.491Z" transform="translate(-117.686 -176.401)" fill="#884cb9" fill-rule="evenodd"/>
        <path id="Path_341" data-name="Path 341" d="M30.354,461.6l.235.241,0-.377Z" transform="translate(-11.423 -173.107)" fill="#8e54bc" fill-rule="evenodd"/>
        <path id="Path_342" data-name="Path 342" d="M171.35,550.651c.414.6.829,1.194,1.239,1.793l4.648-2.685-1.243-1.8Z" transform="translate(-64.477 -205.557)" fill="#8d53bc" fill-rule="evenodd"/>
        <path id="Path_343" data-name="Path 343" d="M178.8,546.355c.41.595.829,1.189,1.239,1.793l4.644-2.689c-.41-.6-.829-1.194-1.239-1.793Z" transform="translate(-67.278 -203.945)" fill="#8d53bc" fill-rule="evenodd"/>
        <path id="Path_344" data-name="Path 344" d="M186.241,542.054c.414.6.834,1.194,1.243,1.793l4.639-2.685c-.41-.6-.829-1.194-1.239-1.793Z" transform="translate(-70.08 -202.333)" fill="#8c52bb" fill-rule="evenodd"/>
        <path id="Path_345" data-name="Path 345" d="M193.686,537.757c.41.6.829,1.194,1.239,1.793l4.644-2.685c-.405-.6-.829-1.194-1.239-1.793Z" transform="translate(-72.881 -200.721)" fill="#8c52bb" fill-rule="evenodd"/>
        <path id="Path_346" data-name="Path 346" d="M201.131,533.461c.41.6.834,1.189,1.239,1.793l4.644-2.689c-.405-.6-.829-1.189-1.239-1.788Z" transform="translate(-75.682 -199.11)" fill="#8c52bb" fill-rule="evenodd"/>
        <path id="Path_347" data-name="Path 347" d="M208.576,529.575c.41.6.834,1.189,1.239,1.788l4.644-2.685-.141-.2c-.772-.288-1.531-.59-2.284-.9Z" transform="translate(-78.484 -197.909)" fill="#8c52bb" fill-rule="evenodd"/>
        <path id="Path_348" data-name="Path 348" d="M217.78,529.017l.141.2.165-.094Z" transform="translate(-81.947 -198.45)" fill="#8b51bb" fill-rule="evenodd"/>
        <path id="Path_349" data-name="Path 349" d="M205.049,455.47c-1.154-1.5-2.279-3.015-3.447-4.506l-.725-.415-2.162,1.26Z" transform="translate(-74.773 -169.014)" fill="#8a50bb" fill-rule="evenodd"/>
        <path id="Path_350" data-name="Path 350" d="M203.343,451.213c1.168,1.491,2.294,3.01,3.447,4.506l3.085,1.784c.838-.359,1.7-.7,2.571-1.019Z" transform="translate(-76.515 -169.263)" fill="#894fbb" fill-rule="evenodd"/>
        <path id="Path_351" data-name="Path 351" d="M216.4,528.058c-.363-.529-.735-1.052-1.1-1.585l-1.187.689C214.867,527.472,215.63,527.774,216.4,528.058Z" transform="translate(-80.569 -197.495)" fill="#7a41ad" fill-rule="evenodd"/>
        <path id="Path_352" data-name="Path 352" d="M216.021,525.067c.363.533.735,1.057,1.1,1.585l.306.113,4.394-2.538-.462-.2-.608-1.213c-.226-.028-.452-.052-.683-.085Z" transform="translate(-81.285 -196.09)" fill="#7940ad" fill-rule="evenodd"/>
        <path id="Path_353" data-name="Path 353" d="M239.639,489.774c-.4-.6-.824-1.194-1.229-1.793l-2.195,1.269c-.094.708-.188,1.42-.283,2.133-.057.052-.1.1-.151.156.042.127.089.26.132.392Zm-21.2-26.432-4.62-2.675q1.257-.538,2.571-1.019l1.922,1.109Z" transform="translate(-80.456 -172.427)" fill="#773ead" fill-rule="evenodd"/>
        <path id="Path_354" data-name="Path 354" d="M253.246,503.376c.4.6.824,1.189,1.229,1.793l4.634-2.68-1.22-1.8Z" transform="translate(-95.292 -187.822)" fill="#773ead" fill-rule="evenodd"/>
        <path id="Path_355" data-name="Path 355" d="M257.555,492.817l1.22,1.8,4.634-2.685-1.215-1.8Zm1.936-6.591q-1.434-2.095-2.887-4.18l-4.05-2.336c-.056.788-.127,1.585-.2,2.387Z" transform="translate(-94.957 -179.953)" fill="#773ead" fill-rule="evenodd"/>
        <path id="Path_356" data-name="Path 356" d="M259.166,483.455q1.455,2.081,2.892,4.176l4.724,2.732-2.025,1.175,1.22,1.8,2.976-1.722,3.688,2.137c-1.079-1.633-2.138-3.279-3.236-4.9l-.452.26Z" transform="translate(-97.52 -181.358)" fill="#773ead" fill-rule="evenodd"/>
        <path id="Path_357" data-name="Path 357" d="M275.582,490.482c1.093,1.623,2.157,3.27,3.236,4.9l.075.047,2.162-1.255-3.758-2.18,4.126-2.383c-.4-.6-.791-1.213-1.2-1.812Z" transform="translate(-103.696 -182.987)" fill="#773dac" fill-rule="evenodd"/>
        <path id="Path_358" data-name="Path 358" d="M283.027,486.185c.4.6.8,1.208,1.2,1.812l4.634-2.685c-.4-.6-.786-1.213-1.191-1.812Z" transform="translate(-106.498 -181.375)" fill="#773dac" fill-rule="evenodd"/>
        <path id="Path_359" data-name="Path 359" d="M290.464,481.892c.4.6.791,1.213,1.192,1.812l4.639-2.68c-.405-.6-.787-1.213-1.192-1.812Z" transform="translate(-109.296 -179.766)" fill="#773dac" fill-rule="evenodd"/>
        <path id="Path_360" data-name="Path 360" d="M297.9,478.328c.405.6.787,1.213,1.192,1.812l3.523-2.038-2.171-1.246Z" transform="translate(-112.095 -178.883)" fill="#773dac" fill-rule="evenodd"/>
        <path id="Path_361" data-name="Path 361" d="M327.085,463.858c-.4-.6-.791-1.213-1.192-1.817l-2.878,1.666,2.152,1.26Z" transform="translate(-121.545 -173.325)" fill="#884cb9" fill-rule="evenodd"/>
        <path id="Path_362" data-name="Path 362" d="M327.622,460.437c.405.6.8,1.208,1.2,1.812l4.634-2.68c-.4-.6-.786-1.217-1.192-1.817Z" transform="translate(-123.278 -171.716)" fill="#884cb9" fill-rule="evenodd"/>
        <path id="Path_363" data-name="Path 363" d="M335.059,456.143c.4.6.791,1.213,1.192,1.817l4.634-2.68c-.4-.6-.791-1.213-1.192-1.817Z" transform="translate(-126.076 -170.108)" fill="#874bb9" fill-rule="evenodd"/>
        <path id="Path_364" data-name="Path 364" d="M342.489,451.855c.4.6.791,1.213,1.2,1.812l4.634-2.68c-.4-.6-.791-1.213-1.192-1.812Z" transform="translate(-128.872 -168.499)" fill="#874bb9" fill-rule="evenodd"/>
        <path id="Path_365" data-name="Path 365" d="M552.266,507.444l.217.439.273-.156Z" transform="translate(-207.806 -190.357)" fill="#8447b7" fill-rule="evenodd"/>
        <path id="Path_366" data-name="Path 366" d="M33.51,433.621c1.206-10.248-9.97-11.093-8.458.061.405,2.973,2.265,5.133,4.149,5.218C32.107,439.023,33.256,435.758,33.51,433.621Z" transform="translate(-9.375 -159.664)" fill="#ffae80" fill-rule="evenodd"/>
        <path id="Path_367" data-name="Path 367" d="M84.763,420.087a16.924,16.924,0,0,0,10.95,3.713,1.9,1.9,0,0,0,1.479-.514c.532-.646.155-1.637-.283-2.354-3.6-5.879-10.371-10.895-13.328-17.156a5.263,5.263,0,0,0-1.257-1.986c-.928-.745-2.237-.576-3.372-.873-1.05-.274-2.176-.948-3.132-.425-.876.481-1.05,1.67-1.309,2.661-.283,1.062-.772,3.713-1.111,4.756a5.555,5.555,0,0,0-.245,3.232,5.1,5.1,0,0,0,2.642,2.9c1.168.628,2.44,1.01,3.6,1.651C81.405,416.807,82.955,418.638,84.763,420.087Z" transform="translate(-27.473 -150.164)" fill="#ffae80" fill-rule="evenodd"/>
        <path id="Path_368" data-name="Path 368" d="M97.195,423.293a1.924,1.924,0,0,1-1.479.5,16.832,16.832,0,0,1-10.955-3.7c-1.809-1.444-3.367-3.284-5.369-4.4-1.159-.628-2.44-1.029-3.6-1.642a5.168,5.168,0,0,1-2.642-2.9,5.625,5.625,0,0,1,.235-3.241c.3-.9.7-3.425.98-4.336l.137-.415c.259-.981.438-2.175,1.323-2.656.942-.528,2.068.146,3.113.429,1.144.283,2.454.118,3.386.868a5.478,5.478,0,0,1,1.257,1.991,22.769,22.769,0,0,0,4.856,6.393,61.906,61.906,0,0,1,8.473,10.762C97.341,421.647,97.722,422.642,97.195,423.293Z" transform="translate(-27.471 -150.162)" fill="#924fc2" fill-rule="evenodd"/>
        <path id="Path_369" data-name="Path 369" d="M91.373,413.044a1.119,1.119,0,0,1-.419,1.062l-.956.151c-3.48-.264-6.551-2.359-9.254-4.586a24.637,24.637,0,0,1-3.862-3.784,12.348,12.348,0,0,1-1.691-2.873l.137-.415c.259-.981.292-3.062,1.173-3.548.947-.528,2.218.033,3.264.312,1.144.283,2.859-.363,3.782.387.617.5.344,2.156.7,2.873a26.121,26.121,0,0,0,5.02,7c.593.812,1.159,1.595,1.63,2.34A3.018,3.018,0,0,1,91.373,413.044Z" transform="translate(-28.294 -149.613)" fill="#ffae80" fill-rule="evenodd"/>
        <path id="Path_370" data-name="Path 370" d="M84.467,301.618c-.1,1.6-.226,3.454-.353,5.492-.122,1.92-.259,4.006-.4,6.223q-.162,2.682-.349,5.549c-1.22,19.18-2.746,43.243-2.746,43.276-1.808,3.378-8.331,4.1-8.929,0-.7-12.673-2.944-23.724-4.535-33.863-.532-3.463-.994-6.808-1.281-10.088a73.984,73.984,0,0,1-.339-8.238v-.4a49.944,49.944,0,0,1,.589-6.95c.113-.694.25-1.364.386-2.038l14.732-9.592C81.241,291.4,84.462,301.184,84.467,301.618Z" transform="translate(-24.657 -109.16)" fill="#ffae80" fill-rule="evenodd"/>
        <path id="Path_371" data-name="Path 371" d="M51.223,274.155c-2.444,12.546-3.843,22.478-5.331,30.074-.113.571-.221,1.137-.339,1.689a62.242,62.242,0,0,1-1.992,7.648c-.165.5-.325.977-.513,1.411l-1.22,5.879-.542,2.562-9.457,45.428-.334,1.614-.316,1.486c0,3.576-5.463,2.364-5.788-.651l-.075-.689c-.075-.675-.146-1.335-.207-2-2.934-27.446-2.124-38.492-.278-48.867.226-1.326.471-2.647.735-3.987.381-1.925.777-3.888,1.173-5.988-.094-.675-.16-1.354-.235-2.024l-.052-.528-.038-.288a194.938,194.938,0,0,1-.834-32.773Z" transform="translate(-8.721 -102.844)" fill="#ffae80" fill-rule="evenodd"/>
        <path id="Path_372" data-name="Path 372" d="M51.223,274.155c-2.444,12.546-3.843,22.478-5.331,30.074-.113.571-.221,1.137-.339,1.689a62.242,62.242,0,0,1-1.992,7.648c-.165.5-.325.977-.513,1.411l-1.22,5.879-.542,2.562-9.457,45.428-.334,1.614-.316,1.486c0,3.576-5.463,2.364-5.788-.651l-.075-.689c-.075-.675-.146-1.335-.207-2-2.934-27.446-2.124-38.492-.278-48.867.226-1.326.471-2.647.735-3.987.381-1.925.777-3.888,1.173-5.988-.094-.675-.16-1.354-.235-2.024l-.052-.528-.038-.288a194.938,194.938,0,0,1-.834-32.773Z" transform="translate(-8.721 -102.844)" fill="#ffbb7d" fill-rule="evenodd"/>
        <path id="Path_373" data-name="Path 373" d="M46.893,322.283c-.113.571-.221,1.137-.339,1.689a62.237,62.237,0,0,1-1.992,7.648c-.165.5-.325.977-.513,1.411l-1.22,5.879-.542,2.562A35.634,35.634,0,0,1,25.831,337.8c.226-1.326.471-2.647.735-3.987.381-1.925.777-3.888,1.173-5.987-.094-.675-.16-1.354-.235-2.024l-.052-.528Z" transform="translate(-9.722 -120.898)" fill="#ffae80" fill-rule="evenodd"/>
        <path id="Path_374" data-name="Path 374" d="M84.114,316.786c-.122,1.92-.259,4.006-.4,6.223q-.162,2.682-.349,5.549c-3.716,4.129-9.518,7.578-16.211,9.413-.532-3.463-.994-6.808-1.281-10.088a73.984,73.984,0,0,1-.339-8.238Z" transform="translate(-24.657 -118.836)" fill="#ffae80" fill-rule="evenodd"/>
        <path id="Path_375" data-name="Path 375" d="M67.105,286.338c-2.232,6.1-32.492,18.321-42.076,8.823l-2.807-41.889c-2.6-13.749-.325-20.836,6.8-27.489.867-.8,1.79-1.585,2.779-2.387l21.255-.863,8.327-.335C68.607,245.275,68.8,270.4,67.105,286.338Z" transform="translate(-7.973 -83.353)" fill="#2d2856" fill-rule="evenodd"/>
        <path id="Path_376" data-name="Path 376" d="M86.47,224.972c-.268-.925-.546-1.84-.829-2.76,0,0,0-.009.009-.014l.843,2.713A.327.327,0,0,0,86.47,224.972Z" transform="translate(-32.227 -83.353)" fill="#562d81" fill-rule="evenodd"/>
        <path id="Path_377" data-name="Path 377" d="M34.212,343.048c-.377-.132-.735-.269-1.064-.415.344.137.7.26,1.055.368C34.208,343.02,34.208,343.034,34.212,343.048Z" transform="translate(-12.475 -128.532)" fill="#966455" fill-rule="evenodd"/>
        <path id="Path_378" data-name="Path 378" d="M29.7,297.831c-.358-.109-.711-.231-1.055-.368a11.949,11.949,0,0,1-3.617-2.293h0l-1.253-18.651a1.232,1.232,0,0,0,.669.208.765.765,0,0,0,.829-.76.71.71,0,0,0-.009-.094,1.429,1.429,0,0,0,.749.217,1.143,1.143,0,0,0,.749-.255h0a.933.933,0,0,0,.226-1.137c-1.653-3.1-3.273-6.176-3.838-8.55L23.1,265.9a1.622,1.622,0,0,1-.042-.208l-.094-1.406a2.85,2.85,0,0,1,.316-1.147,3.684,3.684,0,0,1,1.229-.212c1.611,0,2.958,1.123,4.248,2.477a2.152,2.152,0,0,0,.805.434C28.812,277.8,28.714,290.314,29.7,297.831Zm.038-34.651c-2.619-2.317-4.262-4.218-7.088-5.605l-.146-.071-.283-4.223a52.632,52.632,0,0,1-1.036-9.663c-.009-7.6,2.454-12.64,7.389-17.4,4.719,4.8,11.826,6.639,17.35,6.681a17.58,17.58,0,0,0,2.138.137c4.983,0,8.826-2.373,11.44-7.063a27.654,27.654,0,0,0,1.884-3.756c.283.92.56,1.835.829,2.76-3.82,8.993-10.526,13.188-25.54,13.188-1.149,0-2.35-.028-3.6-.076C31.695,243.235,30.484,252.837,29.74,263.18Z" transform="translate(-7.974 -83.362)" fill="#1a1739" fill-rule="evenodd"/>
        <path id="Path_379" data-name="Path 379" d="M43.2,118.984a8.927,8.927,0,1,1-8.929-8.946A8.937,8.937,0,0,1,43.2,118.984Z" transform="translate(-9.54 -41.279)" fill="#0b1017" fill-rule="evenodd"/>
        <path id="Path_380" data-name="Path 380" d="M121.208,178.852l-2.807,5.119c-1.027-.283-2.058-.58-3.075-.906A123.707,123.707,0,0,1,87.073,169.93L72.059,151.377l-2.652-3.27L71.818,126.9c5.779.127,14.576,16.113,23.666,33.618Z" transform="translate(-26.118 -47.604)" fill="#60c1d2" fill-rule="evenodd"/>
        <path id="Path_381" data-name="Path 381" d="M125.861,207.2a123.705,123.705,0,0,1-28.253-13.136l-.2-.25a7.537,7.537,0,0,0,1.319-2.571,6.473,6.473,0,0,1,.749,1.434Z" transform="translate(-36.653 -71.743)" fill="#2492ad" fill-rule="evenodd"/>
        <path id="Path_382" data-name="Path 382" d="M166.507,223.691c.363,1.231-.132,1.7-1.6,1.274l-1.262-.538c.212.557-.108.76-.97.59l-.3-.052-14.209-7.224a4.9,4.9,0,0,1-2.435-2.831,5.727,5.727,0,0,1,.363-3.713s2.873-5.818,9.937.335c3.772,3.279,6.061,5.152,7.375,6.181l.353.274c.885.689,1.206.892,1.206.892.791,1.057.824,1.765,0,2.071l1.54,1.208C167.157,222.879,167.279,223.422,166.507,223.691Z" transform="translate(-54.773 -78.293)" fill="#ffae80" fill-rule="evenodd"/>
        <path id="Path_383" data-name="Path 383" d="M174.532,223.4h0l-.353-.278.367.231Z" transform="translate(-65.539 -83.699)" fill="#8148a9" fill-rule="evenodd"/>
        <path id="Path_384" data-name="Path 384" d="M162.777,226.876h0l-.3-.052-13.3-6.757-.914-.467a7.233,7.233,0,0,1-1.154-.84,4.192,4.192,0,0,1-1.281-1.991,4.465,4.465,0,0,0,1.743.392c1.87,0,2.986-1.543,3.956-3.039a1.138,1.138,0,0,1,1.027-.458c2.746,0,9.283,4.836,10.95,5.907h0l.353.274a0,0,0,0,0,0,0Z" transform="translate(-54.876 -80.152)" fill="#dd9871" fill-rule="evenodd"/>
        <path id="Path_385" data-name="Path 385" d="M158.736,184.632l-6.942,40.459,20.708,12.47,7.173-41.78Z" transform="translate(-57.118 -69.261)" fill="#ededed" fill-rule="evenodd"/>
        <path id="Path_386" data-name="Path 386" d="M148.517,214.319a7.14,7.14,0,0,0,6.97,1.236l4.427,1.208c3.019.708,2.666-1.637.48-2.222,0,0-6.231-2.619-8.1-4.742Z" transform="translate(-55.885 -78.702)" fill="#ffae80" fill-rule="evenodd"/>
        <path id="Path_387" data-name="Path 387" d="M69.067,164.384a7.918,7.918,0,0,1-9.141,7.535c0,.425,0,.755-.019,1.066-.132,2.638-.6,5.785-.551,8.625l.024.859a13.889,13.889,0,0,0,.283,2.2l.268,1c-2.082,4.945-4.827,8.781-10.291,10.177a19.564,19.564,0,0,1-4.955.51c-5.661-.047-12.989-1.972-17.7-7.049,1.041-7.7-1.568-17.538-4.267-25.8-2.086-6.384-4.253-11.815-4.827-14.565a81.829,81.829,0,0,1,17.435-16c6.419-4.478,9.363-10.173,16.691-7.427s8.181,17.359,10.86,23.12S69.067,158.378,69.067,164.384Z" transform="translate(-6.733 -46.81)" fill="#60c1d2" fill-rule="evenodd"/>
        <path id="Path_388" data-name="Path 388" d="M72.631,231.55c3.923-1.8,6.146-5.171,7.893-9.337h0a23.892,23.892,0,0,1-1.667,3.76A13.275,13.275,0,0,1,72.631,231.55Z" transform="translate(-27.331 -83.359)" fill="#111e47" fill-rule="evenodd"/>
        <path id="Path_389" data-name="Path 389" d="M52.523,235.289a17.562,17.562,0,0,1-2.138-.132c-5.524-.042-12.631-1.883-17.35-6.681v0c4.719,4.8,11.826,6.643,17.35,6.686h.292a19.1,19.1,0,0,0,4.663-.51,13.8,13.8,0,0,0,2.388-.84,13.242,13.242,0,0,0,6.236-5.577C61.349,232.921,57.5,235.294,52.523,235.289Z" transform="translate(-12.432 -85.616)" fill="#0a112f" fill-rule="evenodd"/>
        <path id="Path_390" data-name="Path 390" d="M84.371,210.541h0c0-.241,0-.486,0-.731l.028.014q-.021.368-.028.722Zm.212-3.123-.1-.057c.137-1.883.358-3.765.438-5.445h0C84.884,204.1,84.724,205.87,84.582,207.418Z" transform="translate(-31.747 -75.745)" fill="#373ca0" fill-rule="evenodd"/>
        <path id="Path_391" data-name="Path 391" d="M84.561,211.169l-.094-.071c-.052.722-.085,1.444-.094,2.156l.028.014h0C84.429,212.608,84.49,211.914,84.561,211.169Z" transform="translate(-31.749 -79.189)" fill="#3a48a4" fill-rule="evenodd"/>
        <path id="Path_392" data-name="Path 392" d="M84.524,210.925l.094.071.024-.3-.1-.057Z" transform="translate(-31.806 -79.017)" fill="#3a48a4" fill-rule="evenodd"/>
        <path id="Path_393" data-name="Path 393" d="M85.291,200.361h0Z" transform="translate(-32.093 -75.161)" fill="#373ca0" fill-rule="evenodd"/>
        <path id="Path_394" data-name="Path 394" d="M47.89,218.581H47.6c-5.524-.042-12.631-1.883-17.35-6.681l-.353-.368a27.088,27.088,0,0,0,.235-3.652c.009-7.007-2.218-15.146-4.5-22.152l6.636-1.684,7.192,11.527a12.565,12.565,0,0,0,10.87,6.2c4.964,0,9.523-2.949,9.857-8.262l2.661.731h0l-.019.977c-.08,1.68-.3,3.562-.438,5.445-.061.821-.1,1.642-.113,2.444q-.007.368,0,.736v0l.024.863a9.109,9.109,0,0,0,.283,2.2l.268,1c-1.752,4.162-3.98,7.54-7.9,9.338a14.2,14.2,0,0,1-2.388.84A19.1,19.1,0,0,1,47.89,218.581Z" transform="translate(-9.645 -69.04)" fill="#2492ad" fill-rule="evenodd"/>
        <path id="Path_395" data-name="Path 395" d="M11.111,162.167C5.078,172.712,1.692,184.6.623,197.672c-1.677,9.583.127,27.022,4.46,36.227,1.079-1.331,3-1.925,6.028-1.571.711-12.81,1.564-25.238,0-31.877l9.641-21.138C27.383,164.814,16.537,155.264,11.111,162.167Z" transform="translate(-0.003 -59.974)" fill="#60c1d2" fill-rule="evenodd"/>
        <path id="Path_396" data-name="Path 396" d="M25.9,285.3a1.749,1.749,0,0,1-2.053-.269c-1.606-1.684-3.3-3.015-5.477-2.265a4.054,4.054,0,0,0-.179,2.76l.057.245c.565,2.369,2.185,5.454,3.838,8.55a.94.94,0,0,1-.226,1.137,1.294,1.294,0,0,1-1.5.038c.094.863-1.027,1.2-1.776.41l-1.116-1.227c-.127,1-1.309.722-1.677,0l-2.119-2.628a19.894,19.894,0,0,1-3.65-4.968l-.419-.826a29.468,29.468,0,0,1-1.465-9.347c.73-2.59,3.038-2.968,6.033-1.566l3.57,1.854c3.33,1.637,5.016,3.982,8.59,6.879C26.629,284.479,26.384,285.016,25.9,285.3Z" transform="translate(-3.064 -102.99)" fill="#ffae80" fill-rule="evenodd"/>
        <path id="Path_397" data-name="Path 397" d="M20.678,303.439a1.34,1.34,0,0,1-.956-.444l-1.116-1.227a.649.649,0,0,1-.664.651,1.212,1.212,0,0,1-1.013-.651l-2.119-2.628c-.155-.151-.316-.307-.466-.467a17.006,17.006,0,0,1-1.418-1.689,23.511,23.511,0,0,1-1.766-2.812,4.385,4.385,0,0,0,1.714.335,8.006,8.006,0,0,0,3.626-1.076c1.545,3.591,4.319,8.455,6.495,9.116a1.135,1.135,0,0,1-.749.255,1.429,1.429,0,0,1-.749-.217h0a.71.71,0,0,1,.009.094A.765.765,0,0,1,20.678,303.439Z" transform="translate(-4.201 -110.075)" fill="#d9946d" fill-rule="evenodd"/>
        <path id="Path_398" data-name="Path 398" d="M35.051,292.079a1.788,1.788,0,0,1-.438-.052h0A1.534,1.534,0,0,0,35.051,292.079Z" transform="translate(-13.026 -109.548)" fill="#262249" fill-rule="evenodd"/>
        <path id="Path_399" data-name="Path 399" d="M30.634,290.28a2.135,2.135,0,0,1-.81-.434c-1.29-1.354-2.642-2.477-4.248-2.477a3.685,3.685,0,0,0-1.229.212,2.93,2.93,0,0,0-.32,1.147h0a2.85,2.85,0,0,1,.316-1.147,3.685,3.685,0,0,1,1.229-.212c1.611,0,2.958,1.123,4.248,2.477a2.153,2.153,0,0,0,.805.434Z" transform="translate(-9.043 -107.801)" fill="#161431" fill-rule="evenodd"/>
        <path id="Path_400" data-name="Path 400" d="M23.713,289.752l-.895-3.812a5.524,5.524,0,0,1,1.243-.142c3.306,0,5.68,3.057,7.352,3.727a1.554,1.554,0,0,1-.8.222,2.064,2.064,0,0,1-.438-.057,2.152,2.152,0,0,1-.805-.434c-1.29-1.354-2.642-2.477-4.248-2.477a3.683,3.683,0,0,0-1.229.212,2.929,2.929,0,0,0-.32,1.147,2.853,2.853,0,0,0,0,.349A5.928,5.928,0,0,0,23.713,289.752Z" transform="translate(-8.588 -107.211)" fill="#d9946d" fill-rule="evenodd"/>
        <path id="Path_401" data-name="Path 401" d="M92.633,198.05a12.314,12.314,0,0,0,3.028-2.114A7.523,7.523,0,0,1,92.633,198.05Z" transform="translate(-34.857 -73.502)" fill="#864ab1" fill-rule="evenodd"/>
        <path id="Path_402" data-name="Path 402" d="M45.3,122.814c-.965,3.341-1.813,7.979-3.042,11.428-.73,3.926,6.528,11.763,11.369,11.414,3.424-.679,3.353-7.361,3.857-11.414Z" transform="translate(-15.882 -46.072)" fill="#ffae80" fill-rule="evenodd"/>
        <path id="Path_403" data-name="Path 403" d="M54.446,128.619l-1.107-1.043a8.734,8.734,0,0,0,.344-1.689l2.491,1.378C55.6,127.675,55.03,128.133,54.446,128.619Z" transform="translate(-20.072 -47.224)" fill="#924291" fill-rule="evenodd"/>
        <path id="Path_404" data-name="Path 404" d="M51.438,126.412,48.3,123.468c0-.231-.009-.458-.009-.684l3.495,1.934A8.374,8.374,0,0,1,51.438,126.412Z" transform="translate(-18.171 -46.06)" fill="#0b0d11" fill-rule="evenodd"/>
        <path id="Path_405" data-name="Path 405" d="M61.551,150.027a5.744,5.744,0,0,1-4.253-2.458,5.459,5.459,0,0,0,.862.076c.108,0,.217,0,.32-.009,3.424-.679,3.353-7.361,3.857-11.414l-7.225-6.775c.584-.486,1.154-.944,1.728-1.354l6.278,3.482c-.024,7.837,4.931,16.155,0,18.137A4.117,4.117,0,0,1,61.551,150.027Z" transform="translate(-20.74 -48.051)" fill="#60a29d" fill-rule="evenodd"/>
        <path id="Path_406" data-name="Path 406" d="M55.6,146.064a5.469,5.469,0,0,1-.867-.076c-3.754-4.5-6.259-14.315-6.433-22.11l3.141,2.944,1.107,1.043,7.225,6.775c-.5,4.053-.433,10.734-3.857,11.414C55.814,146.059,55.706,146.064,55.6,146.064Z" transform="translate(-18.177 -46.471)" fill="#ff9260" fill-rule="evenodd"/>
        <path id="Path_407" data-name="Path 407" d="M43.208,115.39c3.424,4.294,7.126,7.96,13.173,7.077,2.237-.326,4.314-3.671,4.14-17.075a22.787,22.787,0,0,0-4.564-12.4C53,89.4,47.932,88.057,43.1,89.161c-6.838,1.562-10.154,6.856-9.349,13.513C35.32,111.743,39.21,115.1,43.208,115.39Z" transform="translate(-12.659 -33.306)" fill="#ffae80" fill-rule="evenodd"/>
        <path id="Path_408" data-name="Path 408" d="M40.438,114.45a5.384,5.384,0,0,0,2.9-2.487c1.338-2.114,1.531-4.614,1.818-7.412,6.254-.637,12.867-5.214,12.867-7.327-.283-2.906-2.063-5.563-7.394-7.677C44.7,87.3,39.426,88.7,35.2,93.307c-6.622,7.2-.645,19.921,4.973,22.228Z" transform="translate(-12.15 -33.197)" fill="#0b1017" fill-rule="evenodd"/>
        <path id="Path_409" data-name="Path 409" d="M44.627,125.73A7.426,7.426,0,0,0,43.12,123.9a3.1,3.1,0,0,0-2.185-.788l-.6.165a1.406,1.406,0,0,0-.669,1.213,3.239,3.239,0,0,0,.334,1.4,6.4,6.4,0,0,0,1.535,2.255,3.884,3.884,0,0,0,2.482,1.043l1.017-.3.363-.727A3.615,3.615,0,0,0,44.627,125.73Z" transform="translate(-14.926 -46.181)" fill="#ffae80" fill-rule="evenodd"/>
        <path id="Path_410" data-name="Path 410" d="M326.882,235.264l212.1,122.7.631-220.957c.047-12.824-8.962-28.428-20.091-34.863L381.589,22.351,347.741,2.785C340.271-1.556,333.73-.641,330.259,4.3c-1.747,2.43-2.75,5.808-2.75,10.031Z" transform="translate(-122.999 -0.001)" fill="#dce1cb" fill-rule="evenodd"/>
        <path id="Path_411" data-name="Path 411" d="M470.209,307.257l15.028-8.691,100.113,57.9a30.1,30.1,0,0,1,3.268,2.227L534.59,389.945,470.209,352.7A26.262,26.262,0,0,1,470.209,307.257Z" transform="translate(-172.002 -112.001)" fill="#373737" fill-rule="evenodd"/>
        <path id="Path_412" data-name="Path 412" d="M470.209,307.257l15.028-8.691,100.113,57.9a30.1,30.1,0,0,1,3.268,2.227L534.59,389.945,470.209,352.7A26.262,26.262,0,0,1,470.209,307.257Z" transform="translate(-172.002 -112.001)" fill="#ff4555" fill-rule="evenodd"/>
        <path id="Path_413" data-name="Path 413" d="M470.209,297.925l15.028-8.691L585.35,347.141a29.372,29.372,0,0,1,3.268,2.222L534.59,380.613l-64.381-37.237A26.266,26.266,0,0,1,470.209,297.925Z" transform="translate(-172.002 -108.5)" fill="#9e2e3b" fill-rule="evenodd"/>
        <path id="Path_414" data-name="Path 414" d="M507.783,318.119l.188.141,30.683,17.873-.188-.151a1.2,1.2,0,0,0,1.512.014l23.162-13.4a4.083,4.083,0,0,0,1.851-3.2,1.3,1.3,0,0,0-.537-1.189L547.9,308.569l6.834-27.635c.231-.944.014-1.675-.447-1.92L523.6,261.145l-.725-.1-.6.227a4.119,4.119,0,0,0-1.747,2.472l-13,52.595A1.893,1.893,0,0,0,507.783,318.119Z" transform="translate(-190.936 -97.926)" fill="#373737" fill-rule="evenodd"/>
        <path id="Path_415" data-name="Path 415" d="M535.113,323.988a1.323,1.323,0,0,1,1.323-.132l30.688,17.868a1.309,1.309,0,0,0-1.323.127L545.215,353.76,514.527,335.9Z" transform="translate(-193.605 -121.442)" fill="#60c1d2" fill-rule="evenodd"/>
        <path id="Path_416" data-name="Path 416" d="M507.529,316.34l13-52.595a4.119,4.119,0,0,1,1.747-2.472l.6-.227.725.1,30.683,17.868-.725-.1-.593.236a4.084,4.084,0,0,0-1.747,2.468l-13,52.59a1.875,1.875,0,0,0,.25,1.779l.188.151L507.972,318.26l-.188-.141A1.893,1.893,0,0,1,507.529,316.34Z" transform="translate(-190.936 -97.926)" fill="#60c1d2" fill-rule="evenodd"/>
        <path id="Path_417" data-name="Path 417" d="M549.852,283.9l.188-.642-22.87-13.315-12.123,49.065,22.842,13.3Z" transform="translate(-193.802 -101.263)" fill="#fff" fill-rule="evenodd"/>
        <path id="Path_418" data-name="Path 418" d="M571.474,289.855a4.084,4.084,0,0,0-1.747,2.468l-13,52.59a1.875,1.875,0,0,0,.25,1.779,1.2,1.2,0,0,0,1.512.014l23.162-13.4a4.083,4.083,0,0,0,1.851-3.2c0-1.18-.838-1.651-1.86-1.062l-20.586,11.909,12.184-49.311c.325-1.3-.2-2.208-1.173-2.024Z" transform="translate(-209.447 -108.636)" fill="#9e2e3b" fill-rule="evenodd"/>
        <path id="Path_419" data-name="Path 419" d="M248.575,42.979C248.6,36.586,250.854,32.1,254.5,30l49.183-28.64c3.669-2.137,8.755-1.831,14.369,1.415l171.76,99.348c11.133,6.44,20.138,22.053,20.105,34.887l-.626,220.948-49.22,28.664-4.95-2.864.622-220.952c.033-9.668-6.787-21.478-15.17-26.328L294.225,51.831l7.912,186.316-49.22,28.659-4.964-2.873Z" transform="translate(-93.3 -0.001)" fill="#ff4555" fill-rule="evenodd"/>
        <path id="Path_420" data-name="Path 420" d="M255.912,287.851l49.211-28.664.513-181.456L271.812,58.165c-8.4-4.85-15.25-.958-15.273,8.724Z" transform="translate(-96.295 -21.037)" fill="#9e2e3b" fill-rule="evenodd"/>
        <path id="Path_421" data-name="Path 421" d="M247.953,281.125l4.964,2.892.626-220.962c.024-9.682,6.867-13.574,15.273-8.724L302.641,73.9l137.936,79.791c8.378,4.85,15.2,16.651,15.179,26.333l-.631,220.934,4.936,2.873.626-220.967c.052-12.824-8.958-28.428-20.091-34.868L302.665,68.208,268.817,48.641c-7.474-4.336-14.016-3.43-17.487,1.515-1.743,2.425-2.741,5.808-2.741,10.031Z" transform="translate(-93.3 -17.204)" fill="#dce1cb" fill-rule="evenodd"/>
        <path id="Path_422" data-name="Path 422" d="M99.655,318.888c-11.129,6.436-20.138,22.039-20.091,34.863l.626,91.907L30.961,417l-.622-91.9c-.038-12.829,8.972-28.447,20.1-34.882L220.4,191.919l49.38,28.564Z" transform="translate(-11.418 -71.995)" fill="#ff4555" fill-rule="evenodd"/>
        <path id="Path_423" data-name="Path 423" d="M115.374,430.545c-.028-9.677,6.791-21.478,15.174-26.328-8.383,4.846-15.193,16.656-15.17,26.328l.626,91.9-3.626,2.09,3.617-2.1Z" transform="translate(-42.287 -151.634)" fill="#ccc" fill-rule="evenodd"/>
        <path id="Path_424" data-name="Path 424" d="M129.375,341.726c-8.383,4.85-15.2,16.656-15.179,26.333l.626,91.884-3.617,2.1-1.319.769L109.26,370.9c-.047-12.824,8.962-28.428,20.091-34.863l170.121-98.4v5.7Z" transform="translate(-41.114 -89.143)" fill="#dce1cb" fill-rule="evenodd"/>
        <path id="Path_425" data-name="Path 425" d="M72.871,316.76l.188.146,30.683,17.863-.188-.142a1.22,1.22,0,0,0,1.512.014l23.162-13.4a4.059,4.059,0,0,0,1.846-3.2,1.294,1.294,0,0,0-.537-1.184l-16.554-9.639,6.834-27.635c.235-.939.014-1.675-.447-1.92L88.681,259.786l-.725-.1-.593.226a4.132,4.132,0,0,0-1.752,2.468l-13,52.595A1.9,1.9,0,0,0,72.871,316.76Z" transform="translate(-27.288 -97.417)" fill="#373737" fill-rule="evenodd"/>
        <path id="Path_426" data-name="Path 426" d="M100.2,322.629a1.3,1.3,0,0,1,1.319-.127l30.688,17.863a1.293,1.293,0,0,0-1.319.132L110.3,352.4,79.608,334.533Z" transform="translate(-29.956 -120.933)" fill="#60c1d2" fill-rule="evenodd"/>
        <path id="Path_427" data-name="Path 427" d="M72.61,314.976l13-52.595a4.108,4.108,0,0,1,1.752-2.463l.593-.231.725.1,30.688,17.863-.725-.1-.593.231a4.086,4.086,0,0,0-1.747,2.472l-13,52.59a1.9,1.9,0,0,0,.254,1.784l.188.142L73.058,316.906l-.188-.146A1.886,1.886,0,0,1,72.61,314.976Z" transform="translate(-27.287 -97.417)" fill="#60c1d2" fill-rule="evenodd"/>
        <path id="Path_428" data-name="Path 428" d="M114.941,282.539l.188-.642-22.87-13.315L80.137,317.643l22.837,13.3Z" transform="translate(-30.155 -100.753)" fill="#fff" fill-rule="evenodd"/>
        <path id="Path_429" data-name="Path 429" d="M136.562,288.492a4.086,4.086,0,0,0-1.747,2.472l-13,52.59a1.9,1.9,0,0,0,.254,1.783,1.22,1.22,0,0,0,1.512.014l23.162-13.4a4.058,4.058,0,0,0,1.846-3.2c0-1.175-.834-1.651-1.856-1.052l-20.59,11.9,12.189-49.311c.316-1.3-.207-2.2-1.173-2.024Z" transform="translate(-45.8 -108.127)" fill="#9e2e3b" fill-rule="evenodd"/>
        <path id="Path_430" data-name="Path 430" d="M607.107,299.544c0,8.262,6.688,11.093,14.93,6.318s14.934-15.33,14.934-23.591-6.688-11.1-14.934-6.327S607.107,291.282,607.107,299.544Z" transform="translate(-228.441 -102.646)" fill="#fff" fill-rule="evenodd"/>
        <path id="Path_431" data-name="Path 431" d="M607.107,349.618l29.864-17.274V320.766l-29.864,17.274Z" transform="translate(-228.441 -120.329)" fill="#9e2e3b" fill-rule="evenodd"/>
        <path id="Path_432" data-name="Path 432" d="M607.107,380.528l29.864-17.274V357.47l-29.864,17.274Z" transform="translate(-228.441 -134.098)" fill="#fff" fill-rule="evenodd"/>
        <path id="Path_433" data-name="Path 433" d="M607.107,397.6l29.864-17.274v-5.785l-29.864,17.274Z" transform="translate(-228.441 -140.502)" fill="#fff" fill-rule="evenodd"/>
        <path id="Path_434" data-name="Path 434" d="M615.813,405.741l24.434-14.127V397.4l-24.434,14.136Z" transform="translate(-231.717 -146.906)" fill="#fff" fill-rule="evenodd"/>
        <path id="Path_435" data-name="Path 435" d="M607.107,431.745l29.864-17.274v-5.785l-29.864,17.274Z" transform="translate(-228.441 -153.311)" fill="#fff" fill-rule="evenodd"/>
        <path id="Path_436" data-name="Path 436" d="M440.422,424.234c-1.041,2.387-2.053,4.7-3.019,6.926a36.857,36.857,0,0,1-4,9.356c-.556,2.152.527,2.251,2.6,1.1l4.291-6.341a10.815,10.815,0,0,1,2.732,4.9l-1.163,9.729c.306,1.883,1.055,1.7,2,.637l1.719-8.842.155,9.47c.673.8,1.229.528,1.681-.75l.551-2.722c.476.986.956.8,1.446-.2l.349-11.593-3.706-13.315-1.441-2.826-5.666,1.581Z" transform="translate(-163.027 -157.463)" fill="#ffae80" fill-rule="evenodd"/>
        <path id="Path_437" data-name="Path 437" d="M414.468,332.671c2.02,7.653,1.488,17.028,4.135,28.13,3.589,11.13,7.992,16.566,13.083,29.206.791,1.231,7.846-.359,7.564-1.666-5.289-24.342-2.195-16.382-5.567-26.894-1.517-8.059-1.63-18.354-2.576-28.149-.565-6.431-3-9.923-6.353-11.385C417.2,319.436,410.211,325.466,414.468,332.671Z" transform="translate(-155.469 -120.547)" fill="#fff" fill-rule="evenodd"/>
        <path id="Path_438" data-name="Path 438" d="M416.008,592.806s-1.064,5.747-.532,8.224,7.064,4.067,7.064,4.067,5.539,6.752,13.319,6.153c4.587-.354,6.137-1.566,6.857-2.921s.042-3.067-.857-4.327-6.787-3.416-9.165-7.219c-1.159-1.85-3.1-5.742-3.1-5.742l-.221-2.09a6.048,6.048,0,0,0-5.75-5.384,6.551,6.551,0,0,0-6.9,7l.089,1.265Z" transform="translate(-156.279 -218.911)" fill="#0b1017" fill-rule="evenodd"/>
        <path id="Path_439" data-name="Path 439" d="M372.16,623.774c-.961,1.817-.961,4.9-1.046,9.361a9.8,9.8,0,0,0,5.279,5.228s1.724,8,12.405,8.262c10.013.25,9.937-3.817,9.886-3.8a6,6,0,0,0-2.294-4.242c-1.441-1.213-6.768-5.752-8.082-7.469a21.933,21.933,0,0,1-2.378-4.416l-.447-7.257h-13.5Z" transform="translate(-139.643 -232.369)" fill="#0b1017" fill-rule="evenodd"/>
        <path id="Path_440" data-name="Path 440" d="M423.968,425.4l-17.765,24.1c.876,6.658,2.265,25.054,3.829,31.339-3.3,23.841.951,50.839,2.906,52.349,2.727,2.246,9.212,3.624,12.984-2.038a306.5,306.5,0,0,1,1.634-53.373Z" transform="translate(-152.846 -159.582)" fill="#201c3d" fill-rule="evenodd"/>
        <path id="Path_441" data-name="Path 441" d="M397.63,442.049l-4.917,44.767c-5.487,27.791-7.87,63.81-7.87,63.81-3.212,5.709-11.751,3.421-14.463,0-.306-3.6-.593-7.332-.834-11.168-1.022-16.623-.918-35.029,5.3-50.806-1.992-11.607-4.083-33.349-3.028-44a34.117,34.117,0,0,1,.758-23.261l.127-.316.3.25a14.328,14.328,0,0,0,4.973,2.732c7.408,2.43,16.941-.075,23.689-2.571,4.95-1.835,8.4-3.666,8.411-3.553C410.515,430.829,405.834,435.967,397.63,442.049Z" transform="translate(-138.871 -156.778)" fill="#2d2856" fill-rule="evenodd"/>
        <path id="Path_442" data-name="Path 442" d="M369.546,541.714h0c-.283-4.671-.485-9.488-.485-14.348,0-12.414,1.319-25.111,5.788-36.453h0a257.2,257.2,0,0,1-3.311-37.057c0-2.609.085-4.964.283-6.941h0a34.362,34.362,0,0,1-1.686-10.663,33.734,33.734,0,0,1,2.322-12.3,8.985,8.985,0,0,0,3.565,3.732l.895.477.25.123c.056.028.113.052.17.08a28.864,28.864,0,0,0,.221,17.835c-2.59,12.938-.909,28.89,1.889,45.631C373.224,502.816,370.916,521.359,369.546,541.714Z" transform="translate(-138.87 -159.038)" fill="#1d1043" fill-rule="evenodd"/>
        <path id="Path_443" data-name="Path 443" d="M412.588,362.809c-.838,5.346-1.9,10.47-2.981,15.367a8.016,8.016,0,0,1-.786,3.039c-1.262,2.741-4.54,6.45-13.1,7.233a49.208,49.208,0,0,1-13.323.41,19.7,19.7,0,0,1-5.835-1.595l-.25-.123-.895-.477c-4.272-2.6-4.206-6.143-4.206-6.143a239.129,239.129,0,0,1-3.631-27.2,81.668,81.668,0,0,1,.014-9.13c.273-6.658,2.2-14.235,2.157-18.8,9.212-3.624,11.379-5.469,19.121-9.8,7.959-1.666,15.316-1,22.22.264C415.55,332.565,414.839,348.409,412.588,362.809Z" transform="translate(-138.268 -118.016)" fill="#fff" fill-rule="evenodd"/>
        <path id="Path_444" data-name="Path 444" d="M376.561,402.488l-.25-.123-.895-.477c-4.154-2.524-4.206-5.95-4.206-6.134v-.009h0a239.14,239.14,0,0,1-3.631-27.2c-.085-1.071-.127-2.317-.127-3.694,0-1.656.056-3.5.141-5.436,3.466-1.892,7.564-4.237,7.564-4.237C371.983,370.163,373.024,386.045,376.561,402.488Z" transform="translate(-138.265 -133.239)" fill="#d6eeeb" fill-rule="evenodd"/>
        <path id="Path_445" data-name="Path 445" d="M413.172,339.967l1.3,4.124,2.364-.863V338.57l-2.364-1.623Z" transform="translate(-155.468 -126.399)" fill="#9e2e3b" fill-rule="evenodd"/>
        <path id="Path_446" data-name="Path 446" d="M415.256,347.861a297.772,297.772,0,0,1,0,34.25l3.862,3.68,2.656-6.035c-.513-8.955-2.246-24.309-4.159-32.759Z" transform="translate(-156.252 -130.169)" fill="#ff4555" fill-rule="evenodd"/>
        <path id="Path_447" data-name="Path 447" d="M400.493,309.832l-4.823,5.643c-6.075,3.444,1.719,16.273,10.017,14.948l6.867-4.784Z" transform="translate(-148.068 -116.227)" fill="#ffae80" fill-rule="evenodd"/>
        <path id="Path_448" data-name="Path 448" d="M396.321,316.122a42.111,42.111,0,0,0-4.8,3.737s3.32,15.556,13.507,16.424a26.9,26.9,0,0,1,1.832-4.841C400.55,330.484,396.321,320.892,396.321,316.122Z" transform="translate(-147.32 -118.587)" fill="#c8e6e2" fill-rule="evenodd"/>
        <path id="Path_449" data-name="Path 449" d="M416.11,331.921l3.735,3.576s3.579-14.636.438-17.727S416.11,331.921,416.11,331.921Z" transform="translate(-156.574 -119.065)" fill="#c8e6e2" fill-rule="evenodd"/>
        <path id="Path_450" data-name="Path 450" d="M419.506,346.2a4.466,4.466,0,0,1-.81-.076,9.281,9.281,0,0,1-1.239-.231c-.254-1.42-.523-2.737-.791-3.926l-2.364.863c.033.5.071,1.033.1,1.585a10.105,10.105,0,0,1-1.686-1.614c.094.014.188.024.283.033.2-.741.424-1.439.65-2.062l.65,2.057,2.364-.863v-2.218l1.9,1.821A75.815,75.815,0,0,0,420,333.579l4.413,2.369C424.413,341.648,423.057,346.2,419.506,346.2Z" transform="translate(-155.298 -125.136)" fill="#ffd6bf" fill-rule="evenodd"/>
        <path id="Path_451" data-name="Path 451" d="M414.864,345.476l-.65-2.057a24.621,24.621,0,0,1,1.182-2.774l0,0,1.827,1.755v2.218Z" transform="translate(-155.86 -127.784)" fill="#9e262c" fill-rule="evenodd"/>
        <path id="Path_452" data-name="Path 452" d="M418.409,350.923a8.793,8.793,0,0,1-3.052-1.477c-.033-.552-.071-1.081-.108-1.581l2.369-.868C417.886,348.181,418.15,349.5,418.409,350.923Z" transform="translate(-156.25 -130.169)" fill="#ff3a40" fill-rule="evenodd"/>
        <path id="Path_453" data-name="Path 453" d="M412.547,334.5v0A9.577,9.577,0,0,1,407,331.138a20.6,20.6,0,0,1-.127-6.884l6.367,3.426c-.495,3.473-.692,6.813-.692,6.813h0Z" transform="translate(-153.011 -121.637)" fill="#ff9260" fill-rule="evenodd"/>
        <path id="Path_454" data-name="Path 454" d="M410.931,343.462q-.141-.007-.283-.028a17.57,17.57,0,0,1-3.433-8.163,9.577,9.577,0,0,0,5.548,3.355v0a24.623,24.623,0,0,0-1.182,2.774C411.355,342.027,411.129,342.726,410.931,343.462Z" transform="translate(-153.227 -125.77)" fill="#c8c1a9" fill-rule="evenodd"/>
        <path id="Path_455" data-name="Path 455" d="M419.844,340.126l-1.9-1.821-1.827-1.755h0s.2-3.341.692-6.813l4.474,2.4A75.815,75.815,0,0,1,419.844,340.126Z" transform="translate(-156.574 -123.694)" fill="#c8c1a9" fill-rule="evenodd"/>
        <path id="Path_456" data-name="Path 456" d="M413.712,285.156c-7.436.071-11.685,3.581-11.972,11.357.217,8.172.626,13.1,4.554,18.68,2.454,3.086,5.788,5.313,9.594,5.119,4.521-.231,11.2-11.093,11.845-18.953C428.835,293.413,422.077,287.322,413.712,285.156Z" transform="translate(-151.167 -106.971)" fill="#ffae80" fill-rule="evenodd"/>
        <path id="Path_457" data-name="Path 457" d="M425.684,306.872c-1.677,3.968-11.543,3.251-15.871-1.618l-.485,2.916-3.984-3.317-3.471,4.515-1.253-1.783c-3.151-6.346-2.991-16.788,6-22.034C418.638,280.713,433.544,294.731,425.684,306.872Z" transform="translate(-150.046 -106.751)" fill-rule="evenodd"/>
        <path id="Path_458" data-name="Path 458" d="M406.928,319.107a6.46,6.46,0,0,1-.98-2.6,2.933,2.933,0,0,1,.862-2.52,2.09,2.09,0,0,1,2.6-.132,2.274,2.274,0,0,1,.749,1.732,6.457,6.457,0,0,1-.353,1.878c-.16.552-.325,1.109-.485,1.666l-.622.991-1.06-.151Z" transform="translate(-152.742 -117.59)" fill="#ffae80" fill-rule="evenodd"/>
        <path id="Path_459" data-name="Path 459" d="M345,451.86l-.476,7,.273,6.228,1.8,4.614c.325,1.095,1.564,1.4,1.144.09l1.592,5.039c.344,1.5,1.874,1.524,1.761.1l-1.154-6.648,4.168,9.116c.65,1.354,2.322,1.491,1.931-.349l-2.906-9.908,3.066,5.407,3,3.647c1.243,1.236,2.863.571,2.1-.981l-3.184-5.082s-1.385-3.959-1.884-5.822l.749-3.874,7.2,3.76c1.954.632,2.722-1.062.984-2.326l-7.258-6.426-4.625-2.817-.386-.236-1.055-3.312-6.867.514Z" transform="translate(-129.636 -168.462)" fill="#ffae80" fill-rule="evenodd"/>
        <path id="Path_460" data-name="Path 460" d="M356.178,333.073c-7.8,8.394-11.67,18.1-17.393,32.457-1.441,11.791.834,26.7,3.838,42.417,2.214,1.128,4.6.3,7.62-1.147-.268-11.668,2.6-23.521,1.422-35.123,6.151-3.869,12.278-15.108,18.9-24.851C372.474,333.21,364.566,325.778,356.178,333.073Z" transform="translate(-127.311 -123.874)" fill="#fff" fill-rule="evenodd"/>
        <path id="Path_461" data-name="Path 461" d="M520.254,671.406c-7.258-.453-5.656-12.8-3.692-19.52.711-2.43,3.622-3.609,6.014-2.822s3.881,5.355,3.8,7.884C526.306,659.308,528.831,671.934,520.254,671.406Z" transform="translate(-193.747 -243.392)" fill="#9e2e3b" fill-rule="evenodd"/>
        <path id="Path_462" data-name="Path 462" d="M517.061,659.534c-1.225-10.423,10.14-11.281,8.595.057-.405,3.02-2.3,5.223-4.21,5.308C518.483,665.026,517.315,661.7,517.061,659.534Z" transform="translate(-194.524 -244.359)" fill="#ffae80" fill-rule="evenodd"/>
        <path id="Path_463" data-name="Path 463" d="M455.286,645.772a17.2,17.2,0,0,1-11.134,3.775,1.928,1.928,0,0,1-1.5-.519c-.537-.661-.16-1.67.287-2.4,3.659-5.978,10.535-11.078,13.55-17.439a5.442,5.442,0,0,1,1.281-2.019c.947-.755,2.27-.585,3.429-.887,1.074-.274,2.209-.963,3.184-.429.89.486,1.064,1.694,1.333,2.7.287,1.081.777,3.775,1.13,4.832a5.643,5.643,0,0,1,.245,3.293,5.2,5.2,0,0,1-2.685,2.939c-1.182.637-2.477,1.029-3.659,1.68C458.705,642.436,457.123,644.3,455.286,645.772Z" transform="translate(-166.461 -234.701)" fill="#ffae80" fill-rule="evenodd"/>
        <path id="Path_464" data-name="Path 464" d="M442.644,649.029a1.983,1.983,0,0,0,1.5.51,17.175,17.175,0,0,0,11.143-3.765c1.837-1.472,3.429-3.345,5.458-4.478,1.187-.642,2.482-1.043,3.659-1.675a5.206,5.206,0,0,0,2.68-2.954,5.63,5.63,0,0,0-.235-3.289c-.3-.911-.706-3.482-.989-4.407l-.137-.425c-.273-1-.457-2.213-1.352-2.7-.965-.543-2.105.146-3.165.439-1.168.288-2.491.118-3.438.878a5.612,5.612,0,0,0-1.286,2.024,23.216,23.216,0,0,1-4.936,6.5,62.942,62.942,0,0,0-8.614,10.942C442.493,647.354,442.107,648.368,442.644,649.029Z" transform="translate(-166.459 -234.698)" fill="#9e2e3b" fill-rule="evenodd"/>
        <path id="Path_465" data-name="Path 465" d="M453.631,638.61a1.146,1.146,0,0,0,.424,1.085l.975.151c3.542-.274,6.655-2.4,9.405-4.666a24.67,24.67,0,0,0,3.928-3.85,12.387,12.387,0,0,0,1.724-2.916l-.137-.425c-.273-1-.306-3.119-1.2-3.6-.956-.543-2.256.028-3.316.316-1.168.283-2.9-.373-3.848.391-.622.5-.349,2.194-.7,2.921a26.835,26.835,0,0,1-5.11,7.12c-.6.83-1.182,1.618-1.653,2.378A3.08,3.08,0,0,0,453.631,638.61Z" transform="translate(-170.688 -234.14)" fill="#ffae80" fill-rule="evenodd"/>
        <path id="Path_466" data-name="Path 466" d="M458.968,525.324c.1,1.628.226,3.506.358,5.577.127,1.963.264,4.081.4,6.332.118,1.817.231,3.7.358,5.648,1.243,19.491,2.793,43.96,2.793,44,1.837,3.43,8.468,4.166,9.08,0,.711-12.89,3-24.125,4.606-34.429.546-3.525,1.017-6.931,1.309-10.258a75.411,75.411,0,0,0,.339-8.38v-.406a51.643,51.643,0,0,0-.593-7.063c-.113-.7-.254-1.387-.391-2.071l-14.986-9.753C462.241,514.939,458.968,524.881,458.968,525.324Z" transform="translate(-172.7 -193.011)" fill="#ffae80" fill-rule="evenodd"/>
        <path id="Path_467" data-name="Path 467" d="M487.178,497.394c2.487,12.763,3.909,22.855,5.416,30.584.118.58.226,1.151.339,1.713a64.739,64.739,0,0,0,2.035,7.781c.165.51.33.991.518,1.434l1.243,5.973.546,2.6,9.617,46.187.344,1.637.315,1.514c0,3.633,5.557,2.4,5.887-.661l.075-.7c.075-.689.155-1.359.217-2.034,2.981-27.9,2.152-39.134.278-49.684-.226-1.345-.485-2.694-.749-4.053-.381-1.958-.786-3.954-1.192-6.087.1-.689.165-1.373.24-2.062l.056-.533.038-.293a198.131,198.131,0,0,0,.843-33.325Z" transform="translate(-183.315 -186.587)" fill="#ffae80" fill-rule="evenodd"/>
        <path id="Path_468" data-name="Path 468" d="M487.178,497.394c2.487,12.763,3.909,22.855,5.416,30.584.118.58.226,1.151.339,1.713a64.739,64.739,0,0,0,2.035,7.781c.165.51.33.991.518,1.434l1.243,5.973.546,2.6,9.617,46.187.344,1.637.315,1.514c0,3.633,5.557,2.4,5.887-.661l.075-.7c.075-.689.155-1.359.217-2.034,2.981-27.9,2.152-39.134.278-49.684-.226-1.345-.485-2.694-.749-4.053-.381-1.958-.786-3.954-1.192-6.087.1-.689.165-1.373.24-2.062l.056-.533.038-.293a198.131,198.131,0,0,0,.843-33.325Z" transform="translate(-183.315 -186.587)" fill="#ffae80" fill-rule="evenodd"/>
        <path id="Path_469" data-name="Path 469" d="M503.168,572.213c-.179,0-.358,0-.537,0h0l-.546-2.6-.673-3.237a38.25,38.25,0,0,0,5.845.481,22.027,22.027,0,0,0,6.4-.844c0,.014,0,.033-.009.047.414-.142.8-.293,1.149-.448a10.7,10.7,0,0,0,3.6-2.3c.075.373.146.741.221,1.114.264,1.359.523,2.708.749,4.053A36.139,36.139,0,0,1,503.168,572.213Z" transform="translate(-188.67 -211.312)" fill="#ff9260" fill-rule="evenodd"/>
        <path id="Path_470" data-name="Path 470" d="M476.978,565.361c-6.8-1.864-12.7-5.374-16.479-9.564h0c-.127-1.949-.24-3.831-.358-5.648-.019-.406-.047-.807-.071-1.2,1.1,3.005,8.92,7.478,17.788,10.182-.254,2.043-.551,4.114-.881,6.233Z" transform="translate(-173.115 -205.928)" fill="#ff9260" fill-rule="evenodd"/>
        <path id="Path_471" data-name="Path 471" d="M432.006,410.706l23.383-4.657s8.939-29.508,8.6-29.985-8.953-18.194-8.953-18.194l-6.725,36.991-20.19,10.168Z" transform="translate(-161.091 -134.248)" fill="#3f76ab" fill-rule="evenodd"/>
        <path id="Path_472" data-name="Path 472" d="M432.006,410.706l23.383-4.657s8.939-29.508,8.6-29.985-8.953-18.194-8.953-18.194l-6.725,36.991-20.19,10.168Z" transform="translate(-161.091 -134.248)" fill="#9e2e3b" fill-rule="evenodd"/>
        <path id="Path_473" data-name="Path 473" d="M505.733,329.124c14.887,4.841,11.708,18.92,7.7,29.947l-10.507-9.9Z" transform="translate(-189.239 -123.464)" fill="#1d1d1b" fill-rule="evenodd"/>
        <path id="Path_474" data-name="Path 474" d="M459.53,509.792c2.265,6.19,33.033,18.618,42.773,8.969l2.854-42.592c2.642-13.98.33-21.185-6.909-27.946-.881-.816-1.813-1.614-2.835-2.425l-21.6-.878-8.463-.344C458,468.035,457.8,493.59,459.53,509.792Z" transform="translate(-172.575 -166.774)" fill="#9e2e3b" fill-rule="evenodd"/>
        <path id="Path_475" data-name="Path 475" d="M454.732,387.134a7.919,7.919,0,0,0,9.137,7.54c.028,4.133,1.286,9.913,0,13.716,2.068,4.954,4.823,8.781,10.276,10.182,5.463,1.382,16.375.226,22.634-6.535-1.041-7.677,1.545-17.519,4.248-25.762,2.1-6.379,2.849-14.429,3.438-17.16-5-6.289-9.631-8.908-16.036-13.372s-11.294-9.606-18.6-6.86-6.217,16.759-8.906,22.52C458.25,377.145,454.746,381.151,454.732,387.134Z" transform="translate(-171.106 -130.587)" fill="#ff4555" fill-rule="evenodd"/>
        <path id="Path_476" data-name="Path 476" d="M508.654,476.481h0l.023-.311a53.824,53.824,0,0,0,1.06-9.823,53.824,53.824,0,0,1-1.06,9.823ZM468.024,447.4a.391.391,0,0,0-.033-.061l.867-2.76s0,.014,0,.019C468.571,445.525,468.293,446.464,468.024,447.4Z" transform="translate(-176.095 -166.774)" fill="#b2857d" fill-rule="evenodd"/>
        <path id="Path_477" data-name="Path 477" d="M521.021,567.43c0-.014,0-.033.009-.047.391-.123.772-.255,1.14-.4C521.816,567.138,521.435,567.289,521.021,567.43Z" transform="translate(-196.049 -212.692)" fill="#ce563b" fill-rule="evenodd"/>
        <path id="Path_478" data-name="Path 478" d="M501.093,521.477c1.964-14.9-.287-49.07-3.433-60.738q-1.9.078-3.655.075c-15.264,0-22.083-4.265-25.969-13.4.273-.939.551-1.873.843-2.8,2.072,4.945,4.827,8.762,10.272,10.163a19.545,19.545,0,0,0,4.7.51c5.7,0,13.168-1.9,17.934-7.044h0c5.317,4.964,7.973,10.168,7.969,18.123a53.839,53.839,0,0,1-1.06,9.823l-.024.311-2.83,42.281a12.281,12.281,0,0,1-3.608,2.3C501.866,521.222,501.484,521.354,501.093,521.477Z" transform="translate(-176.112 -166.785)" fill="#801b24" fill-rule="evenodd"/>
        <path id="Path_479" data-name="Path 479" d="M470.282,436.725c0-.477-.009-.958-.033-1.444h0C470.272,435.767,470.287,436.248,470.282,436.725Z" transform="translate(-176.945 -163.287)" fill="#b2857d" fill-rule="evenodd"/>
        <path id="Path_480" data-name="Path 480" d="M469.922,430.588c-.122-2.713-.527-5.544-.542-7.818h0c.024,2.312.419,5.124.542,7.818Z" transform="translate(-176.618 -158.593)" fill="#801b24" fill-rule="evenodd"/>
        <path id="Path_481" data-name="Path 481" d="M484.357,439.29a19.546,19.546,0,0,1-4.7-.51c-5.454-1.4-8.209-5.228-10.276-10.182a13.946,13.946,0,0,0,.575-4.36c0-.481-.009-.963-.033-1.448-.118-2.694-.518-5.506-.542-7.818l2.651-.741c.334,5.318,4.884,8.266,9.843,8.266a12.553,12.553,0,0,0,10.856-6.19l8.43-14.325,5.378,4.5c-.306.925-.608,1.878-.9,2.836-1.926,6.261-3.575,13.14-3.579,19.185a27.558,27.558,0,0,0,.235,3.742C497.525,437.393,490.061,439.29,484.357,439.29Z" transform="translate(-176.618 -150.795)" fill="#ce2834" fill-rule="evenodd"/>
        <path id="Path_482" data-name="Path 482" d="M484.36,455.276a19.546,19.546,0,0,1-4.7-.51c-5.444-1.4-8.2-5.218-10.272-10.163v0c2.072,4.949,4.827,8.767,10.272,10.168a19.546,19.546,0,0,0,4.7.51c5.7,0,13.168-1.9,17.934-7.044h0C497.528,453.38,490.063,455.276,484.36,455.276Z" transform="translate(-176.621 -166.782)" fill="#671016" fill-rule="evenodd"/>
        <path id="Path_483" data-name="Path 483" d="M484.431,432.056a7.765,7.765,0,0,1-4.366,3.369l-3.028.661c-.3.892-1.648,1.066-3.033,1.213-1.008-.146-1.469-.628-1.375-1.434-.805-.566-1.281-1.194-.937-1.982a1.558,1.558,0,0,1-.659-2.1,1.861,1.861,0,0,1-.443-2.321l-7.436.882c-1.6.193-2.148-1.321,0-1.821l13.827-2.534a12.2,12.2,0,0,1,5.892,0l4.743,1.213-.278,5.737Z" transform="translate(-173.744 -159.665)" fill="#ffae80" fill-rule="evenodd"/>
        <path id="Path_484" data-name="Path 484" d="M519.86,380.882c7.856,9.625,16.1,36.661,10.437,40.667-6.509,5.648-20.482-.585-33.452-5.888.688-3.067.768-5.355-1.224-6.988l24,2.718-9.532-15.146C506.362,383.58,512.692,376.206,519.86,380.882Z" transform="translate(-186.491 -142.349)" fill="#ff4555" fill-rule="evenodd"/>
        <path id="Path_485" data-name="Path 485" d="M497.255,344.505c.942,3.251,3.485,8.29,4.107,11.395.711,3.831-6.339,9.79-11.058,9.441-3.344-.656-4.192-4.95-4.681-8.908Z" transform="translate(-182.729 -129.234)" fill="#ffae80" fill-rule="evenodd"/>
        <path id="Path_486" data-name="Path 486" d="M496.486,350.657c-.278-.17-.551-.335-.829-.491l2.948-1.689v0Z" transform="translate(-186.505 -130.724)" fill="#9e262c" fill-rule="evenodd"/>
        <path id="Path_487" data-name="Path 487" d="M484.972,370.62a6.847,6.847,0,0,1-1.243-.113c-7.163-1.227-5.661-13.074-5.661-13.074l10.922-6.252c.278.156.551.321.829.491l-7.088,7.266c.49,3.954,1.338,8.252,4.681,8.908a3.738,3.738,0,0,0,.4.019,7.548,7.548,0,0,0,2.152-.344A5.6,5.6,0,0,1,484.972,370.62Z" transform="translate(-179.837 -131.738)" fill="#ff3a40" fill-rule="evenodd"/>
        <path id="Path_488" data-name="Path 488" d="M490.7,366.853a3.72,3.72,0,0,1-.4-.019c-3.344-.656-4.192-4.949-4.681-8.908l7.088-7.266,2.119-2.175c.019.16,1.446,12.192-1.973,18.024A7.548,7.548,0,0,1,490.7,366.853Z" transform="translate(-182.729 -130.727)" fill="#ff9260" fill-rule="evenodd"/>
        <path id="Path_489" data-name="Path 489" d="M472.652,325.7c-9.448,1.444-20.049,13.013-4.192,19.458C468.041,339.934,467.128,335.976,472.652,325.7Z" transform="translate(-173.211 -122.181)" fill="#1d1d1b" fill-rule="evenodd"/>
        <path id="Path_490" data-name="Path 490" d="M481.131,314.818c-11.011,1.529-14.411,8-13.3,16.778.122,7.365,6.235,17.113,10.5,16.929,6.094.33,9.085-6.785,14.284-14.4C496.635,321.6,491.379,313.4,481.131,314.818Z" transform="translate(-175.958 -118.038)" fill="#ffae80" fill-rule="evenodd"/>
        <path id="Path_491" data-name="Path 491" d="M467.4,331.568c2.284,2.453,5.958,3.85,10.531,4.9,3.852,1.6,7.6,1.439,9.09,3.6l4.474-1.854c4.493-5.181,4.936-20-2.769-23.129C476.358,310.058,461.655,322.5,467.4,331.568Z" transform="translate(-175.391 -117.764)" fill="#1d1d1b" fill-rule="evenodd"/>
        <path id="Path_492" data-name="Path 492" d="M499.8,350.031c.683-2.7,2.557-4.473,4.154-2.921.749.727.7,2.057,0,3.746a3.019,3.019,0,0,1-2.4,2.09C500.042,353.173,499.279,352.107,499.8,350.031Z" transform="translate(-188.003 -129.994)" fill="#ffae80" fill-rule="evenodd"/>
        <path id="Path_493" data-name="Path 493" d="M429.793,405.146c6.989,6.568,11.685,16.457,15.193,30.876l-24.2.783c.353-11.211-6.984-21.68-16.239-31.66Z" transform="translate(-152.224 -151.982)" fill="#d6eeeb" fill-rule="evenodd"/>
        <path id="Path_494" data-name="Path 494" d="M427.775,432.94c2.5.264,2.5,2.213.641,2.4,2.845-.047,3.3,2.458.918,2.609,1.634.085,1.94,1.958-.424,2.18,1.771.552,1.907,1.67-.089,1.944l-2.694.146c-1.088.1-2.562-.547-2.256-1.883-.914,0-1.62-2.232-1.168-2.4-.824-.349-1.418-1.967-.81-2.5-1.144-.613-1.309-2.312.353-4.143l.786-.812,1.177,2.284Z" transform="translate(-158.42 -161.488)" fill="#ffae80" fill-rule="evenodd"/>
        <path id="Path_495" data-name="Path 495" d="M195.544,231.907v7.158l-10.512-.321,1.474-8.4Z" transform="translate(-69.625 -86.409)" fill="#ffae80" fill-rule="evenodd"/>
        <path id="Path_496" data-name="Path 496" d="M186.909,223.5l-4.149-2.34L177.2,224.2c-1.427.887-1.743,3,.3,2.34l3.683-.764a5.683,5.683,0,0,0,1.757,5.138l1.884,1.722,6.6-.137.739-4.044Z" transform="translate(-66.246 -82.962)" fill="#ffae80" fill-rule="evenodd"/>
        <path id="Path_497" data-name="Path 497" d="M218.881,234.17l-19.05-1.326c-3.429,1.312-4.135,5.577-2.717,8.545l17.374,7.342Z" transform="translate(-73.912 -87.347)" fill="#c8e6e2" fill-rule="evenodd"/>
        <path id="Path_498" data-name="Path 498" d="M200.836,504.106c0-3.732,2.873-5.162,7.13-5.624,3.73,0,8.732,1.67,15.316,3.185l7.5,4.11a16.81,16.81,0,0,1,.537,10.446c-2.105,1.821-4.776,2.949-7.253,2.284l-8.421-3.577-.608-1.213C208.32,512.985,200.832,509.928,200.836,504.106Z" transform="translate(-75.572 -186.995)" fill="#0b1017" fill-rule="evenodd"/>
        <path id="Path_499" data-name="Path 499" d="M244.714,481.212c0-3.048,2.722-3.576,6.791-3.888,7.342,0,7.653,3.68,14.411,3.52l6.636,4.044a19.943,19.943,0,0,1,.292,11.192,9.5,9.5,0,0,1-7.385,1.8l-6.829-4.02-.579-1.236C251.647,491.663,244.709,486.9,244.714,481.212Z" transform="translate(-92.082 -179.058)" fill="#0b1017" fill-rule="evenodd"/>
        <path id="Path_500" data-name="Path 500" d="M268.513,317.164l-24.462,10.253a84.438,84.438,0,0,0,.485,11.465c1.545,11.3,6.09,28.366,6.09,28.366,3.283,14.509,4.6,32.518,5.364,51.509.122,6.832,10.276,12.829,16.776,6.365,1.865-23.171,1.86-45.678-3.579-60.587,2.6-11.767.146-24.9-.589-38.463C269.234,325.808,267.83,317.456,268.513,317.164Z" transform="translate(-91.829 -118.978)" fill="#201c3d" fill-rule="evenodd"/>
        <path id="Path_501" data-name="Path 501" d="M237.955,333.988c-.019,13.546.146,24.483-3.113,36.236,4.615,14.886,3.367,37.048.212,60.191-3.994,4.369-9.683,4.421-13.234,1.812a8.017,8.017,0,0,1-3.193-7.856l-2.5-51.439s-3.6-17.042-4.512-28.324,3.061-37.067,3.061-37.067a45.821,45.821,0,0,0,6.556,1.288c14.562,1.84,27.947-3.364,32.105-11.706.212.613.419,1.227.617,1.845a59.473,59.473,0,0,1,2.708,15.651C257.142,326.524,245.49,330.916,237.955,333.988Z" transform="translate(-79.577 -111.46)" fill="#2d2856" fill-rule="evenodd"/>
        <path id="Path_502" data-name="Path 502" d="M211.5,229.919a146.853,146.853,0,0,1,1.309,21.709c.038,2.623.061,5.181.146,7.7a67.893,67.893,0,0,0,1.728,13.716,57.08,57.08,0,0,0,6.2,2.345c12.579,3.973,24.01,2.029,33.085-10.928,2.086-5.369,8.2-23.568,9.768-42.446-.042-8.644-2.845-14.815-10.192-16.868-13.074,3.147-26.416,11.286-39.942,22.936Q212.536,229,211.5,229.919Z" transform="translate(-79.583 -76.957)" fill="#fff" fill-rule="evenodd"/>
        <path id="Path_503" data-name="Path 503" d="M233.939,203.456l1.239,11.805c7.62-.052,19.545-5.351,18.047-9.408l-4.008-7.7Z" transform="translate(-88.027 -74.332)" fill="#ffae80" fill-rule="evenodd"/>
        <path id="Path_504" data-name="Path 504" d="M226.065,192.394c3.028,3.449,7.587,2.987,12.236,1.755,6.787-3.142,11.67-7.795,11.006-16.646.542-6.426-2.369-13.159-13.3-12.805-6.956.217-12.89,2.755-13.3,10.2C222.7,174.9,222.33,188.964,226.065,192.394Z" transform="translate(-83.794 -61.778)" fill="#ffae80" fill-rule="evenodd"/>
        <path id="Path_505" data-name="Path 505" d="M233.569,213.749l-2.779,6.313c13.036-1.477,24.726-6.374,21.81-12.409l-2.378-2.77C252.04,209.229,239.2,214.419,233.569,213.749Z" transform="translate(-86.842 -76.858)" fill="#c8e6e2" fill-rule="evenodd"/>
        <path id="Path_506" data-name="Path 506" d="M222.731,171.782A10.522,10.522,0,0,0,227.168,178l-.212,5.884,3.32,2.708,1.564,4.374c5.195,3.76,12.928.9,15.278-2.5,1.389-1.76,2.873-8.837,2.491-15.622-.824-5.676-4.9-11.187-13.611-11.555C227.37,160.921,222,165.951,222.731,171.782Z" transform="translate(-83.785 -60.497)" fill="#0b1017" fill-rule="evenodd"/>
        <path id="Path_507" data-name="Path 507" d="M230.89,196.728c-.838-.929.443-3.1,1.38-3.4,1.3-.429,2.016,1.467,2.152,2.5a4.773,4.773,0,0,1-.763,3.609c-.89,1.312-2.279.024-2.717-1.038C230.627,197.639,231.418,197.323,230.89,196.728Z" transform="translate(-86.778 -72.501)" fill="#ffae80" fill-rule="evenodd"/>
        <path id="Path_508" data-name="Path 508" d="M219.694,434.048l-.495-10.267Z" transform="translate(-82.481 -158.973)" fill="#5d1f97" fill-rule="evenodd"/>
        <path id="Path_509" data-name="Path 509" d="M220.553,451.72l-.56-11.508.56,11.508Z" transform="translate(-82.78 -165.137)" fill="#51188c" fill-rule="evenodd"/>
        <path id="Path_510" data-name="Path 510" d="M222.149,484.565h0L221.1,462.96h0Zm-1.173-24.186,0,0-.08-1.746h0Z" transform="translate(-83.118 -172.045)" fill="#471382" fill-rule="evenodd"/>
        <path id="Path_511" data-name="Path 511" d="M221.151,464.01h0l-.127-2.581h0Z" transform="translate(-83.166 -173.096)" fill="#4b1787" fill-rule="evenodd"/>
        <path id="Path_512" data-name="Path 512" d="M215.74,399.432c-1-5-3.118-16.2-3.895-24.686C212.627,383.225,214.742,394.426,215.74,399.432Z" transform="translate(-79.714 -140.579)" fill="#5d1f97" fill-rule="evenodd"/>
        <path id="Path_513" data-name="Path 513" d="M213.257,330.091c.923-8.729,2.086-16.288,2.086-16.288h0C215.311,314.04,214.166,321.5,213.257,330.091Z" transform="translate(-80.245 -117.717)" fill="#a21b42" fill-rule="evenodd"/>
        <path id="Path_514" data-name="Path 514" d="M222.839,502.886a8.8,8.8,0,0,1,.033-2.354l-.019-.4h0l.019.392A9.046,9.046,0,0,0,222.839,502.886Z" transform="translate(-83.827 -187.615)" fill="#070612" fill-rule="evenodd"/>
        <path id="Path_515" data-name="Path 515" d="M221.853,438.494a7.936,7.936,0,0,1-3.264-5.506,9.046,9.046,0,0,1,.038-2.359l-.019-.392-1.046-21.605-.127-2.581-.085-1.75-.56-11.508-.495-10.267-.165-3.345s-.2-.972-.527-2.609c-1-5.006-3.113-16.207-3.895-24.686-.033-.344-.066-.689-.089-1.029-.419-5.162.188-13.381.97-20.765.909-8.587,2.053-16.052,2.091-16.288.363.165.725.321,1.093.472l1.338,22.473,2.214-3.18c-4.182,13.409-1.964,30.711,2.529,47.282C218.623,396.558,219.612,416.851,221.853,438.494Z" transform="translate(-79.578 -117.717)" fill="#1d1043" fill-rule="evenodd"/>
        <path id="Path_516" data-name="Path 516" d="M221.913,333.852c.311-1.005.659-2,1.05-2.963-.066-5.5-.659-10.46.5-14.457q-2.529-.786-5.105-1.873h0q2.571,1.09,5.105,1.873a37.914,37.914,0,0,0,9.306,1.8Z" transform="translate(-82.166 -118)" fill="#26254f" fill-rule="evenodd"/>
        <path id="Path_517" data-name="Path 517" d="M232.461,298.544a37.909,37.909,0,0,1-9.306-1.8q-2.529-.786-5.105-1.873l-.518-8.62,12.033-24.172Z" transform="translate(-81.853 -98.315)" fill="#d6eeeb" fill-rule="evenodd"/>
        <path id="Path_518" data-name="Path 518" d="M219.7,337.032l-1.338-22.473q2.571,1.09,5.105,1.873c-1.163,4-.57,8.96-.5,14.457-.391.967-.739,1.958-1.05,2.963Z" transform="translate(-82.166 -118)" fill="#180f3e" fill-rule="evenodd"/>
        <path id="Path_519" data-name="Path 519" d="M195.2,354.449l6.622-2.232.438-.146.325.788c.151.656,2.2,11.145,2.162,11.414-.316,2.921-1.874,5.686-3.447,8.578l-5.383,3.723s-2.962,1.137-3.151-.5l1.724-2.737-1.06-3.935-1-2.147L191.4,369.9c-1.747,3.935-4.507,3.525-4.093,1.812l1.653-3.775,1.079-6.228Z" transform="translate(-70.466 -132.072)" fill="#ffae80" fill-rule="evenodd"/>
        <path id="Path_520" data-name="Path 520" d="M211.571,236.966c-5.75,3.572-8.4,5.954-8.652,17.132l1.413,30.282-6.8,28.612c.551,3.119,7.427,4.865,10.017,2.939,4.606-7.568,6.928-14.037,11.9-26.687l2.736-33.2C222.9,243.85,223.133,235.386,211.571,236.966Z" transform="translate(-74.33 -88.822)" fill="#fff" fill-rule="evenodd"/>
        <path id="Path_521" data-name="Path 521" d="M290.954,528.768v0Zm30.989-60.3-87.387-50.542c-5.086-2.944-9.692-3.218-13.022-1.279L172.319,445.3l.32-.156c-3.462,1.84-5.637,5.954-5.652,11.914l-.273,93.828,4.493,2.6,49.206-28.64.165-52.713,52.131,30.159c7.611,4.407,13.78,15.113,13.757,23.879L286.207,620l4.493,2.6,49.216-28.649.264-93.833C340.212,488.473,332.05,474.309,321.943,468.463Z" transform="translate(-62.732 -155.83)" fill="#ff4555" fill-rule="evenodd"/>
        <path id="Path_522" data-name="Path 522" d="M223.289,492.808l-.165,52.713-49.206,28.64.254-93.828c0-.42.019-.84.047-1.236l.042-.514a12.028,12.028,0,0,1,.49-2.4l.236-.656.325-.793.391-.717.306-.472.509-.675.819-.769.862-.609.532-.3c2.468-1.147,5.727-.84,9.292,1.236Z" transform="translate(-65.443 -176.509)" fill="#9e2e3b" fill-rule="evenodd"/>
        <path id="Path_523" data-name="Path 523" d="M290.954,545.957l-.254,93.851-4.493-2.614.259-93.828c.024-8.771-6.146-19.472-13.762-23.879l-52.126-30.159-35.266-20.383c-3.565-2.076-6.824-2.383-9.292-1.236l-.532.3-.862.609-.768.722-.56.722-.306.472-.391.717-.325.793-.235.656a12.31,12.31,0,0,0-.49,2.4l-.042.514c-.028.4-.047.816-.047,1.236l-.254,93.828-4.493-2.6.278-93.828c.019-11.121,7.521-15.905,17.016-11.211.443.231.885.462,1.333.717l35.237,20.407,52.15,30.159C282.83,520.158,290.982,534.341,290.954,545.957Z" transform="translate(-62.732 -173.03)" fill="#dce1cb" fill-rule="evenodd"/>
        <path id="Path_524" data-name="Path 524" d="M329.027,456.672l-13-52.59a4.135,4.135,0,0,0-1.757-2.472l-.589-.231-.721.1-30.65,17.854c-.5.264-.725,1-.49,1.944l6.834,27.63-16.55,9.635a1.294,1.294,0,0,0-.542,1.194,4.07,4.07,0,0,0,1.846,3.2l23.162,13.4a1.2,1.2,0,0,0,1.512-.014l-.184.146L328.584,458.6l.184-.142A1.889,1.889,0,0,0,329.027,456.672Z" transform="translate(-102.185 -150.569)" fill="#373737" fill-rule="evenodd"/>
        <path id="Path_525" data-name="Path 525" d="M304.432,464.321a1.312,1.312,0,0,0-1.319-.127l-30.688,17.863a1.324,1.324,0,0,1,1.323.132L294.335,494.1l30.688-17.863Z" transform="translate(-102.509 -174.086)" fill="#60c1d2" fill-rule="evenodd"/>
        <path id="Path_526" data-name="Path 526" d="M335.488,456.672l-13-52.59a4.135,4.135,0,0,0-1.757-2.472l-.589-.231-.721.1L288.735,419.35l.721-.1.6.231a4.093,4.093,0,0,1,1.747,2.468l13,52.595a1.892,1.892,0,0,1-.254,1.779l-.184.146L335.045,458.6l.184-.142A1.889,1.889,0,0,0,335.488,456.672Z" transform="translate(-108.646 -150.569)" fill="#60c1d2" fill-rule="evenodd"/>
        <path id="Path_527" data-name="Path 527" d="M300.313,424.242l-.184-.651,22.865-13.31,12.127,49.065-22.842,13.3Z" transform="translate(-112.933 -153.908)" fill="#fff" fill-rule="evenodd"/>
        <path id="Path_528" data-name="Path 528" d="M283.593,430.19a4.093,4.093,0,0,1,1.747,2.468l13,52.595a1.892,1.892,0,0,1-.254,1.779,1.2,1.2,0,0,1-1.512.014l-23.162-13.4a4.07,4.07,0,0,1-1.846-3.2c0-1.18.834-1.651,1.86-1.062l20.586,11.909-12.188-49.306c-.316-1.307.207-2.213,1.173-2.029Z" transform="translate(-102.185 -161.281)" fill="#9e2e3b" fill-rule="evenodd"/>
        <path id="Path_529" data-name="Path 529" d="M382.229,615.63c0,8.262,6.683,11.093,14.93,6.327s14.934-15.339,14.934-23.6-6.688-11.1-14.934-6.327S382.229,607.369,382.229,615.63Z" transform="translate(-143.825 -221.22)" fill="#fff" fill-rule="evenodd"/>
        <path id="Path_530" data-name="Path 530" d="M382.229,665.7l29.864-17.274V636.85l-29.864,17.278Z" transform="translate(-143.825 -238.901)" fill="#9e2e3b" fill-rule="evenodd"/>
      </g>
    </g>
  </g>
</svg>
