<svg xmlns="http://www.w3.org/2000/svg" xmlns:xlink="http://www.w3.org/1999/xlink" width="520" height="524" viewBox="0 0 520 524">
  <defs>
    <clipPath id="clip-path">
      <rect id="Rectangle_3" data-name="Rectangle 3" width="520" height="524" fill="#fff" stroke="#707070" stroke-width="1"/>
    </clipPath>
  </defs>
  <g id="Mask_Group_1" data-name="Mask Group 1" clip-path="url(#clip-path)">
    <g id="Layer_x0020_1" transform="translate(30.101)">
      <g id="_2705621431856" transform="translate(0)">
        <path id="Path_1" data-name="Path 1" d="M1055.61,1221.632c.5.342.991.694,1.492,1.034l1.426-.822a17.552,17.552,0,0,0,.01-1.9Z" transform="translate(-717.795 -829.537)" fill="#8749b9" fill-rule="evenodd"/>
        <path id="Path_2" data-name="Path 2" d="M1048.868,1226.257c-.5-.339-.992-.692-1.492-1.034l-3.875,2.237c.5.343.992.692,1.492,1.035Z" transform="translate(-709.561 -833.129)" fill="#8649b9" fill-rule="evenodd"/>
        <path id="Path_3" data-name="Path 3" d="M1036.755,1233.249c-.5-.343-.993-.692-1.492-1.035l-3.877,2.238,1.493,1.036Z" transform="translate(-701.323 -837.882)" fill="#8649b9" fill-rule="evenodd"/>
        <path id="Path_4" data-name="Path 4" d="M801.676,1089.437c.494-2.217.989-4.291,1.478-6.266l4.686,2.709Z" transform="translate(-545.125 -736.536)" fill="#7f3eb4" fill-rule="evenodd"/>
        <path id="Path_5" data-name="Path 5" d="M927.188,1043.767c.432.381.859.768,1.293,1.148l1.7-.981-1.635-.953Z" transform="translate(-630.471 -709.207)" fill="#874bb9" fill-rule="evenodd"/>
        <path id="Path_6" data-name="Path 6" d="M924.16,1046.586c-.434-.38-.861-.767-1.293-1.148l-2.034,1.175,1.637.949Z" transform="translate(-626.149 -710.878)" fill="#874bb9" fill-rule="evenodd"/>
        <path id="Path_7" data-name="Path 7" d="M428.858,1338.672l.08.082.03-.017Z" transform="translate(-291.616 -910.272)" fill="#8141b4" fill-rule="evenodd"/>
        <path id="Path_8" data-name="Path 8" d="M63.7,231.917l165.768-96.473V360.868L63.7,457.339Z" transform="translate(-43.312 -92.1)" fill="#c0c7a9" fill-rule="evenodd"/>
        <path id="Path_9" data-name="Path 9" d="M277.726,395.273c0,24.868-20.16,56.67-45.031,71.028s-45.031,5.836-45.031-19.032,20.161-56.672,45.031-71.031S277.726,370.4,277.726,395.273Z" transform="translate(-127.608 -251.092)" fill="#fff" fill-rule="evenodd"/>
        <path id="Path_10" data-name="Path 10" d="M374.273,1121.356s.859,4.658.428,6.664-5.73,3.295-5.73,3.295-4.5,5.471-10.808,4.986c-3.726-.286-4.985-1.272-5.566-2.365s-.039-2.489.694-3.508,5.507-2.765,7.439-5.844c.941-1.5,2.509-4.658,2.509-4.658l.187-1.691a4.9,4.9,0,0,1,4.663-4.358,5.316,5.316,0,0,1,5.606,5.673l-.073,1.024Z" transform="translate(-239.592 -757.41)" fill="#0b1017" fill-rule="evenodd"/>
        <path id="Path_11" data-name="Path 11" d="M435.54,1160.837c.777,1.475.774,3.964.847,7.587a7.961,7.961,0,0,1-4.285,4.233s-1.4,6.48-10.069,6.693c-8.127.2-8.066-3.094-8.025-3.077a4.871,4.871,0,0,1,1.864-3.439,73.359,73.359,0,0,0,6.559-6.049,17.653,17.653,0,0,0,1.931-3.583l.361-5.876h10.96Z" transform="translate(-281.514 -786.96)" fill="#0b1017" fill-rule="evenodd"/>
        <path id="Path_12" data-name="Path 12" d="M381.318,862.623l15.793,18.892c-.785,5.955-2.037,17.816-3.431,23.44,2.827,21.644.931,45.345-.822,46.7-2.44,2.013-10.837,3.869-14.218-1.2,0,0,2.453-23.883-.672-48.236Z" transform="translate(-257.011 -586.568)" fill="#201c3d" fill-rule="evenodd"/>
        <path id="Path_13" data-name="Path 13" d="M388.418,847.566c.09,8.724,2.043,13.118,10.64,17.87l2.776,19.019,1.943,13.3a500.059,500.059,0,0,1,3.291,50.3c3.708,5.1,14.056,2.917,14.294-.348,1.437-19.689,1.811-30.99-1.577-48.321,1.791-10.385,2.918-22.561,1.974-32.084,1.818-5.554,1.831-11.57.338-18.54-.241-.046-.585-.147-1.065-.258-.223-.047-.492-.126-.8-.194-1.211-.3-2.966-.736-5.008-1.242-.74-.184-1.51-.381-2.311-.578-.832-.207-1.7-.418-2.587-.634-.514-.126-1.035-.257-1.562-.384-2.573-.638-5.243-1.307-7.764-1.916-2.46-.627-4.758-1.181-6.674-1.65-1.571-.4-2.882-.72-3.8-.953-.7-.184-1.2-.3-1.389-.349l-.282-.082-.233-.042-.028.485-.02.332c-.029.752-.064,1.472-.091,2.178C388.425,844.939,388.4,846.3,388.418,847.566Z" transform="translate(-264.113 -571.51)" fill="#2d2856" fill-rule="evenodd"/>
        <path id="Path_14" data-name="Path 14" d="M855.368,294.392,581.692,135.445V360.868l273.677,158.95Z" transform="translate(-395.54 -92.1)" fill="#dce1cb" fill-rule="evenodd"/>
        <path id="Path_15" data-name="Path 15" d="M1123.6,546.21l73.037,42.419V718.688L1123.6,676.269Z" transform="translate(-764.025 -371.412)" fill="#fff" fill-rule="evenodd"/>
        <path id="Path_16" data-name="Path 16" d="M1163.075,831.211V785.964l48.682,28.278v45.243Z" transform="translate(-790.87 -534.441)" fill="#c0c7a9" fill-rule="evenodd"/>
        <path id="Path_17" data-name="Path 17" d="M1239.14,651.965l24.327,14.128v43.32l-24.327-14.129Z" transform="translate(-842.593 -443.324)" fill="#ff4555" fill-rule="evenodd"/>
        <path id="Path_18" data-name="Path 18" d="M1146.492,598.785l24.33,14.128v43.32l-24.33-14.126Z" transform="translate(-779.593 -407.163)" fill="#9e2e3b" fill-rule="evenodd"/>
        <path id="Path_19" data-name="Path 19" d="M894.419,426.288l50.23,29.17V544.9l-50.23-29.17Z" transform="translate(-608.189 -289.868)" fill="#fff" fill-rule="evenodd"/>
        <path id="Path_20" data-name="Path 20" d="M954.38,595.408v36.466l-32.938-19.134V576.277Z" transform="translate(-626.564 -391.858)" fill="#ff4555" fill-rule="evenodd"/>
        <path id="Path_21" data-name="Path 21" d="M921.442,498.187V473.209L954.38,492.34v24.977Z" transform="translate(-626.564 -321.773)" fill="#60c1d2" fill-rule="evenodd"/>
        <path id="Path_22" data-name="Path 22" d="M671.814,301.456l50.226,29.17v89.439L671.814,390.9Z" transform="translate(-456.822 -204.985)" fill="#fff" fill-rule="evenodd"/>
        <path id="Path_23" data-name="Path 23" d="M731.758,519.6v20.777l-32.939-19.131V500.469Z" transform="translate(-475.185 -340.31)" fill="#dce1cb" fill-rule="evenodd"/>
        <path id="Path_24" data-name="Path 24" d="M758.887,383.26l13.716,7.967V434.07L758.887,426.1Z" transform="translate(-516.03 -260.61)" fill="#924fc2" fill-rule="evenodd"/>
        <path id="Path_25" data-name="Path 25" d="M712.54,356.347v42.837l-13.72-7.964V348.377Z" transform="translate(-475.185 -236.89)" fill="#ff4555" fill-rule="evenodd"/>
        <path id="Path_26" data-name="Path 26" d="M704.856,999.255a1.263,1.263,0,0,1-1.255-1.14l-3.255-33.431-21.789-12.579-3.107,28.32a1.264,1.264,0,0,1-2.513-.275l3.53-32.169,26.268,15.166,3.378,34.721a1.266,1.266,0,0,1-1.133,1.382Z" transform="translate(-457.58 -644.609)" fill="#706f6f" fill-rule="evenodd"/>
        <path id="Path_27" data-name="Path 27" d="M601.927,801.088a1.119,1.119,0,0,1,1.138.1,3.553,3.553,0,0,1,1.618,2.549l4.1,40.3a3.216,3.216,0,0,0,1.429,2.273l22.626,13.124a6.9,6.9,0,0,1,3.1,5.38l0,.568-30.4,17.547-28.389-18.976-5.587-45.349,30.318-17.492Z" transform="translate(-388.655 -544.648)" fill="#ff4555" fill-rule="evenodd"/>
        <path id="Path_28" data-name="Path 28" d="M609.862,1054.1a1.269,1.269,0,0,1-1.256-1.143l-3.253-33.43-21.789-12.579-3.108,28.32a1.264,1.264,0,1,1-2.513-.276l3.531-32.169,26.266,15.163,3.382,34.724a1.268,1.268,0,0,1-1.135,1.384Z" transform="translate(-392.986 -681.901)" fill="#2d2856" fill-rule="evenodd"/>
        <path id="Path_29" data-name="Path 29" d="M604.495,920.213l-30.369-17.532-4.092-45.53c-.1-1.15.637-1.674,1.587-1.126a3.57,3.57,0,0,1,1.616,2.549l4.105,40.3a3.232,3.232,0,0,0,1.428,2.284l22.627,13.12a6.863,6.863,0,0,1,3.1,5.375Z" transform="translate(-387.606 -581.933)" fill="#9e2e3b" fill-rule="evenodd"/>
        <path id="Path_30" data-name="Path 30" d="M770.649,1107.435c-1.485,1.485-1.7,4.379-1.21,7.223,1.108,1.651,1.722,2.453,3.61,3.007a28.573,28.573,0,0,1,4.479,2.076c4.323,4.486,8.317,5.029,9.788,4.483,4.976-1.849-.357-6.111-1.8-7.159-.42-.307-5.961-5.578-5.961-5.578l-1.309-2.079.154-4.535-7.206-2.131Z" transform="translate(-523.044 -749.844)" fill="#0b1017" fill-rule="evenodd"/>
        <path id="Path_31" data-name="Path 31" d="M706.286,951.408c-.953,11.271-4.48,19.751-7.271,34.893a7.286,7.286,0,0,1-6.06,1.327,3.527,3.527,0,0,1-2.362-2.715c-.441-12.914-.33-22.908,3.235-31.253-10.84-4.769-25.175-6.276-34.018-13.679-3.439-2.969-6.036-5.7-6.843-8.394a5.564,5.564,0,0,1,.21-4.016,8.2,8.2,0,0,1,1.379-2.118l2.82-2.017,12.17-1.738c1.549.821,3.274,1.764,5.1,2.808C687.791,932.006,706.352,944.444,706.286,951.408Z" transform="translate(-443.817 -626.737)" fill="#2d2856" fill-rule="evenodd"/>
        <path id="Path_32" data-name="Path 32" d="M725.283,990.8h0a3.528,3.528,0,0,1-2.362-2.715c-.107-3.128-.181-6.084-.182-8.888,0-8.768.715-16.04,3.417-22.365h0c-1.354-.595-2.76-1.137-4.2-1.649-.863-.306-1.739-.6-2.626-.887-.477-.151-.955-.305-1.438-.453q-.694-.217-1.392-.427c-2.582-3.361-5.819-7.123-9.221-10.982-1.45-1.646-2.931-3.321-4.408-4.98-.881-1-1.764-2-2.638-2.989a9.66,9.66,0,0,0,3.859-6.935l.539-1.17c.756.417,1.539.858,2.341,1.317.926,11.454,12.073,19.528,24.429,27.19-4.648,10.68-5.972,22.739-5.249,35.643C726.151,990.508,725.816,990.627,725.283,990.8Z" transform="translate(-476.145 -629.906)" fill="#1d1043" fill-rule="evenodd"/>
        <path id="Path_33" data-name="Path 33" d="M709.312,1142.111c-1.482,1.485-1.52,4.2-1.207,7.223a7.947,7.947,0,0,0,4.593,3.172s6.889,6.563,13.449,5.577,0-5.686,0-5.686l-7.564-6.562-1.458-2.019-.063-4.266-7.209-2.132Z" transform="translate(-481.392 -773.423)" fill="#0b1017" fill-rule="evenodd"/>
        <path id="Path_34" data-name="Path 34" d="M668.689,969.8c-.95,11.271-7.382,22.25-10.169,37.4-2.54,1.934-4.776,2.272-6.568.233a8.789,8.789,0,0,1-1.371-2.2c-.446-12.907.44-24.294,4-32.638-10.839-4.773-19.408-9.495-28.253-16.895a13.736,13.736,0,0,1-1.436-18.973l1.208-.187.228-.034,19.893,4.123c1.083,1.232,2.186,2.479,3.287,3.727,1.477,1.659,2.958,3.334,4.408,4.98C661.2,957.584,667.723,965.384,668.689,969.8Z" transform="translate(-422.786 -636.8)" fill="#2d2856" fill-rule="evenodd"/>
        <path id="Path_35" data-name="Path 35" d="M653.219,1008.366l-1.267-.472a8.793,8.793,0,0,1-1.372-2.2c-.07-2.017-.107-4-.106-5.931,0-10.461,1.1-19.667,4.109-26.707h0c-2.039-.9-4-1.794-5.892-2.706a102.754,102.754,0,0,1-22.361-14.188,13.267,13.267,0,0,1-4.571-10.148,13.556,13.556,0,0,1,3.135-8.825h0c2.434,5.258,7.639,7.61,12.749,7.61a15.956,15.956,0,0,0,7.03-1.6l4.837,1.616c1.477,1.659,2.958,3.333,4.407,4.98a95.125,95.125,0,0,1-11.961.44c-2.241,0-4.827-.017-7.812-.053,4.147,8.753,13.87,16.191,25.752,21.329C654.418,980.871,653.068,993.939,653.219,1008.366Z" transform="translate(-422.786 -637.268)" fill="#1d1043" fill-rule="evenodd"/>
        <path id="Path_36" data-name="Path 36" d="M861.941,1180.3c10.559,6.1,10.559,15.978,0,22.073s-27.673,6.1-38.231,0-10.555-15.978,0-22.073S851.386,1174.205,861.941,1180.3Z" transform="translate(-554.725 -799.473)" fill="#2d2856" fill-rule="evenodd"/>
        <path id="Path_37" data-name="Path 37" d="M861.941,1171.793c10.559,6.1,10.559,15.978,0,22.074s-27.673,6.1-38.231,0-10.555-15.979,0-22.074S851.386,1165.7,861.941,1171.793Z" transform="translate(-554.725 -793.689)" fill="#c0c7a9" fill-rule="evenodd"/>
        <path id="Path_38" data-name="Path 38" d="M888.354,1202.245c3.283,1.9,3.283,4.973,0,6.868a13.153,13.153,0,0,1-11.893,0c-3.283-1.9-3.283-4.973,0-6.868A13.15,13.15,0,0,1,888.354,1202.245Z" transform="translate(-594.303 -816.537)" fill="#2d2856" fill-rule="evenodd"/>
        <path id="Path_39" data-name="Path 39" d="M888.354,1195.574c3.283,1.9,3.283,4.973,0,6.868a13.154,13.154,0,0,1-11.893,0c-3.283-1.9-3.283-4.966,0-6.868A13.154,13.154,0,0,1,888.354,1195.574Z" transform="translate(-594.303 -812.002)" fill="#c0c7a9" fill-rule="evenodd"/>
        <path id="Path_40" data-name="Path 40" d="M891.11,1193.772c2.523,1.458,2.523,3.819,0,5.278a10.115,10.115,0,0,1-9.136,0c-2.523-1.459-2.523-3.82,0-5.278A10.1,10.1,0,0,1,891.11,1193.772Z" transform="translate(-598.439 -811.001)" fill="#2d2856" fill-rule="evenodd"/>
        <path id="Path_41" data-name="Path 41" d="M893,1072.609h-12.92v42.452H893Z" transform="translate(-598.441 -729.354)" fill="#2d2856" fill-rule="evenodd"/>
        <path id="Path_42" data-name="Path 42" d="M823.565,970.695c21.127,12.2,21.127,31.976,0,44.176s-55.386,12.2-76.516,0-21.129-31.979,0-44.176S802.434,958.493,823.565,970.695Z" transform="translate(-497.205 -653.832)" fill="#2d2856" fill-rule="evenodd"/>
        <path id="Path_43" data-name="Path 43" d="M823.565,961c21.127,12.2,21.127,31.975,0,44.175s-55.386,12.2-76.516,0-21.129-31.978,0-44.175S802.434,948.8,823.565,961Z" transform="translate(-497.205 -647.238)" fill="#c0c7a9" fill-rule="evenodd"/>
        <path id="Path_44" data-name="Path 44" d="M743.056,844.016c-1.6-.759-2.716-.088-3.444,1.75l-.673-.39a92.357,92.357,0,0,1-17.315-13.312l-3.063-10.637-3.826-13.258-2.179-4.033,3.819-2.9c5.675-.846,7.526,1.8,8.8,7.972l5.2,18.6C734.728,831.473,738.95,837.083,743.056,844.016Z" transform="translate(-484.525 -544.72)" fill="#fff" fill-rule="evenodd"/>
        <path id="Path_45" data-name="Path 45" d="M760.515,869.647a89.793,89.793,0,0,1-16.228-12.3,5.237,5.237,0,0,0,2.448-4.389h0l.015-.2c.077-4.966-2.608-4.664-2.046-15.985,1.126,7.431,4.211,12.658,4.5,19.337Z" transform="translate(-506.102 -568.992)" fill="#d6eeeb" fill-rule="evenodd"/>
        <path id="Path_46" data-name="Path 46" d="M666.888,775.843c-11.283,3.666-8.876,14.32-5.829,22.662l7.965-7.488Z" transform="translate(-447.782 -527.559)" fill="#0b1017" fill-rule="evenodd"/>
        <path id="Path_47" data-name="Path 47" d="M670.1,830.9l-.015.2c-.275,6.49-9.112,5.886-9.112,5.886l-3.576,7.764c-.906,11.26-20.37,14.1-25.836,2.295,3.937-5.58,3.937-5.58,4.264-9.413-.308-1.021-.577-2.013-.8-2.975a26.741,26.741,0,0,1,2.328-19.761c3.2-4.141,10.367-8.285,14.886-9.967l13.221-.306,2.632,9.594C667.379,826.244,670.175,825.831,670.1,830.9Z" transform="translate(-429.448 -547.127)" fill="#fff" fill-rule="evenodd"/>
        <path id="Path_48" data-name="Path 48" d="M682.645,798.576c-.715,2.463-2.643,6.276-3.113,8.625-.538,2.9,4.8,7.406,8.382,7.142,2.532-.5,3.178-3.75,3.551-6.738Z" transform="translate(-462.044 -543.017)" fill="#ffae80" fill-rule="evenodd"/>
        <path id="Path_49" data-name="Path 49" d="M695.443,804.824l-.349-.354.614.351Z" transform="translate(-472.652 -547.024)" fill="#b9d2bb" fill-rule="evenodd"/>
        <path id="Path_50" data-name="Path 50" d="M701.112,821.2a4.253,4.253,0,0,1-3.788-2.351,5.773,5.773,0,0,0,1.634.259c.1,0,.2,0,.3-.011,2.532-.5,3.178-3.75,3.551-6.738l-6.63-6.789.265,0,9.894,5.652s1.143,8.963-4.29,9.894A5.619,5.619,0,0,1,701.112,821.2Z" transform="translate(-473.392 -547.77)" fill="#d6eeeb" fill-rule="evenodd"/>
        <path id="Path_51" data-name="Path 51" d="M697.7,818.353a5.767,5.767,0,0,1-1.633-.26c-2.609-4.443-1.493-13.636-1.493-13.636l0,0,.348.354,6.63,6.788c-.374,2.989-1.019,6.24-3.551,6.738C697.909,818.349,697.808,818.353,697.7,818.353Z" transform="translate(-472.139 -547.016)" fill="#d6a276" fill-rule="evenodd"/>
        <path id="Path_52" data-name="Path 52" d="M690.814,754.6c8.346,1.155,10.924,6.052,10.09,12.694-.1,5.573-4.732,12.949-7.969,12.811-4.615.252-6.883-5.133-10.826-10.894C679.062,759.736,683.043,753.529,690.814,754.6Z" transform="translate(-463.123 -513.034)" fill="#ffae80" fill-rule="evenodd"/>
        <path id="Path_53" data-name="Path 53" d="M698.648,766.753c-1.735,1.855-4.515,2.913-7.981,3.708-2.927,1.208-5.764,1.09-6.9,2.726l-3.389-1.4c-3.407-3.923-3.743-15.131,2.1-17.5C691.857,750.479,703,759.894,698.648,766.753Z" transform="translate(-460.98 -512.303)" fill="#0b1017" fill-rule="evenodd"/>
        <path id="Path_54" data-name="Path 54" d="M688.232,804.219c-.515-2.046-1.938-3.386-3.151-2.207-.564.545-.527,1.551,0,2.831a2.287,2.287,0,0,0,1.821,1.58C688.05,806.6,688.628,805.788,688.232,804.219Z" transform="translate(-465.565 -545.053)" fill="#ffae80" fill-rule="evenodd"/>
        <path id="Path_55" data-name="Path 55" d="M644.307,900.6c-5.11,0-10.317-2.352-12.749-7.61,3.937-5.58,3.937-5.58,4.264-9.413h0c-.308-1.021-.577-2.013-.8-2.975l7.853-8.41,4.533,10.194c1.517,3.271,3.879,4.614,6.179,4.614a7.169,7.169,0,0,0,6.837-6.463,3.367,3.367,0,0,0,2.882,1.113,7.185,7.185,0,0,0,6.776-4.6,5.237,5.237,0,0,1-2.448,4.389h0a11.819,11.819,0,0,1-6.08,1.513c-.367,0-.584-.016-.584-.016l-1.912,4.151-1.664,3.613C656.891,896.941,650.673,900.6,644.307,900.6Z" transform="translate(-429.448 -593.074)" fill="#d6eeeb" fill-rule="evenodd"/>
        <path id="Path_56" data-name="Path 56" d="M745.892,974.785l-24.447-14.1,16.252-9.79,17.479-8.507,25.209,12.645-18.861,9.347Z" transform="translate(-490.57 -640.804)" fill="#ff4555" fill-rule="evenodd"/>
        <path id="Path_57" data-name="Path 57" d="M840.931,1010.985l1.741-.6,1.74-1.347-.076-.673-1.563.877-1.677,1Z" transform="translate(-571.818 -685.669)" fill="#40274f" fill-rule="evenodd"/>
        <path id="Path_58" data-name="Path 58" d="M851.449,991.3l17.3-8.473.039-.93-17.3,8.47Z" transform="translate(-578.97 -667.672)" fill="#40274f" fill-rule="evenodd"/>
        <path id="Path_59" data-name="Path 59" d="M811.827,1015.109l-13.951,9.412-.04-.886,13.956-9.409Z" transform="translate(-542.515 -689.654)" fill="#40274f" fill-rule="evenodd"/>
        <path id="Path_60" data-name="Path 60" d="M841.479,1011.389c0,.962,3.166-.863,3.166-1.826l.033-.808c0,1.093-3.235,2.842-3.235,1.751Z" transform="translate(-572.166 -685.935)" fill="#40274f" fill-rule="evenodd"/>
        <path id="Path_61" data-name="Path 61" d="M745.932,1014.548l-.04-.886-24.447-14.1.039.884Z" transform="translate(-490.57 -679.682)" fill="#40274f" fill-rule="evenodd"/>
        <path id="Path_62" data-name="Path 62" d="M815.861,957.6l-15.9,7.872-22.875-11.33,15.9-7.872Z" transform="translate(-528.405 -643.444)" fill="#fff" fill-rule="evenodd"/>
        <path id="Path_63" data-name="Path 63" d="M796.459,935.474a13,13,0,0,0-.634,3.813l.551,1.951,1.177,2.049c.631,1.087,1.474.509,1.015-.638l-.837-1.783v-1.58l2.647,2.85,2.234,3.507c.765.762,1.038.434,1.1-.352l.765.965c.657.818,1.478.064,1.189-.6l.288.25c.622.787,1.475.121,1-.827l-.365-.652c.766.53.736-.344.063-1.434l-2.111-3.9c-.43-.88-3.508-4.017-4.959-4.591A2.512,2.512,0,0,0,796.459,935.474Z" transform="translate(-541.147 -635.304)" fill="#ffae80" fill-rule="evenodd"/>
        <path id="Path_64" data-name="Path 64" d="M734.946,967.654c.693,2.2,1.977,3.248,4.265,4.907l4.265,2.784c1.277.381,1.36-.167.985-1.066l1.761,1.215c1.193.729,2.151-.073,1.6-.969l1.15.5c1.1.292,1.562-.339.492-1.561l-.683-.657c.985.485,2.006,0,.706-1.323a48.217,48.217,0,0,0-6.83-6.385,14.862,14.862,0,0,0-5.523-1.478l-3.744-1.228-1.886,3.445Z" transform="translate(-497.408 -654.407)" fill="#ffae80" fill-rule="evenodd"/>
        <path id="Path_65" data-name="Path 65" d="M640.4,836.735c-3.829,3.175-4.86,6.368-4.156,13.12,1.61,15.467,7.933,25.408,7.933,25.408,6.624,3.628,15.925,5.5,25.854,6.949-.122-1.965.427-3.439,2.186-4.037-8.908-4.263-18.653-10.231-22.274-9.948a93.4,93.4,0,0,0-3.2-21.1C645.469,842.167,643.589,838.285,640.4,836.735Z" transform="translate(-432.496 -568.964)" fill="#fff" fill-rule="evenodd"/>
        <path id="Path_66" data-name="Path 66" d="M1065.056,1196.855l-14.018-24.278-30.911,17.851,26.369,17.144Z" transform="translate(-693.668 -797.33)" fill="#ff4555" fill-rule="evenodd"/>
        <path id="Path_67" data-name="Path 67" d="M1044.9,1288.978a1.263,1.263,0,0,1-1.255-1.14l-3.254-33.43-21.79-12.579-3.1,28.321a1.264,1.264,0,1,1-2.513-.277l3.528-32.169,26.267,15.162,3.382,34.726a1.258,1.258,0,0,1-1.135,1.379Z" transform="translate(-688.802 -841.616)" fill="#2d2856" fill-rule="evenodd"/>
        <path id="Path_68" data-name="Path 68" d="M1042.61,1241.323l-22.628-13.005c-1.711-.982-3.1-.18-3.1,1.8v.568l30.2,17.436-3.285-6.878A.886.886,0,0,1,1042.61,1241.323Z" transform="translate(-691.463 -834.948)" fill="#9e2e3b" fill-rule="evenodd"/>
        <path id="Path_69" data-name="Path 69" d="M1151.28,1227.557a1.262,1.262,0,0,1-1.254-1.143l-3.258-33.427-21.785-12.582-3.11,28.323a1.264,1.264,0,0,1-2.512-.275l3.53-32.17,26.267,15.167,3.384,34.722a1.271,1.271,0,0,1-1.136,1.379Z" transform="translate(-761.14 -799.851)" fill="#2d2856" fill-rule="evenodd"/>
        <path id="Path_70" data-name="Path 70" d="M1154.979,1092.557a1.128,1.128,0,0,1,1.137.112,3.475,3.475,0,0,1,1.612,2.978l-4.086,40.8-30.376-17.532,0-.564c0-1.974,1.379-2.781,3.1-1.8l22.625,13.005c.729.417,1.337.141,1.434-.634l4.1-35.558A1.017,1.017,0,0,1,1154.979,1092.557Z" transform="translate(-763.801 -742.845)" fill="#c43e3d" fill-rule="evenodd"/>
        <path id="Path_71" data-name="Path 71" d="M1113.105,1112.223l34.064-19.665a1.128,1.128,0,0,1,1.137.112,3.474,3.474,0,0,1,1.612,2.978l-4.086,40.8-34.051,19.659Z" transform="translate(-755.992 -742.845)" fill="#ff4555" fill-rule="evenodd"/>
        <path id="Path_72" data-name="Path 72" d="M1108.547,1157.1a3.461,3.461,0,0,0-1.586-2.962c-.839-.479-1.517-.181-1.616.684l-4.109,35.558-.23.551,3.285,6.878.164.091Z" transform="translate(-748.664 -784.635)" fill="#9e2e3b" fill-rule="evenodd"/>
        <path id="Path_73" data-name="Path 73" d="M427.006,1040.158l-47.442,27.391v63.343l47.442-27.39Z" transform="translate(-258.097 -707.288)" fill="#9e2e3b" fill-rule="evenodd"/>
        <path id="Path_74" data-name="Path 74" d="M111.138,857.782,63.7,885.177l101.084,58.361,47.442-27.391Z" transform="translate(-43.312 -583.276)" fill="#dce1cb" fill-rule="evenodd"/>
        <path id="Path_75" data-name="Path 75" d="M63.7,1006.723V943.384l101.084,58.361v63.343Z" transform="translate(-43.312 -641.484)" fill="#ff4555" fill-rule="evenodd"/>
        <path id="Path_76" data-name="Path 76" d="M82.077,602.878l5.88-3.4V436.9l-5.88,3.395Z" transform="translate(-55.811 -297.086)" fill="#9e2e3b" fill-rule="evenodd"/>
        <path id="Path_77" data-name="Path 77" d="M63.7,429.685l5.882,3.395,5.88-3.395-5.88-3.4Z" transform="translate(-43.312 -289.868)" fill="#9d9d9c" fill-rule="evenodd"/>
        <path id="Path_78" data-name="Path 78" d="M69.578,602.878l-5.882-3.4V436.9l5.882,3.395Z" transform="translate(-43.312 -297.086)" fill="#ff4555" fill-rule="evenodd"/>
        <path id="Path_79" data-name="Path 79" d="M918.885,1151.794l5.882-3.4V922.972l-5.882,3.4Z" transform="translate(-624.825 -627.603)" fill="#9e2e3b" fill-rule="evenodd"/>
        <path id="Path_80" data-name="Path 80" d="M900.507,915.755l5.881,3.4,5.882-3.4-5.882-3.4Z" transform="translate(-612.328 -620.387)" fill="#9d9d9c" fill-rule="evenodd"/>
        <path id="Path_81" data-name="Path 81" d="M906.388,1151.794l-5.881-3.4V922.972l5.881,3.4Z" transform="translate(-612.328 -627.603)" fill="#ff4555" fill-rule="evenodd"/>
        <path id="Path_82" data-name="Path 82" d="M337.372,386.545,71.133,231.917l158.331-92.154L495.7,294.392ZM63.7,231.917,337.372,390.865l165.768-96.472L229.464,135.445Z" transform="translate(-43.312 -92.1)" fill="gray" fill-rule="evenodd"/>
        <path id="Path_83" data-name="Path 83" d="M337.372,251.1,71.133,96.472,229.464,4.319,495.7,158.947ZM63.7,96.472,337.372,255.418l165.768-96.471L229.464,0Z" transform="translate(-43.312)" fill="#dce1cb" fill-rule="evenodd"/>
        <path id="Path_84" data-name="Path 84" d="M63.7,344.8,337.372,503.749V460.4L63.7,301.456Z" transform="translate(-43.312 -204.985)" fill="#ff4555" fill-rule="evenodd"/>
        <path id="Path_85" data-name="Path 85" d="M136.531,406.081v-12.96L330.194,505.6v12.957Z" transform="translate(-92.839 -267.315)" fill="#fff" fill-rule="evenodd"/>
        <path id="Path_86" data-name="Path 86" d="M581.692,56.84,810.615,189.8l37.316-21.676L581.692,13.5Z" transform="translate(-395.54 -9.177)" fill="#ff4555" fill-rule="evenodd"/>
        <path id="Path_87" data-name="Path 87" d="M1084.653,540.026,918.885,636.5V593.152l165.768-96.471Z" transform="translate(-624.825 -337.734)" fill="#9e2e3b" fill-rule="evenodd"/>
        <path id="Path_88" data-name="Path 88" d="M245.267,56.84,124.251,127.321,86.936,105.649,245.267,13.5Z" transform="translate(-59.115 -9.177)" fill="#9e2e3b" fill-rule="evenodd"/>
        <path id="Path_89" data-name="Path 89" d="M141.007,967.345l-5.924-.565.822-1.7,3.77-2.838Z" transform="translate(-91.854 -654.308)" fill="#ffd88f" fill-rule="evenodd"/>
        <path id="Path_90" data-name="Path 90" d="M122.739,964.63l12.594-20.651,13.222,6.4-12.6,20.651Z" transform="translate(-83.461 -641.888)" fill="#291933" fill-rule="evenodd"/>
        <path id="Path_91" data-name="Path 91" d="M140.651,970.462l-11.985-5.8,10.958-17.919,11.985,5.8Z" transform="translate(-87.491 -643.765)" fill="#fff" fill-rule="evenodd"/>
        <path id="Path_92" data-name="Path 92" d="M145.343,954.158l-2.393-.447a5.356,5.356,0,0,1-3.785,3.063l-1.251.423a8.882,8.882,0,0,0-1.07-2c.21-1.643,1.167-3.144,2.108-3.422l3.649-.658,4.444,1.6C147.167,953.7,146.783,954.148,145.343,954.158Z" transform="translate(-93.052 -646.743)" fill="#ffae80" fill-rule="evenodd"/>
        <path id="Path_93" data-name="Path 93" d="M165.973,976.755l-.265-.01a.759.759,0,0,1-.584-.9l3.907-18.2a.76.76,0,0,1,1.486.32l-3.909,18.2A.756.756,0,0,1,165.973,976.755Z" transform="translate(-112.269 -650.772)" fill="#291933" fill-rule="evenodd"/>
        <path id="Path_94" data-name="Path 94" d="M163.31,979.752c.1.707-.363,1.213-.353,1.716,0,.193.044.557.077.889l.036.592c-.044,1.182-2.7,2.909-3.56,3.441l-3.455,1.643-4.1,3.644-.835-1.4-1.995-3.055,3.07-3.724a11.165,11.165,0,0,1,.278-5.2l1.593-1.924L157,974.938l-.292,1.274a26.105,26.105,0,0,1,2.4-1.435c.563-.29,1.557-.464,1.979.04l.281,1.051c.194.305.93.624,1.082.959.144.318-.088,1.126.042,1.451C162.65,978.662,163.2,979,163.31,979.752Z" transform="translate(-101.401 -662.64)" fill="#ffae80" fill-rule="evenodd"/>
        <path id="Path_95" data-name="Path 95" d="M173.31,977.317l.048-.207v0Z" transform="translate(-117.848 -664.415)" fill="#ffebc7" fill-rule="evenodd"/>
        <path id="Path_96" data-name="Path 96" d="M164.117,979.628l2.99-2.513-.048.207-.155.67Z" transform="translate(-111.597 -664.42)" fill="#ffa064" fill-rule="evenodd"/>
        <path id="Path_97" data-name="Path 97" d="M156.19,1008.378l-.835-1.4a16.31,16.31,0,0,0,4.289-4.312c3.021-.02,6.542-1.254,7.628-3.613l.036.592c-.043,1.159-2.587,2.837-3.5,3.405-.02.013-.038.024-.055.036l-3.267,1.551-.188.092-3.494,3.1Z" transform="translate(-105.639 -679.34)" fill="#ffa064" fill-rule="evenodd"/>
        <path id="Path_98" data-name="Path 98" d="M38.448,946.727c-7.251,3.938-33.355,6.52-35.549-1.385-6.633-21.756-.493-34.031,4.621-36.389C7.52,908.953,40.849,947.443,38.448,946.727Z" transform="translate(-0.002 -618.071)" fill="#d6eeeb" fill-rule="evenodd"/>
        <path id="Path_99" data-name="Path 99" d="M97.776,1358.179c0-2.934-2.264-4.06-5.616-4.415-2.929,0-6.869,1.307-12.046,2.5l-5.9,3.229a13.189,13.189,0,0,0-.429,8.2c1.659,1.433,3.762,2.319,5.707,1.8l6.631-2.808.477-.956C91.884,1365.151,97.776,1362.75,97.776,1358.179Z" transform="translate(-49.86 -920.535)" fill="#0b1017" fill-rule="evenodd"/>
        <path id="Path_100" data-name="Path 100" d="M34.283,1324.348c0-2.391-2.143-2.8-5.342-3.054-5.778,0-6.025,2.893-11.341,2.768l-5.225,3.177a15.634,15.634,0,0,0-.227,8.788,7.5,7.5,0,0,0,5.813,1.416l5.372-3.16.455-.973C28.832,1332.558,34.283,1328.815,34.283,1324.348Z" transform="translate(-7.907 -898.455)" fill="#0b1017" fill-rule="evenodd"/>
        <path id="Path_101" data-name="Path 101" d="M14.291,1075.671l19.254,8.049a66.378,66.378,0,0,1-.383,9.009c-1.216,8.871-4.794,22.277-4.794,22.277-2.581,11.4-3.614,25.547-4.219,40.462-.1,5.37-8.087,10.076-13.2,5-1.469-18.2-1.463-35.88,2.82-47.588-2.049-9.242-.153-19.729.423-30.379C14.069,1081.118,14.832,1075.9,14.291,1075.671Z" transform="translate(-6.844 -731.436)" fill="#201c3d" fill-rule="evenodd"/>
        <path id="Path_102" data-name="Path 102" d="M57.714,1082.233a224.478,224.478,0,0,1-3.549,22.248l-1.962,40.4a6.318,6.318,0,0,1-2.517,6.174,7.817,7.817,0,0,1-10.4-1.432c-2.492-18.168-3.473-35.582.163-47.273-2.567-9.235-2.44-17.818-2.454-28.461-5.925-2.414-15.1-5.862-14.721-15.213a46.67,46.67,0,0,1,1.573-10.381c.163-.641.353-1.281.553-1.912.163-.489.315-.969.491-1.446,3.271,6.555,13.8,10.644,25.254,9.2.5-.067.994-.139,1.5-.23q1.83-.3,3.674-.792s.1.653.265,1.774c.126.915.3,2.136.49,3.573C56.934,1065.1,58.193,1076.256,57.714,1082.233Z" transform="translate(-15.136 -710.54)" fill="#2d2856" fill-rule="evenodd"/>
        <path id="Path_103" data-name="Path 103" d="M118.26,1289.143h0l.414-8.5Z" transform="translate(-80.415 -870.814)" fill="#5d1f97" fill-rule="evenodd"/>
        <path id="Path_104" data-name="Path 104" d="M115.873,1322.915l.654-13.465h0l-.653,13.465Zm.745-15.312h0l.019-.4h0Z" transform="translate(-78.792 -888.874)" fill="#51188c" fill-rule="evenodd"/>
        <path id="Path_105" data-name="Path 105" d="M118.081,1309.24l.038-.785h0Z" transform="translate(-80.293 -889.725)" fill="#50188c" fill-rule="evenodd"/>
        <path id="Path_106" data-name="Path 106" d="M117.919,1311.969h0l.052-1.061Z" transform="translate(-80.183 -891.392)" fill="#50188c" fill-rule="evenodd"/>
        <path id="Path_107" data-name="Path 107" d="M124.72,1196.79c.5-2.6,1.122-6.054,1.657-9.577h0C125.842,1190.74,125.216,1194.192,124.72,1196.79Z" transform="translate(-84.808 -807.282)" fill="#5d1f97" fill-rule="evenodd"/>
        <path id="Path_108" data-name="Path 108" d="M129.9,1182.4h0c.115-.756.226-1.514.33-2.266h0Q130.074,1181.263,129.9,1182.4Z" transform="translate(-88.328 -802.466)" fill="#51188c" fill-rule="evenodd"/>
        <path id="Path_109" data-name="Path 109" d="M130.546,1130.838h0c.288-2.079.53-4.122.679-5.971.343-4.275-.2-11.2-.861-17.227.66,6.026,1.209,12.952.864,17.222C131.076,1126.713,130.835,1128.759,130.546,1130.838Z" transform="translate(-88.644 -753.174)" fill="#a21b42" fill-rule="evenodd"/>
        <path id="Path_110" data-name="Path 110" d="M115.685,1358.922a7.006,7.006,0,0,0,.047-2.319l.014-.3h0l-.016.305A6.876,6.876,0,0,1,115.685,1358.922Z" transform="translate(-78.664 -922.259)" fill="#070612" fill-rule="evenodd"/>
        <path id="Path_111" data-name="Path 111" d="M107.219,1189.022c1.76-17,2.54-32.941,0-45.277,3.8-13.991,4.042-30.057-.319-40.866h0l.25-.071c1.2-.322,2.405-.627,3.5-.953l.45-.124c.411-.125.789-.234,1.147-.339.467-.144.915-.288,1.311-.413l.5-.181.1-.036c.084.716.167,1.451.25,2.2.656,6.026,1.2,12.952.861,17.227-.148,1.849-.391,3.892-.679,5.971-.1.753-.215,1.511-.33,2.267-.535,3.524-1.16,6.979-1.657,9.577-.51,2.666-.884,4.43-.884,4.43l-.77,15.893-.414,8.5-.019.4-.091,1.847-.654,13.465-.014.3a7.006,7.006,0,0,1-.047,2.319A6.267,6.267,0,0,1,107.219,1189.022Z" transform="translate(-72.69 -748.497)" fill="#1d1043" fill-rule="evenodd"/>
        <path id="Path_112" data-name="Path 112" d="M14.028,952.578a13.134,13.134,0,0,1,0,6.243,18.436,18.436,0,0,0-.664,5.688c3.8,5.383,13.528,10.172,23.539,8.526.539-.2,1.885-.558,3.464-.989l.25-.071c1.13-.305,2.351-.647,3.5-.953l.45-.124c.411-.125.789-.234,1.147-.339.467-.144.915-.288,1.311-.413l.5-.181.377-.144-.449-8.379c.646-7.232.61-10.3,1.039-19.377,0-.325.019-.647.038-.989a15.3,15.3,0,0,1,.16-2.958c3.088-12.4,1.007-13.709-2.278-15.791-10.64-6.745-18.965-15.377-32.745-13.777C3.181,918.589,13.807,951.641,14.028,952.578Z" transform="translate(-6.155 -617.664)" fill="#ff4555" fill-rule="evenodd"/>
        <path id="Path_113" data-name="Path 113" d="M101.968,889.824c.673-.755-.362-2.5-1.12-2.746-1.052-.344-1.631,1.182-1.74,2.013A3.868,3.868,0,0,0,99.727,892c.719,1.061,1.843.02,2.2-.837C102.178,890.554,101.54,890.3,101.968,889.824Z" transform="translate(-67.356 -603.163)" fill="#ffd88f" fill-rule="evenodd"/>
        <path id="Path_114" data-name="Path 114" d="M58.326,894.477l4.707-8.135,12.8,6.276L70.881,901.8C66.251,901.8,56.745,897.522,58.326,894.477Z" transform="translate(-39.542 -602.696)" fill="#ffae80" fill-rule="evenodd"/>
        <path id="Path_115" data-name="Path 115" d="M95.059,879a2.51,2.51,0,0,0,4.224.644c2.656-2.414,7-10.382,5.553-16.779s-12.192,2.285-12.192,2.285Z" transform="translate(-62.996 -585.135)" fill="#ffae80" fill-rule="evenodd"/>
        <path id="Path_116" data-name="Path 116" d="M62.7,860.834a45.26,45.26,0,0,1,9.106,4.171,2.763,2.763,0,0,0,3.159-.138l1.662-1.258,1.168-3.554,2.572-1.03-.182-2.657a8.443,8.443,0,0,0,3.851-2.779c3.453-5.97-3.79-12.552-11.636-12.007C62.38,842.125,59.906,852.867,62.7,860.834Z" transform="translate(-41.905 -572.239)" fill="#0b1017" fill-rule="evenodd"/>
        <path id="Path_117" data-name="Path 117" d="M110.97,894.109a3.594,3.594,0,0,0,.082-1.136,1.373,1.373,0,0,0-.541-.969,1.429,1.429,0,0,0-1.859.543,4.137,4.137,0,0,0-.513,2.062c-.038.516-.073,1.031-.111,1.547a3.234,3.234,0,0,0,.086,1.291,1.08,1.08,0,0,0,.947.765,1.054,1.054,0,0,0,.8-.449,2.918,2.918,0,0,0,.4-.86A22.475,22.475,0,0,0,110.97,894.109Z" transform="translate(-73.441 -606.43)" fill="#ffae80" fill-rule="evenodd"/>
        <path id="Path_118" data-name="Path 118" d="M106.91,1102.878h0l.25-.071c1.13-.305,2.351-.647,3.5-.953l.45-.124c.411-.125.789-.234,1.147-.339.467-.144.915-.288,1.311-.413l.5-.181.1-.036-.1.036-.5.181c-.4.125-.844.269-1.311.413-.358.105-.736.214-1.147.339l-.45.124c-1.093.326-2.295.631-3.5.953Z" transform="translate(-72.697 -748.497)" fill="#170929" fill-rule="evenodd"/>
        <path id="Path_119" data-name="Path 119" d="M100.478,1027.238c-3.919-14.893-3.8-24.723-.97-37.716l9.1,7.734c-.43,9.078-.394,12.146-1.04,19.377h0l.449,8.379-.281.109-.1.036-.5.181c-.4.125-.844.268-1.311.413-.358.105-.736.214-1.147.339l-.45.124c-1.147.306-2.368.648-3.5.953Z" transform="translate(-66.265 -672.857)" fill="#ce2834" fill-rule="evenodd"/>
        <path id="Path_120" data-name="Path 120" d="M113.538,958.053c4.518,2.8,4.884,5.983,4.881,13.015l-.308,4.138,3.315-3.094c3.367-.217,4.878,1.494,4.542,5.649-1.187,6.966-4.641,14.649-10.261,16.628-3.108,1.095-6.366-.3-7.938-6.4l-3.807-15.623C103.4,961.947,105.508,956.332,113.538,958.053Z" transform="translate(-70.636 -651.25)" fill="#d6eeeb" fill-rule="evenodd"/>
        <path id="Path_121" data-name="Path 121" d="M57.235,908.531l1.275-1.817c.826,2.049,5.132,4.686,12.819,6.706l-.137,2.433C64.2,917.1,55.653,911.575,57.235,908.531Z" transform="translate(-38.789 -616.549)" fill="#d6eeeb" fill-rule="evenodd"/>
        <path id="Path_122" data-name="Path 122" d="M317.572,752.292l7.56-20.844c1.231-8.22,6.085-9.823,10.153-11.206l2.834,14.52-2.781,5.682-8.508,17.364c-1.194,2.647-2.522,5.323-3.947,8l-8.155-6.811C315.622,756.769,316.572,754.529,317.572,752.292Z" transform="translate(-214.01 -489.751)" fill="#fff" fill-rule="evenodd"/>
        <path id="Path_123" data-name="Path 123" d="M336.419,803.257h0l-1.785-1.491a89.855,89.855,0,0,0,5.075-12.785l2.166-13.66a47.269,47.269,0,0,0,2.213,12.343l-3.723,7.6C339.171,797.906,337.844,800.583,336.419,803.257Z" transform="translate(-227.545 -527.203)" fill="#d6eeeb" fill-rule="evenodd"/>
        <path id="Path_124" data-name="Path 124" d="M357.129,734.3c0,20.079,13.034,32.98,13.034,33.591,1.2.909,2.351,1.708,3.465,2.41,19.92,12.641,27.2-4.871,27.2-4.871-.915-6.585,1.761-11.39.725-20.428-.042-.391-.092-.765-.147-1.152a20.727,20.727,0,0,0-15.473-18.169,13.938,13.938,0,0,1-6.2-3.357c-4.46-4.226-8.018-4.88-14.45-4.118C359.749,721.305,357.318,726.9,357.129,734.3Z" transform="translate(-242.842 -488.183)" fill="#fff" fill-rule="evenodd"/>
        <path id="Path_125" data-name="Path 125" d="M421.966,819.363c-3.6,0-8-1.231-13.281-4.585l7.983-13.153,8.1-16.824a15.851,15.851,0,0,1,5.926-1.462c3.17,0,5.266,1.832,5.91,6.141a36.754,36.754,0,0,1,.242,4.225c0,5.291-1.156,9.093-1.162,13.3a20.784,20.784,0,0,0,.194,2.906S431.954,819.363,421.966,819.363Z" transform="translate(-277.899 -532.655)" fill="#d6eeeb" fill-rule="evenodd"/>
        <path id="Path_126" data-name="Path 126" d="M394.3,765.257l-1.11,3.526-2.031-.735v-3.984l2.031-1.386Z" transform="translate(-265.982 -518.607)" fill="#a1241d" fill-rule="evenodd"/>
        <path id="Path_127" data-name="Path 127" d="M385.631,780.193a253.559,253.559,0,0,0-.01,29.276l-3.3,3.146-2.277-5.156c.439-7.656,1.925-20.783,3.558-28Z" transform="translate(-258.423 -530.017)" fill="#ff4555" fill-rule="evenodd"/>
        <path id="Path_128" data-name="Path 128" d="M393.154,717.42l4.13,4.822c5.2,2.945-1.474,13.911-8.579,12.776l-5.881-4.089Z" transform="translate(-260.314 -487.832)" fill="#ffae80" fill-rule="evenodd"/>
        <path id="Path_129" data-name="Path 129" d="M405.095,727.918a36.04,36.04,0,0,1,4.108,3.2s-2.841,13.3-11.565,14.033a22.858,22.858,0,0,0-1.57-4.135C401.471,740.191,405.095,731.995,405.095,727.918Z" transform="translate(-269.319 -494.97)" fill="#a1d4cd" fill-rule="evenodd"/>
        <path id="Path_130" data-name="Path 130" d="M386.129,742.458l-3.2,3.057s-3.065-12.505-.375-15.153S386.129,742.458,386.129,742.458Z" transform="translate(-259.38 -496.416)" fill="#a1d4cd" fill-rule="evenodd"/>
        <path id="Path_131" data-name="Path 131" d="M377.591,755.35c-3.312,0-4.658-8.7-4.658-13.761l2.726-1.048a54.584,54.584,0,0,0,1.481,10.634l1.627-1.556v1.9l2.031.735.553-1.756c.167.463.336.972.489,1.511a9.086,9.086,0,0,1-1.159,2.016c.037-.623.076-1.215.117-1.77l-2.031-.735c-.258,1.139-.512,2.423-.758,3.816a.36.36,0,0,0-.075-.013A2.063,2.063,0,0,1,377.591,755.35Zm1.908-14.625c-.093-.536-.194-1.054-.305-1.548l2.109-.81Z" transform="translate(-253.588 -502.076)" fill="#d6eeeb" fill-rule="evenodd"/>
        <path id="Path_132" data-name="Path 132" d="M393.191,772.97l-2.031-.735v-1.9l1.57-1.5h0a21.9,21.9,0,0,1,1.013,2.378Z" transform="translate(-265.982 -522.793)" fill="#87221b" fill-rule="evenodd"/>
        <path id="Path_133" data-name="Path 133" d="M389.153,783.3a2.713,2.713,0,0,1-.361-.026c.246-1.393.5-2.678.758-3.816l2.031.735c-.042.556-.081,1.147-.118,1.77A3.008,3.008,0,0,1,389.153,783.3Z" transform="translate(-264.372 -530.017)" fill="#d6404e" fill-rule="evenodd"/>
        <path id="Path_134" data-name="Path 134" d="M394.291,746.764h0c0-.073-.241-3.98-.837-7.392l1.8-2.358,1.649-.637c.814,1.7.89,5.526.294,9.175A6.888,6.888,0,0,1,394.291,746.764Z" transform="translate(-267.541 -500.722)" fill="#d6a276" fill-rule="evenodd"/>
        <path id="Path_135" data-name="Path 135" d="M397.57,770.148c-.153-.539-.321-1.048-.489-1.511a21.888,21.888,0,0,0-1.013-2.378h0a6.881,6.881,0,0,0,2.908-1.212A22.078,22.078,0,0,1,397.57,770.148Z" transform="translate(-269.319 -520.217)" fill="#87c6bd" fill-rule="evenodd"/>
        <path id="Path_136" data-name="Path 136" d="M382.931,752.9a54.586,54.586,0,0,1-1.481-10.633l3.536-1.364c.111.494.212,1.012.305,1.548.6,3.412.832,7.32.837,7.392l-1.57,1.5Z" transform="translate(-259.379 -503.798)" fill="#87c6bd" fill-rule="evenodd"/>
        <path id="Path_137" data-name="Path 137" d="M362.3,676.225c6.366.066,10,3.065,10.246,9.708-.182,6.985-.534,11.2-3.9,15.968-2.1,2.636-4.956,4.539-8.209,4.375-3.873-.2-9.6-9.479-10.147-16.2C349.341,683.282,355.128,678.081,362.3,676.225Z" transform="translate(-238.118 -459.82)" fill="#ffae80" fill-rule="evenodd"/>
        <path id="Path_138" data-name="Path 138" d="M348.994,694.315c1.441,3.393,9.886,2.779,13.594-1.382l.415,2.489,3.412-2.831,2.971,3.855,1.072-1.522c2.7-5.426,2.566-14.353-5.135-18.835C355.03,671.953,342.266,683.937,348.994,694.315Z" transform="translate(-236.035 -459.158)" fill="#0b1017" fill-rule="evenodd"/>
        <path id="Path_139" data-name="Path 139" d="M404.521,728.3a5.551,5.551,0,0,0,.841-2.22,2.516,2.516,0,0,0-.742-2.158,1.8,1.8,0,0,0-2.226-.108,1.932,1.932,0,0,0-.637,1.477,5.528,5.528,0,0,0,.3,1.606c.138.473.277.95.415,1.423a1.27,1.27,0,0,0,.529.849l.912-.127Z" transform="translate(-273.188 -491.953)" fill="#ffae80" fill-rule="evenodd"/>
        <path id="Path_140" data-name="Path 140" d="M278.339,950.307,259.5,939.43l-26.849,15.5,18.839,10.881Z" transform="translate(-158.199 -638.795)" fill="#fff" fill-rule="evenodd"/>
        <path id="Path_141" data-name="Path 141" d="M261.3,995.159,247.679,987.3l-.814.469,13.618,7.863Z" transform="translate(-167.864 -671.344)" fill="#1d1d1b" fill-rule="evenodd"/>
        <path id="Path_142" data-name="Path 142" d="M268.93,991.137l-13.618-7.862-.5.289,13.618,7.862Z" transform="translate(-173.267 -668.608)" fill="#1d1d1b" fill-rule="evenodd"/>
        <path id="Path_143" data-name="Path 143" d="M273.139,988.709l-13.618-7.859-.5.29L272.637,989Z" transform="translate(-176.129 -666.959)" fill="#1d1d1b" fill-rule="evenodd"/>
        <path id="Path_144" data-name="Path 144" d="M277.344,986.276l-13.616-7.865-.5.292,13.618,7.862Z" transform="translate(-178.989 -665.3)" fill="#1d1d1b" fill-rule="evenodd"/>
        <path id="Path_145" data-name="Path 145" d="M285.756,981.425l-13.616-7.859-.5.288,13.618,7.86Z" transform="translate(-184.71 -662.007)" fill="#1d1d1b" fill-rule="evenodd"/>
        <path id="Path_146" data-name="Path 146" d="M289.965,978.988l-13.616-7.867-.5.289,13.618,7.866Z" transform="translate(-187.572 -660.344)" fill="#1d1d1b" fill-rule="evenodd"/>
        <path id="Path_147" data-name="Path 147" d="M285.768,971.708l-5.213-3.009-.5.289L285.267,972Z" transform="translate(-190.431 -658.697)" fill="#1d1d1b" fill-rule="evenodd"/>
        <path id="Path_148" data-name="Path 148" d="M298.379,974.139l-13.617-7.859-.5.288,13.618,7.86Z" transform="translate(-193.293 -657.052)" fill="#1d1d1b" fill-rule="evenodd"/>
        <path id="Path_149" data-name="Path 149" d="M302.589,971.7l-13.618-7.863-.5.29,13.616,7.865Z" transform="translate(-196.155 -655.39)" fill="#1d1d1b" fill-rule="evenodd"/>
        <path id="Path_150" data-name="Path 150" d="M303.6,967.434l-10.428-6.02-.5.289,10.429,6.021Z" transform="translate(-199.013 -653.743)" fill="#1d1d1b" fill-rule="evenodd"/>
        <path id="Path_151" data-name="Path 151" d="M311.872,957.635l-6.072-3.508-.5.289,6.072,3.5Z" transform="translate(-207.599 -648.789)" fill="#1d1d1b" fill-rule="evenodd"/>
        <path id="Path_152" data-name="Path 152" d="M316.082,955.2l-6.073-3.5-.5.289,6.071,3.507Z" transform="translate(-210.461 -647.135)" fill="#1d1d1b" fill-rule="evenodd"/>
        <path id="Path_153" data-name="Path 153" d="M323.825,962.184l.007.18-.179.627-.16.289-.311.313.193-.585Zm.281-.365c.309-.355.68-.686,1-1.038.533-.582.981-1.278.605-1.938a1.369,1.369,0,0,0-.835-.654,1.274,1.274,0,0,0-1.114.138c-.635.545-.017,1.244.528,1.721a3.773,3.773,0,0,1-.643-.906.684.684,0,0,1,.609-.959,1.413,1.413,0,0,1,1.276.532,1.1,1.1,0,0,1,.175.982c-.223.746-1.015,1.353-1.6,2.009l-.238.293a1.4,1.4,0,0,0-.906-.814,1.528,1.528,0,0,1,.846.893l-.374.628-.283.573.016.372c.35-.073.439-.382.534-.563l.227-.725-.031-.277Z" transform="translate(-219.606 -651.508)" fill="#1d71b8" fill-rule="evenodd"/>
        <path id="Path_154" data-name="Path 154" d="M329.845,966.452a1.9,1.9,0,0,1-.776.746l-.343-.131.031-.22.218-.36c.133-.152.667-.7,1.012-.447Zm3.094,3.2c-.891-.2-1.367-.739-1.13-1.271l.761-.128-.5.01-.033-.578-.511.252-.314-.065.142-.378.312-.407-.474.431-.605.049-.029-.194.227-.525.25-.305-.322.272a8.145,8.145,0,0,1-1.921,1.576l.45-.6.494-.608.354-.584.137-.427-.137-.178-.171-.24a.768.768,0,0,0-.938.267l-.451.524.044.29.278-.571.441-.431.473-.085.206.183-.487.033a1.931,1.931,0,0,0-.786.785c-.042.1-.193.637.235.548l.484-.262.433-.45.237-.509-.064.467-.228.4-.668.854-.376.686a9.545,9.545,0,0,0,1.77-1.332l.044.5.637-.079-.073.374.312.076.576-.263-.039.338.073.254-.322-.013c-.279.568.233,1.146,1.184,1.359Z" transform="translate(-223.393 -656.643)" fill="#1d71b8" fill-rule="evenodd"/>
        <path id="Path_155" data-name="Path 155" d="M378,943.689l-2.51,2.608-4.1-6.611,3.629-1.681Z" transform="translate(-252.537 -637.826)" fill="#f69a62" fill-rule="evenodd"/>
        <path id="Path_156" data-name="Path 156" d="M350.678,942.5a4.436,4.436,0,0,1,.159,2.962l.329.844.3.769.323,1.355a1.693,1.693,0,0,0,1.094.466l.6.944c.138.239.46.295.928.207l.743.755c.473.395,1.7.145,3.124.07l2.525-1.18s.756-.331.907-.871c.218-.771-.064-.916.062-1.273s.677-.625.677-1.486c0-1.028-.68-1.034-.739-1.482-.049-.394.346-.485.031-1.547-.242-.817-1.173-.827-1.424-1.267a5.657,5.657,0,0,0-.937-2.049c-.645-.661-2.181,0-2.181,0l-1.69.95-3.64-.418-.385.175A1.6,1.6,0,0,0,350.678,942.5Z" transform="translate(-238.37 -638.793)" fill="#ffae80" fill-rule="evenodd"/>
        <path id="Path_157" data-name="Path 157" d="M358.9,944.172l-2.727.325v2.668a17.431,17.431,0,0,1,1.8-2.04C358.484,944.6,358.9,944.172,358.9,944.172Z" transform="translate(-242.192 -642.019)" fill="#ffae80" fill-rule="evenodd"/>
        <path id="Path_158" data-name="Path 158" d="M342.012,941.482,352.59,927.9a.752.752,0,1,0-1.187-.923l-10.58,13.581c-.255.332-.9,1.727-.575,1.98S341.755,941.81,342.012,941.482Z" transform="translate(-231.301 -630.13)" fill="#1d1d1b" fill-rule="evenodd"/>
        <path id="Path_159" data-name="Path 159" d="M352.466,954.259l.3.769.323,1.355a1.693,1.693,0,0,0,1.094.466l.6.944c.138.239.46.294.928.207l.743.755c.473.395,1.7.145,3.124.07a10.97,10.97,0,0,1-1.777-5.41l1.5-2.3-6.041,2.057Z" transform="translate(-239.671 -646.743)" fill="#ffae80" fill-rule="evenodd"/>
        <path id="Path_160" data-name="Path 160" d="M360.156,943.447,357.47,945.7l-3.616,1.124c-1.4.454-1.971-1.249-.62-1.938l2.882-1.206,2.218-2.756A1.756,1.756,0,0,1,360.156,943.447Z" transform="translate(-239.671 -639.787)" fill="#ffae80" fill-rule="evenodd"/>
        <path id="Path_161" data-name="Path 161" d="M365.165,943.039l1.574-.182-2.867,2.162.787-1.98Z" transform="translate(-247.427 -641.125)" fill="#ffae80" fill-rule="evenodd"/>
        <path id="Path_162" data-name="Path 162" d="M339.8,976.214l.282-.3-.171-.134-.2.259.02.152Z" transform="translate(-230.997 -663.515)" fill="#b2b2b2" fill-rule="evenodd"/>
        <path id="Path_163" data-name="Path 163" d="M410.31,769.977c-5.15.344-7.645,3.329-9.164,11.662l-5.023,20.94c-5.888,5.067-11.039,12.175-17,21.7,1.971,1.443,3.741,3.795,3.087,6.245,9.6-5.909,17.645-13.079,23.779-22.576C412.01,792.556,420.262,775.1,410.31,769.977Z" transform="translate(-257.8 -523.57)" fill="#fff" fill-rule="evenodd"/>
        <path id="Path_164" data-name="Path 164" d="M264.462,911.9c-.578.961.464,2.053,1.243,1.34l.348-.184c-.348.68.662,1.875,1.457,1.13l.945-.877c.082.963.414,1.438,1.359.813l2.751-3.365,3.262-2.436v1.871l-1.027,1.824c-.578,1.193.463,2.171,1.243,1.11l.911-1.278.53-.725.694-2.122a17.793,17.793,0,0,0-.8-4.752l1.111-.913-3.28-2.3-1.673.959c-1.788.166-5.566,2.784-6.094,3.679l-2.6,3.859c-.829,1.06-.877,2.088.066,1.739Z" transform="translate(-179.66 -612.683)" fill="#ffae80" fill-rule="evenodd"/>
        <path id="Path_165" data-name="Path 165" d="M307.887,848.143a137.777,137.777,0,0,1-10.717,17.013l-1.085-1.321a5.115,5.115,0,0,0-3.411-2.364c1.221-6.079,4.208-13.049,7.058-20.139Z" transform="translate(-199.013 -572.089)" fill="#fff" fill-rule="evenodd"/>
        <path id="Path_166" data-name="Path 166" d="M336.419,859.447l-1.785-1.491h0Z" transform="translate(-227.545 -583.394)" fill="#d6eeeb" fill-rule="evenodd"/>
        <path id="Path_167" data-name="Path 167" d="M304.418,876.46l-.027-.033-1.058-1.288a129.027,129.027,0,0,0,10.017-17.183l1.785,1.491A137.771,137.771,0,0,1,304.418,876.46Z" transform="translate(-206.261 -583.394)" fill="#d6eeeb" fill-rule="evenodd"/>
        <path id="Path_168" data-name="Path 168" d="M271.272,926.464l.944-.877c.082.963.414,1.438,1.359.813l2.749-3.365,3.264-2.436v1.871l-1.028,1.823c-.578,1.193.463,2.171,1.243,1.11l.911-1.278c-.531.633-1.061,1.093-1.557,1.014-.216-.732.413-1.756,1.026-2.767a6.255,6.255,0,0,1-.249-3.281,5.973,5.973,0,0,1-4.025,2.834c-.711,1.74-1.655,3.409-2.832,4.141-.513-.065-.73-.48-.795-1.078a1.96,1.96,0,0,1-1.856,1.078l-.613-.733C269.467,926.015,270.477,927.21,271.272,926.464Z" transform="translate(-183.421 -624.965)" fill="#ffae80" fill-rule="evenodd"/>
        <path id="Path_169" data-name="Path 169" d="M780.769,772.55c0,6.323,5.124,14.4,11.446,18.054s11.446,1.483,11.446-4.839-5.124-14.4-11.446-18.056S780.769,766.228,780.769,772.55Z" transform="translate(-530.909 -520.823)" fill="#fff" fill-rule="evenodd"/>
        <path id="Path_170" data-name="Path 170" d="M337.372,251.1,71.133,96.472,229.464,4.319,495.7,158.947ZM63.7,96.472,337.372,255.418l165.768-96.471L229.464,0Z" transform="translate(-43.312)" fill="#dce1cb" fill-rule="evenodd"/>
      </g>
    </g>
  </g>
</svg>
